<svg width="556" height="556" viewBox="0 0 556 556" fill="none" xmlns="http://www.w3.org/2000/svg">
<path d="M339.256 488.698C339.438 489.116 337.957 490.226 336.273 492.638C334.023 495.653 332.761 499.515 332.712 503.527C332.664 507.54 333.833 511.441 336.01 514.531C337.643 517.002 339.053 518.112 338.901 518.578C338.749 519.044 336.872 518.435 334.64 516.023C333.335 514.603 332.274 512.901 331.515 511.01C330.539 508.671 330.045 506.094 330.075 503.488C330.105 500.883 330.658 498.323 331.688 496.016C332.496 494.15 333.597 492.481 334.934 491.098C337.237 488.77 339.134 488.352 339.256 488.698Z" fill="#263238"/>
<path d="M431.269 464.775H349.147C343.398 464.775 338.738 470.259 338.738 477.023V535.577C338.738 542.341 343.398 547.825 349.147 547.825H431.269C437.018 547.825 441.678 542.341 441.678 535.577V477.023C441.678 470.259 437.018 464.775 431.269 464.775Z" fill="#E47530"/>
<path d="M441.678 477.023C441.624 475.718 441.426 474.426 441.09 473.18C440.655 471.671 439.964 470.282 439.061 469.097C437.856 467.454 436.301 466.218 434.556 465.516C433.522 465.11 432.441 464.897 431.351 464.883H427.719H419.471H399.384H375.037H350.77C349.563 464.82 348.353 464.896 347.159 465.11C344.741 465.686 342.581 467.267 341.072 469.563C339.54 471.919 338.79 474.851 338.962 477.811V496.601C338.962 509.207 338.962 522.255 338.962 535.625C338.961 537.249 339.242 538.857 339.788 540.349C340.334 541.842 341.134 543.187 342.137 544.303C343.133 545.401 344.303 546.255 345.582 546.816C346.86 547.378 348.22 547.635 349.583 547.574H365.927H396.818H424.777H431.229C432.259 547.553 433.282 547.373 434.272 547.037C436.201 546.342 437.913 544.992 439.192 543.157C439.792 542.268 440.293 541.294 440.684 540.257C441.045 539.224 441.29 538.14 441.414 537.033C441.492 535.938 441.519 534.838 441.495 533.739C441.495 516.226 441.566 502.056 441.587 492.244C441.587 487.349 441.587 483.553 441.587 480.963C441.587 479.686 441.587 478.707 441.587 478.026C441.587 477.346 441.587 477.023 441.587 477.023C441.587 477.023 441.587 477.358 441.587 478.026C441.587 478.695 441.587 479.686 441.587 480.963C441.587 483.553 441.587 487.349 441.587 492.244C441.587 502.056 441.637 516.226 441.668 533.739C441.696 534.858 441.669 535.978 441.587 537.093C441.463 538.24 441.214 539.364 440.846 540.436C440.441 541.517 439.919 542.532 439.294 543.456C437.982 545.367 436.216 546.776 434.222 547.503C433.197 547.861 432.135 548.054 431.066 548.076H424.614H396.655H349.624C348.193 548.133 346.767 547.857 345.426 547.265C344.086 546.673 342.858 545.776 341.812 544.626C340.756 543.454 339.916 542.04 339.342 540.472C338.767 538.903 338.472 537.213 338.475 535.505V496.601C338.475 490.298 338.475 484.102 338.475 478.05C338.307 474.959 339.096 471.902 340.696 469.443C342.274 467.044 344.531 465.392 347.057 464.788C348.281 464.56 349.522 464.48 350.76 464.549H375.047H399.394H419.481H427.729H431.361C432.851 464.579 434.319 464.98 435.667 465.727C437.015 466.474 438.213 467.55 439.182 468.882C440.095 470.091 440.786 471.51 441.211 473.048C441.466 473.981 441.623 474.947 441.678 475.925C441.678 476.689 441.678 477.023 441.678 477.023Z" fill="#263238"/>
<path d="M447.166 525.693C448.05 525.69 448.914 525.996 449.649 526.572C450.384 527.148 450.958 527.967 451.297 528.927C451.637 529.886 451.727 530.943 451.556 531.963C451.384 532.982 450.96 533.919 450.336 534.655C449.712 535.391 448.917 535.892 448.051 536.096C447.185 536.3 446.287 536.196 445.471 535.799C444.654 535.402 443.957 534.729 443.466 533.865C442.975 533.001 442.713 531.985 442.713 530.945C442.713 529.554 443.182 528.22 444.016 527.235C444.851 526.251 445.984 525.696 447.166 525.693Z" fill="#455A64"/>
<path d="M371.334 547.825V548.075C371.334 549.7 370.785 551.257 369.809 552.406C368.833 553.554 367.51 554.199 366.129 554.199C364.751 554.196 363.43 553.55 362.456 552.402C361.482 551.253 360.935 549.698 360.935 548.075V547.825H371.334Z" fill="#263238"/>
<path d="M419.126 547.825V548.075C419.126 549.698 418.579 551.253 417.605 552.402C416.632 553.55 415.31 554.196 413.932 554.199C412.552 554.199 411.228 553.554 410.252 552.406C409.276 551.257 408.728 549.7 408.728 548.075V547.825H419.126Z" fill="#263238"/>
<path d="M441.678 534.288L448.211 532.831V529.19L441.678 527.591V534.288Z" fill="#263238"/>
<path d="M447.166 533.619C448.422 533.619 449.439 532.422 449.439 530.945C449.439 529.468 448.422 528.271 447.166 528.271C445.911 528.271 444.894 529.468 444.894 530.945C444.894 532.422 445.911 533.619 447.166 533.619Z" fill="#263238"/>
<path d="M447.166 473.012C448.047 473.012 448.908 473.32 449.641 473.896C450.373 474.471 450.944 475.29 451.281 476.247C451.618 477.205 451.706 478.259 451.534 479.275C451.362 480.292 450.938 481.226 450.315 481.959C449.693 482.691 448.899 483.191 448.035 483.393C447.171 483.595 446.276 483.491 445.462 483.095C444.648 482.698 443.953 482.026 443.463 481.164C442.974 480.303 442.713 479.289 442.713 478.253C442.713 476.863 443.182 475.53 444.017 474.547C444.852 473.564 445.985 473.012 447.166 473.012Z" fill="#455A64"/>
<path d="M441.678 481.607L448.211 480.139V476.498L441.678 474.898V481.607Z" fill="#263238"/>
<path d="M447.166 480.927C448.422 480.927 449.439 479.73 449.439 478.253C449.439 476.776 448.422 475.579 447.166 475.579C445.911 475.579 444.894 476.776 444.894 478.253C444.894 479.73 445.911 480.927 447.166 480.927Z" fill="#263238"/>
<path d="M360.509 464.775C360.661 464.775 360.773 483.362 360.773 506.294C360.773 529.226 360.661 547.825 360.509 547.825C360.357 547.825 360.245 529.238 360.245 506.294C360.245 483.35 360.367 464.775 360.509 464.775Z" fill="#263238"/>
<path d="M357.831 464.775C357.973 464.775 358.095 483.362 358.095 506.294C358.095 529.226 357.973 547.825 357.831 547.825C357.689 547.825 357.557 529.238 357.557 506.294C357.557 483.35 357.679 464.775 357.831 464.775Z" fill="#263238"/>
<path d="M380.819 464.775C380.961 464.775 381.083 483.362 381.083 506.294C381.083 529.226 380.961 547.825 380.819 547.825C380.677 547.825 380.555 529.238 380.555 506.294C380.555 483.35 380.677 464.775 380.819 464.775Z" fill="#263238"/>
<path d="M378.131 464.775C378.283 464.775 378.394 483.362 378.394 506.294C378.394 529.226 378.283 547.825 378.131 547.825C377.979 547.825 377.867 529.238 377.867 506.294C377.867 483.35 377.989 464.775 378.131 464.775Z" fill="#263238"/>
<path d="M401.129 464.775C401.271 464.775 401.393 483.362 401.393 506.294C401.393 529.226 401.271 547.825 401.129 547.825C400.987 547.825 400.865 529.238 400.865 506.294C400.865 483.35 400.977 464.775 401.129 464.775Z" fill="#263238"/>
<path d="M398.441 464.775C398.583 464.775 398.705 483.362 398.705 506.294C398.705 529.226 398.583 547.825 398.441 547.825C398.299 547.825 398.177 529.238 398.177 506.294C398.177 483.35 398.299 464.775 398.441 464.775Z" fill="#263238"/>
<path d="M421.429 464.775C421.581 464.775 421.703 483.362 421.703 506.294C421.703 529.226 421.581 547.825 421.429 547.825C421.277 547.825 421.165 529.238 421.165 506.294C421.165 483.35 421.287 464.775 421.429 464.775Z" fill="#263238"/>
<path d="M418.751 464.775C418.893 464.775 419.015 483.362 419.015 506.294C419.015 529.226 418.893 547.825 418.751 547.825C418.609 547.825 418.487 529.238 418.487 506.294C418.487 483.35 418.599 464.775 418.751 464.775Z" fill="#263238"/>
<path d="M366.15 499.036V516.119H369.822V499.036H366.15Z" fill="white"/>
<path d="M369.842 516.143H366.15V498.988H369.873L369.842 516.143ZM366.17 516.083H369.792V499.072H366.15L366.17 516.083Z" fill="#263238"/>
<g opacity="0.2">
<path d="M357.831 464.775V547.825H359.505V464.775H357.831Z" fill="black"/>
</g>
<g opacity="0.2">
<path d="M378.05 464.775V547.825H379.723V464.775H378.05Z" fill="black"/>
</g>
<g opacity="0.2">
<path d="M398.248 464.775V547.825H399.922V464.775H398.248Z" fill="black"/>
</g>
<g opacity="0.2">
<path d="M418.436 464.775V547.825H420.11V464.775H418.436Z" fill="black"/>
</g>
<path d="M173.55 429.763H71.9089V439.993H173.55V429.763Z" fill="#455A64"/>
<path d="M173.55 330.622H71.1785V397.018H173.55V330.622Z" fill="#455A64"/>
<path d="M71.909 330.622H57.7468V439.981H71.909V330.622Z" fill="#E0E0E0"/>
<path d="M71.9497 439.981C71.9497 439.981 71.9497 439.79 71.9497 439.42C71.9497 439.05 71.9497 438.477 71.9497 437.785C71.9497 436.328 71.9497 434.203 71.9497 431.518C71.9497 426.05 71.9497 418.171 71.8685 408.371C71.8685 388.757 71.8076 361.468 71.7569 330.622L72.0207 330.932H57.7469L58.0107 330.622C57.9498 377.739 57.8991 418.792 57.8788 439.981L57.7469 439.826L68.2265 439.922H70.9656H71.9091C71.9091 439.922 71.6149 439.922 71.0062 439.922H68.3077L57.7469 440.136H57.615V439.981C57.615 418.792 57.5339 377.739 57.4832 330.622L57.7469 330.311H72.1729V330.669C72.1221 361.599 72.0816 388.972 72.0511 408.633C72.0511 418.41 72.0511 426.265 71.9801 431.709C71.9801 434.383 71.9801 436.484 71.9801 437.904C71.9801 438.596 71.9801 439.098 71.9801 439.504C71.9801 439.91 71.9497 439.981 71.9497 439.981Z" fill="#263238"/>
<path d="M187.743 330.622H173.58V439.981H187.743V330.622Z" fill="#E0E0E0"/>
<path d="M187.743 439.981C187.743 439.981 187.743 439.79 187.743 439.42C187.743 439.05 187.743 438.477 187.743 437.785C187.743 436.328 187.743 434.203 187.743 431.517C187.743 426.05 187.743 418.171 187.672 408.371C187.672 388.757 187.601 361.468 187.55 330.621L187.814 330.932H173.611L173.875 330.621C173.814 377.739 173.763 418.792 173.743 439.981L173.611 439.826L184.091 439.921H186.83H187.773C187.773 439.921 187.479 439.921 186.87 439.921H184.172L173.611 440.005H173.479V439.85C173.479 418.661 173.408 377.608 173.347 330.49L173.611 330.18H188.007V330.669C188.007 361.599 187.926 388.972 187.895 408.633C187.895 418.41 187.834 426.265 187.814 431.708C187.814 434.382 187.814 436.483 187.814 437.904C187.814 438.596 187.814 439.098 187.814 439.504C187.814 439.91 187.743 439.981 187.743 439.981Z" fill="#263238"/>
<path d="M317.667 429.763H216.026V439.993H317.667V429.763Z" fill="#263238"/>
<path d="M317.667 330.622H215.296V397.018H317.667V330.622Z" fill="#455A64"/>
<path d="M216.026 330.622H201.864V439.981H216.026V330.622Z" fill="#E0E0E0"/>
<path d="M216.006 439.981C216.006 439.981 216.006 439.79 216.006 439.42C216.006 439.05 216.006 438.477 216.006 437.785C216.006 436.328 216.006 434.203 216.006 431.517C216.006 426.05 216.006 418.171 215.935 408.371C215.935 388.757 215.864 361.468 215.813 330.621L216.077 330.932H201.874L202.138 330.621C202.077 377.739 202.027 418.792 202.006 439.981L201.874 439.826L212.354 439.921H215.093H216.037C216.037 439.921 215.742 439.921 215.134 439.921H212.435L201.874 440.005H201.742V439.85C201.742 418.661 201.671 377.608 201.611 330.49L201.874 330.18H216.3V330.669C216.3 361.599 216.219 388.972 216.189 408.633C216.189 418.41 216.128 426.265 216.108 431.708C216.108 434.382 216.108 436.483 216.108 437.904C216.108 438.596 216.108 439.098 216.108 439.504C216.108 439.91 216.006 439.981 216.006 439.981Z" fill="#263238"/>
<path d="M331.86 330.622H317.698V439.981H331.86V330.622Z" fill="#E0E0E0"/>
<path d="M331.86 439.981C331.86 439.981 331.86 439.79 331.86 439.42C331.86 439.05 331.86 438.477 331.86 437.785C331.86 436.328 331.86 434.203 331.86 431.517C331.86 426.05 331.86 418.171 331.789 408.371C331.789 388.757 331.718 361.468 331.677 330.621L331.931 330.932H317.728L317.992 330.621C317.941 377.739 317.891 418.792 317.86 439.981L317.728 439.826L328.218 439.921H330.947H331.89C331.89 439.921 331.596 439.921 330.998 439.921H328.289L317.728 440.005H317.606V439.85C317.606 418.661 317.535 377.608 317.475 330.49L317.738 330.18H332.164V330.669C332.164 361.599 332.083 388.972 332.053 408.633C332.053 418.41 331.992 426.265 331.972 431.708C331.972 434.382 331.972 436.483 331.972 437.904C331.972 438.596 331.972 439.098 331.972 439.504C331.942 439.665 331.905 439.825 331.86 439.981Z" fill="#263238"/>
<path d="M461.795 429.763H360.154V439.993H461.795V429.763Z" fill="#455A64"/>
<path d="M461.795 330.622H359.424V397.018H461.795V330.622Z" fill="#455A64"/>
<path d="M360.144 330.622H345.982V439.981H360.144V330.622Z" fill="#E0E0E0"/>
<path d="M360.154 439.981C360.145 439.794 360.145 439.607 360.154 439.42C360.154 439.026 360.154 438.477 360.154 437.785C360.154 436.328 360.154 434.203 360.154 431.517C360.154 426.05 360.154 418.171 360.073 408.371C360.073 388.757 360.002 361.468 359.961 330.621L360.215 330.932H346.012L346.276 330.621C346.225 377.739 346.174 418.792 346.144 439.981L346.012 439.826L356.502 439.921H359.231H360.184H359.281H356.573L346.012 440.005H345.86V439.85C345.86 418.661 345.779 377.608 345.718 330.49L345.982 330.18H360.407V330.669C360.407 361.599 360.326 388.972 360.296 408.633C360.296 418.41 360.235 426.265 360.215 431.708C360.215 434.382 360.215 436.483 360.215 437.904C360.215 438.596 360.215 439.098 360.215 439.504C360.215 439.91 360.154 439.981 360.154 439.981Z" fill="#263238"/>
<path d="M475.988 330.622H461.825V439.981H475.988V330.622Z" fill="#E0E0E0"/>
<path d="M475.988 439.981C475.988 439.981 475.988 439.79 475.988 439.42C475.988 439.05 475.988 438.477 475.988 437.785C475.988 436.328 475.988 434.203 475.988 431.517C475.988 426.05 475.937 418.171 475.907 408.371C475.907 388.757 475.836 361.468 475.795 330.621L476.059 330.932H461.856L462.12 330.621C462.059 377.739 462.008 418.792 461.978 439.981L461.856 439.826L472.336 439.921H475.065H476.018C476.018 439.921 475.724 439.921 475.115 439.921H472.407L461.856 440.005H461.724V439.85C461.724 418.661 461.643 377.608 461.592 330.49L461.856 330.18H476.282V330.669C476.282 361.599 476.191 388.972 476.16 408.633C476.16 418.41 476.099 426.265 476.089 431.708C476.089 434.382 476.089 436.483 476.089 437.904C476.089 438.596 476.089 439.098 476.089 439.504C476.089 439.91 475.988 439.981 475.988 439.981Z" fill="#263238"/>
<path d="M478.585 439.695H46.5977V452.456H478.585V439.695Z" fill="#455A64"/>
<path d="M490.099 380.7H475.988V530.981H490.099V380.7Z" fill="#E0E0E0"/>
<path d="M490.099 530.969C490.099 530.969 490.099 530.706 490.099 530.193C490.099 529.68 490.099 528.916 490.099 527.937C490.099 525.943 490.099 523.043 490.099 519.294C490.099 511.785 490.099 500.91 490.028 487.409C490.028 460.406 489.957 422.887 489.917 380.7L490.181 381.01H475.988L476.252 380.7C476.181 447.192 476.12 504.563 476.099 530.969L475.988 530.838L486.457 530.909H489.166H490.099C490.099 530.909 489.805 530.909 489.207 530.909H486.518L475.988 530.993H475.876V530.85C475.876 504.444 475.785 447.072 475.724 380.58V380.27H490.353V380.58C490.353 422.863 490.272 460.454 490.241 487.517C490.241 500.982 490.18 511.833 490.17 519.33C490.17 523.043 490.17 525.931 490.17 527.901C490.17 528.868 490.17 529.596 490.17 530.11C490.17 530.623 490.099 530.969 490.099 530.969Z" fill="#263238"/>
<path d="M58.0814 389.247H43.97V530.933H58.0814V389.247Z" fill="#E0E0E0"/>
<path d="M58.0714 530.933C58.0714 530.933 58.0714 530.671 58.0714 530.193C58.0714 529.716 58.0714 528.999 58.0714 528.068C58.0714 526.194 58.0714 523.46 58.0714 519.927C58.0714 512.848 58.0714 502.606 58.0004 489.88C58.0004 464.429 57.9294 429.059 57.8888 389.247L58.1424 389.557H44.0411L44.3049 389.247C44.2339 451.668 44.1831 505.626 44.1527 530.933L44.0411 530.79L54.5106 530.874H57.2192C57.8279 530.874 58.1424 530.874 58.1424 530.874H57.2598H54.5714L44.0411 530.945H43.9194V530.814C43.9194 505.506 43.8382 451.549 43.7773 389.127V388.817H58.4062V389.127C58.4062 429.023 58.325 464.477 58.2946 489.976C58.2946 502.677 58.2337 512.896 58.2236 519.963C58.2236 523.46 58.2236 526.17 58.2236 528.032C58.2236 528.94 58.2236 529.632 58.2236 530.122C58.2236 530.611 58.0714 530.933 58.0714 530.933Z" fill="#263238"/>
<path d="M475.987 439.981C475.987 440.16 382.564 440.172 267.359 439.981C152.154 439.79 58.761 439.599 58.761 439.42C58.761 439.241 152.154 439.241 267.41 439.42C382.665 439.599 475.987 439.814 475.987 439.981Z" fill="#263238"/>
<path d="M152.793 349.674C152.793 349.829 137.678 355.571 118.94 362.483C100.203 369.395 84.9752 374.838 84.9347 374.707C84.8941 374.576 100.04 368.798 118.788 361.886C137.536 354.974 152.743 349.507 152.793 349.674Z" fill="#263238"/>
<path d="M147.407 369.92C147.407 370.099 139.656 372.307 130.019 374.886C120.381 377.464 112.529 379.41 112.529 379.243C112.529 379.076 120.279 376.856 129.917 374.277C139.555 371.699 147.376 369.753 147.407 369.92Z" fill="#263238"/>
<path d="M443.768 385.26C443.562 385.223 443.362 385.159 443.169 385.069L441.475 384.376C440.004 383.779 437.904 382.836 435.327 381.583C432.75 380.33 429.737 378.718 426.44 376.808C423.143 374.898 419.592 372.594 415.95 370.027C412.308 367.461 408.951 364.787 405.958 362.268C402.965 359.749 400.348 357.338 398.217 355.249C396.087 353.16 394.372 351.417 393.246 350.163L391.938 348.719C391.643 348.385 391.491 348.194 391.512 348.182C391.694 348.301 391.861 348.45 392.009 348.624L393.378 349.972C394.555 351.166 396.28 352.861 398.451 354.903C400.622 356.944 403.249 359.296 406.242 361.803C409.235 364.309 412.603 366.912 416.224 369.49C419.846 372.069 423.397 374.325 426.663 376.295C429.93 378.264 432.933 379.876 435.479 381.189C438.026 382.502 440.095 383.505 441.566 384.162L443.22 384.961C443.414 385.029 443.598 385.13 443.768 385.26Z" fill="#263238"/>
<path d="M416.712 381.774C416.661 381.929 411.802 379.936 405.867 377.321C399.932 374.707 395.154 372.439 395.205 372.284C395.255 372.128 400.115 374.11 406.05 376.736C411.984 379.363 416.763 381.607 416.712 381.774Z" fill="#263238"/>
<path d="M204.177 495.897L206.074 523.663C206.074 523.663 182.741 535.255 182.64 540.436L228.535 538.048L227.094 494.631L204.177 495.897Z" fill="#455A64"/>
<path d="M220.176 520.595C220.613 520.73 220.994 521.045 221.249 521.484C221.505 521.922 221.617 522.455 221.566 522.983C221.468 523.508 221.203 523.97 220.826 524.273C220.449 524.577 219.988 524.701 219.537 524.618C219.062 524.477 218.648 524.131 218.378 523.65C218.108 523.169 218 522.586 218.076 522.016C218.225 521.474 218.548 521.021 218.976 520.754C219.404 520.487 219.903 520.425 220.369 520.583" fill="#E0E0E0"/>
<path d="M228.535 538.048L228.241 533.679L184.354 537.594C184.354 537.594 182.325 538.788 182.64 540.436L228.535 538.048Z" fill="#263238"/>
<path d="M205.313 523.437C205.313 523.699 206.46 523.759 207.596 524.547C208.732 525.335 209.361 526.421 209.564 526.302C209.767 526.182 209.371 524.678 207.982 523.747C206.592 522.816 205.263 523.198 205.313 523.437Z" fill="white"/>
<path d="M200.596 526.027C200.596 526.278 201.54 526.684 202.341 527.758C203.143 528.832 203.406 530.002 203.63 529.978C203.853 529.954 203.944 528.45 202.919 527.137C201.895 525.824 200.586 525.776 200.596 526.027Z" fill="white"/>
<path d="M198.111 532.951C198.324 532.951 198.577 531.661 197.948 530.241C197.32 528.82 196.254 528.307 196.163 528.534C196.072 528.761 196.762 529.501 197.259 530.671C197.756 531.84 197.888 532.927 198.111 532.951Z" fill="white"/>
<path d="M205.486 517.05C205.587 517.277 206.602 516.859 207.87 516.895C209.138 516.93 210.142 517.348 210.254 517.121C210.366 516.895 209.382 515.999 207.88 515.928C206.379 515.856 205.364 516.895 205.486 517.05Z" fill="white"/>
<path d="M322.578 495.956L321.34 527.089L326.413 552.051C326.5 552.477 326.512 552.919 326.447 553.351C326.382 553.782 326.243 554.193 326.037 554.558C325.832 554.923 325.564 555.235 325.252 555.473C324.939 555.711 324.589 555.871 324.221 555.942C323.796 556.029 323.359 555.994 322.948 555.841C322.536 555.687 322.162 555.419 321.858 555.059C317.911 550.38 303.445 533.106 303.648 530.826C303.881 528.2 303.09 497.878 303.09 497.878L322.578 495.956Z" fill="#455A64"/>
<path d="M324.211 555.942L303.678 528.725V530.05C303.651 531.19 303.971 532.303 304.581 533.189C306.214 535.577 310.85 541.999 321.827 555.059C322.142 555.43 322.53 555.705 322.956 555.859C323.382 556.013 323.834 556.041 324.272 555.942H324.211Z" fill="#263238"/>
<g opacity="0.6">
<path d="M309.339 518.828C309.657 519.12 309.873 519.539 309.946 520.005C310.019 520.472 309.944 520.954 309.734 521.359C309.501 521.747 309.149 522.015 308.752 522.106C308.356 522.197 307.945 522.105 307.604 521.849C307.265 521.54 307.035 521.095 306.958 520.6C306.881 520.104 306.963 519.592 307.188 519.163C307.47 518.788 307.864 518.556 308.287 518.516C308.711 518.476 309.132 518.631 309.46 518.948" fill="white"/>
</g>
<path d="M318.469 542.154C318.621 542.25 319.25 540.638 320.843 539.767C321.816 539.34 322.848 539.134 323.886 539.158C323.886 539.087 323.582 538.836 322.963 538.716C322.15 538.585 321.322 538.734 320.579 539.146C319.832 539.544 319.201 540.192 318.763 541.008C318.469 541.677 318.368 542.131 318.469 542.154Z" fill="white"/>
<path d="M320.234 546.38C321.004 545.906 321.797 545.483 322.608 545.115C323.467 544.943 324.335 544.836 325.205 544.793C324.803 544.484 324.344 544.291 323.866 544.231C323.388 544.171 322.905 544.245 322.456 544.447C320.884 544.948 320.102 546.297 320.234 546.38Z" fill="white"/>
<path d="M315.03 536.711C316.166 535.859 317.352 535.105 318.58 534.455C319.873 534.014 321.192 533.69 322.527 533.488C321.156 533.007 319.683 533.122 318.378 533.81C317.007 534.285 315.822 535.312 315.03 536.711Z" fill="white"/>
<path d="M314.735 527.209C314.796 527.4 316.277 526.719 318.185 526.695C320.092 526.672 321.583 527.245 321.644 527.054C320.589 526.339 319.388 525.976 318.171 526.003C316.954 526.031 315.766 526.447 314.735 527.209Z" fill="white"/>
<path d="M314.898 518.089C316.06 517.673 317.265 517.452 318.479 517.432C319.681 517.619 320.856 518 321.969 518.566C321.969 518.506 321.726 518.1 321.127 517.671C320.329 517.123 319.432 516.808 318.51 516.752C317.588 516.679 316.665 516.871 315.821 517.313C315.182 517.635 314.858 517.993 314.898 518.089Z" fill="white"/>
<path d="M318.469 515.701C318.575 515.316 318.596 514.905 318.53 514.507C318.466 513.426 318.217 512.37 317.8 511.403C317.55 510.662 317.096 510.04 316.511 509.637C316.309 509.521 316.08 509.482 315.858 509.527C315.636 509.572 315.432 509.698 315.274 509.887C314.986 510.274 314.827 510.77 314.827 511.284C314.868 512.332 315.217 513.33 315.815 514.108C316.413 514.886 317.222 515.394 318.104 515.546C318.979 515.675 319.866 515.496 320.654 515.03C321.441 514.565 322.094 513.834 322.527 512.931C322.639 512.706 322.706 512.454 322.725 512.194C322.745 511.934 322.715 511.672 322.639 511.427C322.539 511.189 322.38 510.994 322.181 510.868C321.983 510.741 321.757 510.691 321.533 510.723C320.877 510.876 320.265 511.225 319.758 511.738C319.027 512.398 318.401 513.207 317.911 514.125C317.706 514.441 317.558 514.802 317.475 515.188C318.183 514.027 319.031 512.994 319.991 512.12C320.446 511.694 320.982 511.407 321.553 511.284C321.675 511.263 321.799 511.288 321.908 511.354C322.017 511.421 322.106 511.525 322.162 511.654C322.2 511.82 322.208 511.994 322.187 512.164C322.166 512.334 322.116 512.498 322.04 512.645C321.645 513.409 321.072 514.023 320.388 514.415C319.705 514.806 318.94 514.959 318.185 514.853C317.438 514.723 316.751 514.298 316.237 513.647C315.722 512.996 315.411 512.158 315.355 511.272C315.346 510.914 315.442 510.564 315.629 510.281C315.715 510.177 315.827 510.107 315.948 510.079C316.07 510.051 316.195 510.068 316.309 510.126C316.8 510.474 317.19 510.991 317.424 511.606C317.986 512.883 318.34 514.272 318.469 515.701Z" fill="white"/>
<path d="M237.442 394.833C237.442 394.833 219.638 391.849 213.906 392.649C208.175 393.449 197.857 397.424 196.092 407.833C194.327 418.243 194.885 450.462 196.904 476.415C197.634 485.726 200.383 515.402 200.383 515.402L229.803 514.364L227.166 447.657V439.42L264.012 436.913L269.815 436.603L301.385 438.107C301.385 438.107 300.371 475.042 300.371 481.01V498.427L300.635 514.077C300.635 514.077 316.765 517.897 324.252 514.006C324.252 514.006 329.588 461.719 330.47 453.483C331.901 440.041 333.889 412.143 331.901 406.186C329.912 400.229 321.157 390.87 314.046 391.539C306.934 392.207 266.609 394.547 266.609 394.547L237.442 394.833Z" fill="#263238"/>
<g opacity="0.3">
<path d="M286.614 394.762C283.013 396.266 279.645 398.451 276.094 400.122C272.543 401.793 268.699 402.963 264.935 402.283C260.583 401.495 254.384 398.427 250.062 399.358L254.445 403.142C256.914 406.629 259.932 409.523 263.332 411.666C265.67 413.386 268.357 414.339 271.113 414.423C273.532 414.22 275.885 413.406 278.011 412.036C281.139 410.409 283.95 408.044 286.269 405.088C287.733 402.996 289.36 401.069 291.129 399.334C293.452 397.185 295.937 395.848 297.865 393.652C294.182 392.458 290.216 393.258 286.614 394.762Z" fill="black"/>
</g>
<path d="M226.597 418.004C226.679 418.395 226.723 418.796 226.729 419.198L226.912 422.6C227.044 425.477 227.206 429.452 227.307 433.834C227.409 438.215 227.439 442.19 227.399 445.091C227.399 446.535 227.338 447.693 227.297 448.505C227.297 448.907 227.256 449.308 227.176 449.698C227.094 449.288 227.063 448.866 227.084 448.445C227.084 447.502 227.084 446.368 227.023 445.043C226.952 442.011 226.871 438.119 226.78 433.81C226.689 429.5 226.577 425.453 226.536 422.576C226.536 421.132 226.536 419.962 226.536 419.162C226.514 418.775 226.535 418.386 226.597 418.004Z" fill="#455A64"/>
<path d="M264.012 424.522C263.931 424.522 263.565 422.863 262.825 420.213C261.89 416.753 260.631 413.426 259.071 410.293C257.491 407.182 255.478 404.406 253.116 402.08C251.29 400.313 249.992 399.465 250.073 399.358C250.401 399.491 250.715 399.672 251.006 399.895C251.83 400.441 252.62 401.056 253.37 401.734C255.844 404.003 257.935 406.797 259.538 409.97C261.13 413.137 262.361 416.537 263.2 420.081C263.535 421.442 263.758 422.541 263.88 423.317C263.971 423.709 264.016 424.115 264.012 424.522Z" fill="#455A64"/>
<path d="M296.373 395.013C295.975 395.459 295.54 395.859 295.075 396.206C294.639 396.552 294.121 396.97 293.543 397.507C292.965 398.045 292.265 398.594 291.565 399.298C289.882 400.903 288.28 402.62 286.766 404.443C284.941 406.695 283.247 409.087 281.694 411.606C280.154 414.145 278.764 416.805 277.534 419.568C276.54 421.833 275.659 424.165 274.897 426.551C274.552 427.554 274.308 428.497 274.075 429.321C273.842 430.145 273.649 430.849 273.507 431.446C273.384 432.062 273.218 432.665 273.01 433.248C273.061 432.614 273.162 431.986 273.314 431.374C273.426 430.777 273.568 430.049 273.791 429.214C274.014 428.378 274.217 427.423 274.552 426.396C275.264 423.968 276.114 421.599 277.098 419.305C279.514 413.672 282.671 408.524 286.452 404.049C287.994 402.223 289.637 400.52 291.372 398.952C292.092 398.26 292.802 397.758 293.401 397.221C293.913 396.79 294.445 396.392 294.994 396.027C295.429 395.645 295.89 395.305 296.373 395.013Z" fill="#455A64"/>
<path d="M267.917 407.834C267.471 406.769 267.131 405.647 266.903 404.491C266.221 401.729 265.729 398.906 265.432 396.051C265.128 393.197 265.016 390.319 265.097 387.444C265.081 386.24 265.187 385.038 265.411 383.863C265.496 385.054 265.516 386.25 265.472 387.444C265.499 390.293 265.658 393.139 265.949 395.968C266.254 398.78 266.694 401.57 267.268 404.324C267.553 405.475 267.77 406.647 267.917 407.834Z" fill="#263238"/>
<path d="M302.237 419.377C302.378 422.735 302.348 426.099 302.146 429.452C302.121 432.815 301.915 436.172 301.527 439.504C301.386 436.146 301.416 432.782 301.618 429.428C301.643 426.066 301.849 422.709 302.237 419.377Z" fill="#455A64"/>
<path d="M297.439 424.665C297.591 424.665 298.281 427.912 299.468 431.828C300.655 435.743 301.791 438.883 301.649 438.99C299.487 434.575 298.068 429.712 297.469 424.665H297.439Z" fill="#455A64"/>
<path d="M250.052 303.917C250.052 303.917 234.541 307.845 231.223 310.376C227.906 312.906 223.107 326.849 223.107 326.849C223.107 326.849 207.292 374.528 209.919 384.018C212.547 393.508 222.783 392.744 225.4 392.482C228.017 392.219 249.18 357.863 249.18 357.863C249.18 357.863 239.796 352.993 241.977 342.989L237.401 348.456L242.271 317.335L250.052 303.917Z" fill="#FF725E"/>
<path d="M313.498 322.313C310.596 309.325 308.527 306.603 294.801 303.523L280.476 301.339L278.113 297.567H252.933L250.052 303.965L247.323 305.159L235.373 330.228L236.387 372.809L237.107 395.132C237.107 395.132 246.704 396.935 250.63 399.764C254.556 402.593 263.453 409.505 272.949 409.314C282.445 409.123 288.379 398.272 291.656 396.612C294.59 395.291 297.597 394.202 300.655 393.353L302.623 392.625C303.546 393.27 301.608 392.207 302.623 392.625C308.71 395.013 314.796 390.954 314.796 390.954C314.796 390.954 320.691 382.12 321.127 374.42C321.563 366.721 315.121 329.476 313.498 322.313Z" fill="#FF725E"/>
<path d="M240.749 345.221C240.577 345.529 240.373 345.81 240.141 346.057L238.325 348.218C236.773 350.044 234.571 352.575 232.045 355.452C231.092 356.12 230.077 356.789 229.002 357.386C227.034 358.52 225.096 359.403 223.402 360.346C221.897 361.14 220.485 362.159 219.202 363.378C218.059 364.569 217.007 365.875 216.057 367.282C216.224 366.833 216.435 366.408 216.686 366.016C217.337 364.916 218.1 363.914 218.958 363.032C220.241 361.74 221.668 360.659 223.199 359.821C224.893 358.842 226.821 357.947 228.768 356.836C229.834 356.24 230.797 355.643 231.812 354.926C234.358 352.061 236.6 349.59 238.213 347.836L240.131 345.806C240.32 345.588 240.527 345.392 240.749 345.221Z" fill="#263238"/>
<path d="M319.23 374.444C319.149 374.504 318.489 373.083 317.079 371.09C315.218 368.513 313.071 366.24 310.698 364.333C307.928 362.065 305.291 360.239 303.363 358.961C302.291 358.328 301.251 357.623 300.249 356.848C300.566 356.935 300.872 357.067 301.162 357.242C301.73 357.541 302.542 357.982 303.536 358.579C306.127 360.12 308.622 361.875 311.002 363.832C313.417 365.758 315.563 368.113 317.363 370.815C317.905 371.634 318.393 372.5 318.824 373.406C319.006 373.724 319.143 374.075 319.23 374.444Z" fill="#263238"/>
<path d="M296.698 331.362C296.84 331.362 297.845 337.092 298.951 344.23C300.056 351.369 300.817 357.195 300.675 357.218C300.533 357.242 299.529 351.488 298.423 344.35C297.317 337.211 296.556 331.386 296.698 331.362Z" fill="#263238"/>
<path d="M300.208 356.848C300.101 356.809 299.999 356.753 299.904 356.681L299.052 356.096L295.866 353.84L284.595 345.675H284.859L276.013 353.96L276.104 353.697C276.383 356.208 277.142 358.613 278.326 360.728C279.625 363.211 281.025 365.575 282.282 367.891C283.54 370.207 284.798 372.451 286.016 374.54C288.125 378.284 290.529 381.786 293.198 384.997C295.003 387.157 297.031 389.042 299.235 390.608C300.797 391.706 301.73 392.183 301.7 392.255C301.466 392.164 301.239 392.052 301.02 391.921C300.369 391.605 299.738 391.234 299.133 390.811C296.869 389.318 294.787 387.471 292.945 385.319C290.218 382.129 287.765 378.63 285.62 374.874C284.382 372.773 283.125 370.541 281.846 368.225C280.568 365.909 279.188 363.545 277.87 361.062C276.648 358.862 275.868 356.364 275.587 353.757V353.589L275.698 353.494L284.585 345.269L284.707 345.15L284.849 345.245L296.008 353.601L299.123 355.989L299.935 356.645C300.031 356.702 300.123 356.77 300.208 356.848Z" fill="#263238"/>
<g opacity="0.3">
<path d="M236.57 377.906C240.821 377.644 244.026 373.442 246.715 369.55L259.558 351.059C260.17 349.923 261.129 349.107 262.236 348.779C263.596 348.611 264.732 349.972 265.615 351.166C270.626 358.197 274.542 366.207 279.381 373.406C284.22 380.604 290.277 387.158 297.774 389.688C293.145 385.316 289.078 380.177 285.701 374.432C281.288 366.792 276.449 360.298 275.891 353.685C275.272 346.522 268.79 340.004 265.645 335.516C264.681 334.119 263.616 332.639 262.084 332.353C260.238 332.006 258.554 333.606 257.255 335.194C251.371 342.356 247.405 351.345 243.519 360.203L235.941 377.464" fill="black"/>
</g>
<path d="M249.484 357.445C249.596 357.553 246.441 362.614 242.525 368.738C238.609 374.862 235.261 379.756 235.15 379.661C235.038 379.565 238.142 374.504 242.099 368.368C246.055 362.232 249.383 357.35 249.484 357.445Z" fill="#263238"/>
<path d="M237.412 348.015C236.821 345.293 236.404 342.524 236.164 339.73C235.748 336.969 235.507 334.176 235.444 331.374C236.03 334.096 236.447 336.865 236.692 339.658C237.102 342.42 237.342 345.212 237.412 348.015Z" fill="#263238"/>
<path d="M304.51 309.027C302.688 310.571 301.011 312.339 299.508 314.303C298.153 316.41 296.997 318.683 296.059 321.084C296.119 320.29 296.305 319.517 296.607 318.803C297.228 317.035 298.069 315.386 299.103 313.909C300.138 312.434 301.355 311.15 302.714 310.101C303.253 309.619 303.861 309.255 304.51 309.027Z" fill="#263238"/>
<path d="M234.378 321.263C233.767 319.684 233.252 318.056 232.836 316.392C232.255 314.792 231.763 313.149 231.365 311.474C232.237 312.903 232.902 314.493 233.333 316.177C233.919 317.792 234.272 319.511 234.378 321.263Z" fill="#263238"/>
<path d="M280.477 301.291C280.68 301.606 280.831 301.962 280.923 302.342C281.057 302.794 281.112 303.273 281.085 303.75C281.026 304.376 280.868 304.984 280.619 305.541C280.008 306.974 279.199 308.277 278.225 309.397C277.149 310.662 275.932 311.975 274.664 313.396C273.396 314.816 272.158 316.13 271.042 317.371L270.788 317.646L270.656 317.287C269.965 315.29 269.144 313.359 268.201 311.51C267.481 310.185 266.872 309.588 266.913 309.528C266.954 309.468 267.096 309.624 267.38 309.91C267.777 310.329 268.134 310.797 268.445 311.307C269.48 313.113 270.367 315.032 271.093 317.037L270.707 316.953C271.823 315.759 273.03 314.351 274.309 312.942C276.825 310.113 279.31 307.749 280.284 305.338C280.54 304.84 280.713 304.289 280.791 303.715C280.838 303.279 280.814 302.838 280.72 302.413C280.621 302.045 280.54 301.67 280.477 301.291Z" fill="#263238"/>
<path d="M266.913 309.528C266.964 309.528 266.355 310.292 265.624 311.76C264.674 313.789 263.84 315.891 263.129 318.051L262.987 318.457L262.723 318.135C261.709 316.941 260.633 315.664 259.446 314.375C256.839 311.569 254.374 309.122 252.639 307.32C251.767 306.424 251.056 305.684 250.61 305.171C250.345 304.923 250.109 304.634 249.91 304.311C250.212 304.488 250.492 304.713 250.742 304.98L252.913 306.985C254.719 308.704 257.214 311.092 259.832 313.921C261.029 315.21 262.145 316.499 263.109 317.729L262.703 317.813C263.446 315.643 264.349 313.554 265.401 311.569C265.695 311.002 266.034 310.471 266.416 309.982C266.73 309.647 266.903 309.504 266.913 309.528Z" fill="#263238"/>
<path d="M283.094 388.507C282.635 388.385 282.187 388.213 281.755 387.993C280.893 387.623 279.675 387.038 278.184 386.238C274.319 384.157 270.613 381.688 267.106 378.861C263.605 376.011 260.316 372.817 257.276 369.311C256.119 367.962 255.247 366.84 254.618 366.028C254.283 365.632 253.984 365.196 253.725 364.727C254.09 365.07 254.43 365.449 254.739 365.861C255.378 366.613 256.322 367.7 257.509 369.001C263.691 375.802 270.705 381.476 278.316 385.833C279.777 386.668 280.964 387.325 281.796 387.755C282.248 387.954 282.683 388.206 283.094 388.507Z" fill="#263238"/>
<path d="M276.449 388.566C275.543 388.381 274.655 388.085 273.801 387.683C272.188 387.05 269.987 386.083 267.603 384.866C265.219 383.648 263.119 382.478 261.628 381.464C260.792 381 260 380.436 259.264 379.78C260.135 380.125 260.98 380.556 261.79 381.07C263.322 381.917 265.442 383.075 267.816 384.293C270.19 385.51 272.361 386.537 273.903 387.277C274.783 387.616 275.635 388.047 276.449 388.566Z" fill="#263238"/>
<path d="M265.087 376.784C265.047 376.564 265.027 376.34 265.026 376.116C265.026 375.614 264.975 374.981 264.935 374.206C264.874 372.546 264.803 370.147 264.752 367.186C264.64 361.217 264.61 353.052 264.813 344.004C265.016 334.955 265.391 326.754 265.767 320.845C265.949 317.884 266.112 315.485 266.254 313.837C266.325 313.073 266.375 312.441 266.426 311.939C266.431 311.717 266.462 311.496 266.517 311.283C266.542 311.505 266.542 311.729 266.517 311.951C266.517 312.453 266.517 313.085 266.446 313.861C266.365 315.604 266.254 317.98 266.122 320.869C265.858 326.837 265.523 334.967 265.33 344.016C265.138 353.064 265.107 361.253 265.117 367.186C265.117 370.075 265.117 372.463 265.117 374.206C265.117 374.981 265.117 375.602 265.117 376.116C265.131 376.339 265.12 376.564 265.087 376.784Z" fill="#263238"/>
<path d="M267.227 384.221C266.942 383.306 266.828 382.328 266.893 381.356C266.784 380.392 266.85 379.412 267.085 378.479C267.371 379.395 267.485 380.372 267.42 381.344C267.528 382.308 267.463 383.289 267.227 384.221Z" fill="#263238"/>
<path d="M275.86 353.697C275.86 353.697 274.471 349.065 272.817 347.227C271.163 345.388 267.481 342.846 266.608 341.485C265.736 340.124 264.397 335.003 264.397 335.003L261.658 335.444C261.658 335.444 261.272 339.754 259.345 339.097L257.539 336.244L258.229 324.235L260.146 321.084L266.71 320.129L272.046 321.024L273.142 325.715C273.142 325.715 275.678 334.68 276.297 335.91C276.915 337.14 284.798 345.4 284.798 345.4" fill="#FFBE9D"/>
<path d="M241.774 344.505C241.774 344.505 248.987 338.059 249.221 336.507C249.454 334.955 251.97 318.422 252.264 317.514C252.454 317.072 252.756 316.71 253.129 316.479C253.502 316.248 253.926 316.159 254.344 316.225C255.115 316.356 263.352 313.766 263.352 313.766L272.351 315.318L276.216 319.711C276.216 319.711 276.084 321.907 274.552 321.131L275.841 324.557C275.841 324.557 274.014 325.751 273.528 324.689L272.787 326.169C271.294 326.515 269.745 326.241 268.404 325.393L265.655 324.617L262.399 325.894L260.867 329.118C260.867 329.118 260.319 338.298 258.341 341.389C256.362 344.481 255.044 344.875 253.177 347.907C251.31 350.939 248.155 357.195 248.155 357.195C246.053 356.423 244.25 354.802 243.066 352.617C241.881 350.433 241.392 347.826 241.683 345.257L241.774 344.505Z" fill="#FFBE9D"/>
<path d="M241.774 344.505C241.768 344.816 241.748 345.127 241.713 345.436C241.647 346.327 241.664 347.224 241.764 348.11C241.965 349.763 242.483 351.34 243.279 352.722C244.075 354.104 245.129 355.254 246.36 356.084C246.759 356.356 247.176 356.587 247.607 356.777L247.952 356.92L248.115 356.992H248.206L248.013 357.075L248.399 356.311L250.042 353.124C250.621 352.026 251.229 350.892 251.878 349.722C252.528 348.492 253.261 347.327 254.07 346.236C254.922 345.114 255.957 344.171 256.849 343.061C257.308 342.497 257.735 341.899 258.128 341.27C258.499 340.617 258.799 339.911 259.02 339.169C259.896 335.905 260.441 332.532 260.644 329.118V329.046V328.986C261.12 327.983 261.658 326.885 262.175 325.763L262.226 325.668H262.318L265.615 324.366H265.686H265.757L268.506 325.13C269.807 325.884 271.272 326.15 272.706 325.894L272.564 326.026L273.304 324.545L273.548 324.044L273.761 324.545C273.933 324.975 274.775 324.796 275.313 324.545C275.452 324.483 275.587 324.412 275.719 324.331L275.597 324.736L274.309 321.31L274.035 320.594L274.654 320.893C274.788 320.996 274.945 321.052 275.105 321.052C275.266 321.052 275.422 320.996 275.557 320.893C275.798 320.586 275.938 320.188 275.952 319.77L276.033 320.021L272.168 315.628L272.31 315.7L263.312 314.136H263.413C260.694 314.96 258.087 315.771 255.541 316.392C255.216 316.464 254.902 316.535 254.526 316.571C254.151 316.607 254.171 316.571 254.029 316.571C253.889 316.574 253.75 316.594 253.613 316.631C253.344 316.7 253.092 316.845 252.88 317.052C252.668 317.26 252.502 317.525 252.396 317.825C252.102 319.162 251.878 320.594 251.655 321.919C250.783 327.267 250.022 331.994 249.393 335.934C249.393 336.173 249.312 336.423 249.281 336.662L249.139 337.044L248.957 337.354C248.717 337.725 248.452 338.072 248.165 338.393C247.628 339.038 247.09 339.587 246.593 340.1C245.579 341.127 244.696 341.962 243.976 342.631C243.255 343.299 242.677 343.825 242.292 344.123L241.855 344.505L241.693 344.612C241.865 344.411 242.048 344.224 242.241 344.051L243.874 342.476C244.574 341.783 245.447 340.936 246.431 339.897C246.928 339.372 247.445 338.811 247.973 338.178C248.244 337.858 248.495 337.515 248.723 337.151L248.886 336.877L248.987 336.59L249.089 335.862C249.667 331.935 250.377 327.196 251.239 321.824C251.473 320.463 251.665 319.114 251.98 317.658C252.107 317.275 252.313 316.936 252.578 316.669C252.843 316.402 253.161 316.217 253.502 316.13C253.675 316.084 253.852 316.056 254.029 316.046C254.181 316.057 254.334 316.057 254.486 316.046C254.78 316.046 255.094 315.939 255.409 315.867C257.925 315.234 260.542 314.422 263.241 313.587H263.291H263.342L272.351 315.127H272.432L272.493 315.198L276.358 319.591L276.449 319.687V319.83C276.425 320.407 276.223 320.955 275.881 321.37C275.673 321.557 275.424 321.669 275.163 321.695C274.903 321.72 274.641 321.657 274.41 321.513L274.755 321.107C275.191 322.23 275.617 323.376 276.054 324.533L276.155 324.796L275.932 324.927C275.787 325.017 275.638 325.097 275.486 325.166C275.139 325.339 274.774 325.451 274.4 325.5C274.195 325.523 273.988 325.499 273.791 325.429C273.573 325.348 273.388 325.173 273.274 324.939H273.832L273.091 326.42L273.03 326.539H272.949C271.388 326.85 269.784 326.575 268.364 325.751H268.415L265.665 324.975H265.807L262.51 326.264L262.652 326.121L261.11 329.344V329.213C260.916 332.663 260.371 336.074 259.487 339.372C258.544 342.702 256.058 344.481 254.415 346.594C253.617 347.66 252.891 348.797 252.244 349.996C251.594 351.19 250.976 352.276 250.397 353.375L248.723 356.538L248.338 357.29L248.135 357.386H248.044L247.871 357.314L247.526 357.159C247.077 356.956 246.642 356.708 246.228 356.419C244.97 355.552 243.899 354.354 243.1 352.918C242.301 351.483 241.795 349.85 241.622 348.146C241.524 347.246 241.524 346.336 241.622 345.436C241.622 345.126 241.693 344.887 241.713 344.744C241.734 344.6 241.764 344.505 241.774 344.505Z" fill="#EB996E"/>
<path d="M274.592 321.119C273.357 320.136 272.19 319.038 271.103 317.837L271.194 317.896L266.588 316.464L264.792 315.891H264.945C262.916 316.619 261.171 317.24 259.872 317.646C259.216 317.92 258.535 318.105 257.843 318.195C258.467 317.806 259.123 317.494 259.801 317.264C261.039 316.75 262.784 316.07 264.792 315.318H264.863H264.935L266.73 315.891L271.305 317.407H271.366C272.52 318.547 273.598 319.788 274.592 321.119Z" fill="#EB996E"/>
<path d="M273.568 324.701C272.702 323.815 271.904 322.84 271.184 321.788L271.296 321.871C269.967 321.513 268.313 321.036 266.528 320.499L265.381 320.152H265.503C263.474 320.642 261.77 321.048 260.502 321.346C259.84 321.554 259.158 321.658 258.473 321.657C259.104 321.334 259.764 321.098 260.441 320.952C261.689 320.582 263.423 320.105 265.402 319.591H265.462H265.523L266.67 319.926C268.455 320.463 270.099 320.988 271.417 321.418H271.488C272.274 322.427 272.971 323.527 273.568 324.701Z" fill="#EB996E"/>
<g opacity="0.3">
<path d="M257.6 368.869C257.6 368.869 270.616 383.445 282.13 387.886C285.326 389.08 275.242 385.725 270.474 382.824C267.43 381.01 266.822 380.019 264.154 377.596C261.486 375.172 258.909 372.749 257.6 369.24" fill="black"/>
</g>
<path d="M278.113 299.524L277.646 293.687C277.646 293.687 287.68 290.44 286.635 278.407C286.127 272.593 284.261 260.727 282.465 250.008C281.533 244.45 278.857 239.508 274.97 236.166C271.083 232.824 266.269 231.326 261.486 231.97L260.471 232.101C249.91 234.262 245.579 246.02 247.709 258.364L253.309 299.799L267.136 308.263L278.113 299.524Z" fill="#FFBE9D"/>
<path d="M277.728 293.663C272.982 294.304 268.18 293.33 263.89 290.858C263.89 290.858 267.887 299.083 277.971 296.624L277.728 293.663Z" fill="#EB996E"/>
<path d="M280.872 259.641C280.919 260.088 280.816 260.539 280.585 260.897C280.354 261.256 280.013 261.495 279.635 261.563C279.451 261.603 279.262 261.599 279.079 261.553C278.897 261.506 278.724 261.418 278.57 261.293C278.416 261.167 278.285 261.008 278.184 260.822C278.083 260.637 278.014 260.431 277.981 260.214C277.935 259.767 278.038 259.317 278.269 258.958C278.5 258.599 278.841 258.36 279.219 258.292C279.403 258.248 279.593 258.247 279.777 258.292C279.962 258.336 280.137 258.424 280.291 258.55C280.446 258.676 280.577 258.838 280.677 259.025C280.777 259.213 280.843 259.422 280.872 259.641Z" fill="#263238"/>
<path d="M280.842 256.179C280.679 256.43 279.482 255.618 277.91 255.833C276.337 256.048 275.282 257.122 275.09 256.919C274.897 256.716 275.14 256.406 275.607 255.905C276.226 255.24 277.007 254.822 277.839 254.711C278.653 254.593 279.478 254.786 280.192 255.26C280.72 255.678 280.933 256.072 280.842 256.179Z" fill="#263238"/>
<path d="M266.061 262.554C266.105 263 266 263.449 265.77 263.807C265.539 264.166 265.2 264.405 264.823 264.476C264.639 264.519 264.449 264.518 264.265 264.473C264.082 264.428 263.907 264.34 263.753 264.214C263.599 264.088 263.468 263.927 263.367 263.74C263.267 263.553 263.2 263.345 263.169 263.127C263.12 262.68 263.222 262.227 263.454 261.868C263.685 261.508 264.028 261.27 264.407 261.205C264.591 261.164 264.78 261.166 264.963 261.212C265.147 261.257 265.32 261.346 265.474 261.471C265.628 261.597 265.759 261.757 265.86 261.943C265.961 262.129 266.029 262.337 266.061 262.554Z" fill="#263238"/>
<path d="M265.442 258.603C265.29 258.853 264.083 258.041 262.521 258.256C260.958 258.471 259.883 259.558 259.69 259.355C259.497 259.152 259.741 258.829 260.208 258.34C260.826 257.675 261.607 257.258 262.439 257.146C263.255 257.038 264.078 257.234 264.793 257.707C265.321 258.113 265.523 258.495 265.442 258.603Z" fill="#263238"/>
<path d="M272.473 271.531C273.273 271.125 274.11 270.828 274.968 270.648C275.364 270.552 275.739 270.397 275.78 270.075C275.767 269.583 275.625 269.107 275.374 268.714C274.887 267.615 274.36 266.469 273.832 265.276C271.691 260.381 270.089 256.346 270.261 256.239C270.433 256.131 272.29 260.023 274.441 264.917C274.968 266.111 275.455 267.305 275.932 268.379C276.242 268.914 276.379 269.562 276.317 270.206C276.275 270.379 276.201 270.539 276.099 270.673C275.997 270.808 275.871 270.913 275.729 270.982C275.512 271.076 275.288 271.144 275.059 271.185C274.213 271.43 273.344 271.547 272.473 271.531Z" fill="#263238"/>
<path d="M257.6 254.329C257.6 253.792 259.071 253.219 260.644 252.061C262.216 250.903 263.373 249.602 263.758 249.888C263.93 250.031 263.87 250.592 263.504 251.333C262.989 252.278 262.299 253.074 261.486 253.661C260.672 254.248 259.757 254.611 258.807 254.723C258.107 254.771 257.661 254.58 257.6 254.329Z" fill="#263238"/>
<path d="M274.43 249.399C274.765 249.017 275.911 249.59 277.342 249.769C278.772 249.948 279.99 249.769 280.233 250.27C280.334 250.497 280.111 250.891 279.553 251.237C278.795 251.642 277.953 251.783 277.129 251.643C276.301 251.542 275.518 251.156 274.877 250.533C274.4 250.043 274.278 249.59 274.43 249.399Z" fill="#263238"/>
<path d="M280.933 244.624C280.933 244.624 277.504 237.461 274.248 236.112C270.312 234.501 269.175 239.538 265.503 238.846C261.831 238.154 258.057 236.59 254.739 240.326C251.107 244.409 253.207 246.641 253.481 252.001C254.597 273.763 251.838 280.329 249.89 270.277C249.677 269.167 246.958 268.642 246.106 263.974C245.01 257.934 244.077 250.533 244.818 246.068C245.447 242.272 246.968 239.514 249.89 236.303C254.476 231.23 261.364 230.203 266.122 230.12C270.88 230.036 280.446 235.169 280.933 244.624Z" fill="#263238"/>
<path d="M250.499 269.86C250.444 269.42 250.314 268.998 250.117 268.619C249.919 268.24 249.658 267.913 249.35 267.656C249.042 267.399 248.692 267.219 248.323 267.126C247.954 267.032 247.572 267.029 247.202 267.114C245.315 267.592 243.316 269.143 243.894 273.763C244.909 281.952 251.696 279.052 251.676 278.813C251.655 278.574 250.976 273.274 250.499 269.86Z" fill="#FFBE9D"/>
<path d="M249.799 275.996C249.799 275.996 249.687 276.115 249.494 276.258C249.225 276.454 248.901 276.518 248.591 276.437C248.101 276.179 247.677 275.772 247.364 275.258C247.05 274.744 246.857 274.142 246.806 273.513C246.707 272.813 246.738 272.096 246.897 271.412C246.93 271.145 247.018 270.892 247.152 270.674C247.286 270.455 247.463 270.278 247.668 270.158C247.802 270.094 247.952 270.086 248.09 270.136C248.229 270.186 248.349 270.291 248.429 270.433C248.551 270.636 248.531 270.815 248.571 270.815C248.612 270.815 248.703 270.659 248.571 270.325C248.506 270.131 248.389 269.967 248.236 269.86C248.13 269.791 248.014 269.749 247.894 269.734C247.773 269.72 247.652 269.734 247.536 269.776C247.261 269.893 247.015 270.09 246.822 270.349C246.628 270.608 246.494 270.92 246.431 271.256C246.222 272.028 246.177 272.847 246.299 273.644C246.552 275.291 247.455 276.712 248.51 276.879C248.704 276.909 248.901 276.888 249.087 276.818C249.273 276.748 249.443 276.63 249.586 276.473C249.809 276.199 249.819 276.007 249.799 275.996Z" fill="#EB996E"/>
<path d="M281.998 235.599C280.872 234.716 279.391 234.68 278.275 233.784C276.246 232.161 275.962 228.174 273.629 227.29C272.249 226.765 270.758 227.625 269.307 227.541C266.953 227.41 265.949 225.392 262.398 225.619C261.156 225.614 259.938 226.031 258.891 226.818C257.844 227.605 257.012 228.731 256.494 230.06C255.62 229.656 254.672 229.531 253.744 229.696C252.816 229.862 251.941 230.313 251.209 231.003C250.592 231.65 250.097 232.443 249.756 233.329C249.415 234.215 249.236 235.175 249.23 236.148C249.23 236.148 248.48 235.766 246.359 237.963C244.966 239.756 244.009 241.958 243.59 244.337C242.971 247.405 244.239 250.509 245.467 253.314C246.136 254.83 246.948 256.49 248.348 256.895C250.052 257.445 251.817 255.785 252.406 253.804C252.994 251.822 253.907 249.828 254.617 247.918C255.835 244.6 257.103 241.508 255.845 239.562C257.413 238.828 259.14 238.698 260.775 239.192C262.408 239.717 263.819 240.828 265.492 241.389C267.166 241.95 269.145 241.771 270.159 240.195C270.414 240.725 270.767 241.18 271.192 241.527C271.617 241.874 272.103 242.103 272.614 242.199C273.125 242.294 273.647 242.252 274.143 242.077C274.638 241.901 275.093 241.597 275.475 241.186C276.164 242.36 277.205 243.183 278.388 243.491C279.572 243.799 280.811 243.568 281.856 242.845C283.824 241.233 283.976 237.175 281.998 235.599Z" fill="#263238"/>
<path d="M244.675 251.416C245.026 251.993 245.329 252.609 245.578 253.255C245.861 253.902 246.284 254.45 246.806 254.842C247.494 255.213 248.276 255.268 248.997 254.997C249.738 254.773 250.429 254.366 251.026 253.804C251.504 253.314 251.936 252.766 252.314 252.168C252.636 251.569 253.002 251.006 253.41 250.485C253.204 251.158 252.917 251.793 252.558 252.371C252.197 253.032 251.764 253.634 251.269 254.162C250.634 254.792 249.885 255.241 249.078 255.475C248.257 255.767 247.372 255.682 246.603 255.236C246.025 254.795 245.57 254.164 245.294 253.422C245.016 252.787 244.808 252.113 244.675 251.416Z" fill="#455A64"/>
<path d="M245.244 257.767C245.689 258.109 246.17 258.381 246.674 258.579C247.229 258.717 247.803 258.717 248.358 258.579C249.038 258.416 249.68 258.078 250.235 257.588C251.252 256.654 252.094 255.483 252.71 254.15C252.952 253.572 253.248 253.027 253.593 252.526C253.461 253.155 253.252 253.758 252.974 254.317C252.401 255.758 251.546 257.018 250.478 257.994C249.877 258.516 249.184 258.871 248.449 259.032C247.838 259.141 247.213 259.084 246.623 258.865C246.059 258.725 245.564 258.331 245.244 257.767Z" fill="#455A64"/>
<path d="M245.731 262.47C246.175 262.732 246.646 262.928 247.131 263.055C247.717 263.152 248.315 263.102 248.884 262.911C249.454 262.72 249.983 262.391 250.438 261.945C251.367 261.03 252.144 259.921 252.731 258.674C252.954 258.131 253.234 257.622 253.563 257.158C253.448 257.752 253.253 258.32 252.984 258.841C252.454 260.192 251.67 261.384 250.692 262.327C250.135 262.849 249.487 263.219 248.795 263.413C248.23 263.564 247.644 263.564 247.08 263.413C246.096 263.115 245.69 262.494 245.731 262.47Z" fill="#455A64"/>
<path d="M275.617 276.951C275.617 277.297 274.481 277.571 273.071 277.571C271.661 277.571 270.514 277.297 270.514 276.951C270.514 276.604 271.661 276.33 273.071 276.33C274.481 276.33 275.617 276.604 275.617 276.951Z" fill="#263238"/>
<path d="M556 47.01H300.756V226.861H556V47.01Z" fill="#455A64"/>
<path d="M549.193 54.9126H308.892V218.755H549.193V54.9126Z" fill="#263238"/>
<path d="M549.203 85.8427C549.203 86.0098 495.435 86.1531 429.048 86.1531C362.66 86.1531 308.892 86.0098 308.892 85.8427C308.892 85.6756 362.66 85.5323 429.048 85.5323C495.435 85.5323 549.203 85.6756 549.203 85.8427Z" fill="#455A64"/>
<path d="M549.203 112.117C549.203 112.296 495.253 112.428 428.733 112.428C362.213 112.428 308.253 112.296 308.253 112.117C308.253 111.938 362.183 111.807 428.733 111.807C495.283 111.807 549.203 111.95 549.203 112.117Z" fill="#455A64"/>
<path d="M374.174 73.2964C374.174 73.4635 368.909 73.6068 362.406 73.6068C355.903 73.6068 350.638 73.4635 350.638 73.2964C350.638 73.1293 355.913 72.986 362.406 72.986C368.899 72.986 374.174 73.1173 374.174 73.2964Z" fill="white"/>
<path d="M396.513 73.3203C392.917 73.7341 389.295 73.7341 385.699 73.3203C389.295 72.9064 392.917 72.9064 396.513 73.3203Z" fill="white"/>
<path d="M460.649 73.3202C460.649 73.4874 449.652 73.6306 436.078 73.6306C422.504 73.6306 411.497 73.4874 411.497 73.3202C411.497 73.1531 422.504 73.0099 436.078 73.0099C449.652 73.0099 460.649 73.1531 460.649 73.3202Z" fill="white"/>
<path d="M492.686 72.1862C492.718 71.5718 492.903 70.982 493.218 70.4902C493.533 69.9984 493.963 69.6263 494.456 69.4203C494.949 69.2142 495.483 69.1832 495.991 69.3311C496.498 69.4791 496.958 69.7994 497.312 70.2523L496.592 71.0283C496.444 70.8173 496.258 70.6478 496.048 70.5322C495.837 70.4165 495.607 70.3576 495.375 70.3598C494.963 70.3598 494.568 70.5522 494.277 70.8947C493.986 71.2372 493.822 71.7018 493.822 72.1862C493.822 72.6706 493.986 73.1352 494.277 73.4777C494.568 73.8202 494.963 74.0126 495.375 74.0126C495.608 74.0151 495.839 73.9551 496.05 73.8372C496.261 73.7193 496.446 73.5467 496.592 73.3322L497.312 74.1201C496.958 74.573 496.498 74.8933 495.991 75.0413C495.483 75.1892 494.949 75.1582 494.456 74.9521C493.963 74.746 493.533 74.374 493.218 73.8822C492.903 73.3904 492.718 72.8006 492.686 72.1862Z" fill="#E47530"/>
<path d="M501.147 73.8097H498.905L498.479 75.0035H497.322L499.483 69.2973H500.589L502.76 75.0035H501.583L501.147 73.8097ZM500.802 72.8189L500.061 70.6343L499.26 72.8189H500.802Z" fill="#E47530"/>
<path d="M507.7 69.3331V75.0393H506.777L504.363 71.6251V75.087H503.257V69.3331H504.18L506.594 72.795V69.3331H507.7Z" fill="#E47530"/>
<path d="M508.532 72.1862C508.564 71.5718 508.749 70.982 509.064 70.4902C509.379 69.9984 509.809 69.6263 510.302 69.4203C510.795 69.2142 511.329 69.1832 511.836 69.3311C512.344 69.4791 512.804 69.7994 513.158 70.2523L512.438 71.0283C512.291 70.8166 512.105 70.6467 511.894 70.531C511.683 70.4153 511.453 70.3568 511.221 70.3598C510.809 70.3598 510.414 70.5522 510.123 70.8947C509.832 71.2372 509.668 71.7018 509.668 72.1862C509.668 72.6706 509.832 73.1352 510.123 73.4777C510.414 73.8202 510.809 74.0126 511.221 74.0126C511.454 74.0159 511.685 73.9563 511.896 73.8384C512.107 73.7205 512.293 73.5473 512.438 73.3322L513.158 74.1201C512.804 74.573 512.344 74.8933 511.836 75.0413C511.329 75.1892 510.795 75.1582 510.302 74.9521C509.809 74.746 509.379 74.374 509.064 73.8822C508.749 73.3904 508.564 72.8006 508.532 72.1862Z" fill="#E47530"/>
<path d="M517.663 74.0126V75.0751H513.909V69.3331H517.571V70.4314H515.025V71.6251H517.308V72.6518H515.066V74.0126H517.663Z" fill="#E47530"/>
<path d="M518.545 69.3331H519.672V74.0126H522.096V75.087H518.545V69.3331Z" fill="#E47530"/>
<path d="M522.725 69.3331H523.841V74.0126H526.276V75.087H522.725V69.3331Z" fill="#E47530"/>
<path d="M530.648 74.0126V75.0751H526.895V69.3331H530.557V70.4314H528.01V71.6251H530.263V72.6518H528.01V74.0126H530.648Z" fill="#E47530"/>
<path d="M531.51 69.3331H533.702C534.039 69.2968 534.378 69.3435 534.699 69.4704C535.02 69.5973 535.315 69.8015 535.565 70.0699C535.815 70.3384 536.015 70.6653 536.151 71.0296C536.288 71.394 536.358 71.7879 536.358 72.1862C536.358 72.5844 536.288 72.9783 536.151 73.3427C536.015 73.7071 535.815 74.0339 535.565 74.3024C535.315 74.5709 535.02 74.775 534.699 74.9019C534.378 75.0288 534.039 75.0756 533.702 75.0392H531.51V69.3331ZM533.681 74.0126C534.085 74.0126 534.472 73.824 534.757 73.4881C535.043 73.1523 535.203 72.6969 535.203 72.222C535.203 71.7471 535.043 71.2916 534.757 70.9558C534.472 70.62 534.085 70.4314 533.681 70.4314H532.667V74.0126H533.681Z" fill="#E47530"/>
<path d="M374.174 99.165C374.174 99.3321 368.909 99.4753 362.406 99.4753C355.903 99.4753 350.638 99.3321 350.638 99.165C350.638 98.9978 355.913 98.8546 362.406 98.8546C368.899 98.8546 374.174 98.9859 374.174 99.165Z" fill="white"/>
<path d="M396.513 99.1889C392.917 99.6028 389.295 99.6028 385.699 99.1889C389.295 98.7751 392.917 98.7751 396.513 99.1889Z" fill="white"/>
<path d="M460.649 99.1889C460.649 99.356 449.652 99.4993 436.078 99.4993C422.504 99.4993 411.497 99.356 411.497 99.1889C411.497 99.0218 422.504 98.8785 436.078 98.8785C449.652 98.8785 460.649 99.0814 460.649 99.1889Z" fill="white"/>
<path d="M492.686 98.0548C492.718 97.4404 492.903 96.8506 493.218 96.3588C493.533 95.8671 493.963 95.495 494.456 95.2889C494.949 95.0828 495.483 95.0518 495.991 95.1998C496.498 95.3477 496.958 95.668 497.312 96.121L496.592 96.8969C496.444 96.6859 496.258 96.5165 496.048 96.4008C495.837 96.2852 495.607 96.2263 495.375 96.2284C494.963 96.2284 494.568 96.4208 494.277 96.7633C493.986 97.1059 493.822 97.5704 493.822 98.0548C493.822 98.5392 493.986 99.0038 494.277 99.3463C494.568 99.6888 494.963 99.8813 495.375 99.8813C495.608 99.8837 495.839 99.8237 496.05 99.7058C496.261 99.588 496.446 99.4153 496.592 99.2008L497.312 99.9887C496.958 100.442 496.498 100.762 495.991 100.91C495.483 101.058 494.949 101.027 494.456 100.821C493.963 100.615 493.533 100.243 493.218 99.7508C492.903 99.2591 492.718 98.6693 492.686 98.0548Z" fill="#E47530"/>
<path d="M501.147 99.6783H498.905L498.479 100.872H497.322L499.483 95.1659H500.589L502.76 100.872H501.583L501.147 99.6783ZM500.802 98.6874L500.031 96.5029L499.26 98.6874H500.802Z" fill="#E47530"/>
<path d="M507.7 95.2018V100.908H506.777L504.363 97.446V100.908H503.257V95.2018H504.18L506.594 98.6637V95.2018H507.7Z" fill="#E47530"/>
<path d="M508.532 98.0548C508.564 97.4404 508.749 96.8506 509.064 96.3588C509.379 95.8671 509.809 95.495 510.302 95.2889C510.795 95.0828 511.329 95.0518 511.836 95.1998C512.344 95.3477 512.804 95.668 513.158 96.121L512.438 96.8969C512.291 96.6853 512.105 96.5153 511.894 96.3996C511.683 96.2839 511.453 96.2254 511.221 96.2284C510.809 96.2284 510.414 96.4208 510.123 96.7633C509.832 97.1059 509.668 97.5704 509.668 98.0548C509.668 98.5392 509.832 99.0038 510.123 99.3463C510.414 99.6888 510.809 99.8813 511.221 99.8813C511.454 99.8846 511.685 99.825 511.896 99.7071C512.107 99.5891 512.293 99.416 512.438 99.2008L513.158 99.9887C512.804 100.442 512.344 100.762 511.836 100.91C511.329 101.058 510.795 101.027 510.302 100.821C509.809 100.615 509.379 100.243 509.064 99.7508C508.749 99.2591 508.564 98.6693 508.532 98.0548Z" fill="#E47530"/>
<path d="M517.663 99.8455V100.908H513.909V95.2018H517.571V96.2642H515.025V97.458H517.308V98.4846H515.066V99.7977L517.663 99.8455Z" fill="#E47530"/>
<path d="M518.545 95.2018H519.672V99.8335H522.096V100.908H518.545V95.2018Z" fill="#E47530"/>
<path d="M522.725 95.2018H523.841V99.8335H526.276V100.908H522.725V95.2018Z" fill="#E47530"/>
<path d="M530.648 99.8455V100.908H526.895V95.2018H530.557V96.2642H528.01V97.458H530.263V98.4846H528.01V99.7977L530.648 99.8455Z" fill="#E47530"/>
<path d="M531.51 95.2017H533.702C534.039 95.1654 534.378 95.2122 534.699 95.3391C535.02 95.4659 535.315 95.6701 535.565 95.9386C535.815 96.2071 536.015 96.5339 536.151 96.8983C536.288 97.2627 536.358 97.6565 536.358 98.0548C536.358 98.4531 536.288 98.847 536.151 99.2113C536.015 99.5757 535.815 99.9026 535.565 100.171C535.315 100.44 535.02 100.644 534.699 100.771C534.378 100.897 534.039 100.944 533.702 100.908H531.51V95.2017ZM533.651 99.8216C534.054 99.8216 534.441 99.6329 534.727 99.2971C535.012 98.9613 535.173 98.5058 535.173 98.0309C535.173 97.556 535.012 97.1006 534.727 96.7648C534.441 96.429 534.054 96.2403 533.651 96.2403H532.636V99.8216H533.651Z" fill="#E47530"/>
<path d="M374.174 125.034C374.174 125.201 368.909 125.344 362.406 125.344C355.903 125.344 350.638 125.201 350.638 125.034C350.638 124.866 355.913 124.723 362.406 124.723C368.899 124.723 374.174 124.855 374.174 125.034Z" fill="white"/>
<path d="M396.513 125.057C392.917 125.471 389.295 125.471 385.699 125.057C389.295 124.644 392.917 124.644 396.513 125.057Z" fill="white"/>
<path d="M460.649 125.057C460.649 125.225 449.652 125.368 436.078 125.368C422.504 125.368 411.497 125.225 411.497 125.057C411.497 124.89 422.504 124.747 436.078 124.747C449.652 124.747 460.649 124.89 460.649 125.057Z" fill="white"/>
<path d="M492.686 123.923C492.718 123.309 492.903 122.719 493.218 122.227C493.533 121.736 493.963 121.364 494.456 121.157C494.949 120.951 495.483 120.92 495.991 121.068C496.498 121.216 496.958 121.537 497.312 121.99L496.592 122.765C496.444 122.554 496.258 122.385 496.048 122.269C495.837 122.154 495.607 122.095 495.375 122.097C494.963 122.097 494.568 122.289 494.277 122.632C493.986 122.974 493.822 123.439 493.822 123.923C493.822 124.408 493.986 124.872 494.277 125.215C494.568 125.557 494.963 125.75 495.375 125.75C495.608 125.752 495.839 125.692 496.05 125.574C496.261 125.457 496.446 125.284 496.592 125.069L497.312 125.857C496.958 126.31 496.498 126.631 495.991 126.778C495.483 126.926 494.949 126.895 494.456 126.689C493.963 126.483 493.533 126.111 493.218 125.619C492.903 125.128 492.718 124.538 492.686 123.923Z" fill="#E47530"/>
<path d="M501.147 125.559H498.905L498.479 126.753H497.322L499.483 121.046H500.589L502.76 126.753H501.583L501.147 125.559ZM500.802 124.556L500.031 122.372L499.26 124.556H500.802Z" fill="#E47530"/>
<path d="M507.7 121.07V126.776H506.777L504.363 123.315V126.776H503.257V121.07H504.18L506.594 124.532V121.07H507.7Z" fill="#E47530"/>
<path d="M508.532 123.923C508.564 123.309 508.749 122.719 509.064 122.227C509.379 121.736 509.809 121.364 510.302 121.157C510.795 120.951 511.329 120.92 511.836 121.068C512.344 121.216 512.804 121.537 513.158 121.99L512.438 122.765C512.291 122.554 512.105 122.384 511.894 122.268C511.683 122.152 511.453 122.094 511.221 122.097C510.809 122.097 510.414 122.289 510.123 122.632C509.832 122.974 509.668 123.439 509.668 123.923C509.668 124.408 509.832 124.872 510.123 125.215C510.414 125.557 510.809 125.75 511.221 125.75C511.454 125.753 511.685 125.694 511.896 125.576C512.107 125.458 512.293 125.285 512.438 125.069L513.158 125.857C512.804 126.31 512.344 126.631 511.836 126.778C511.329 126.926 510.795 126.895 510.302 126.689C509.809 126.483 509.379 126.111 509.064 125.619C508.749 125.128 508.564 124.538 508.532 123.923Z" fill="#E47530"/>
<path d="M517.663 125.714V126.776H513.909V121.07H517.571V122.133H515.025V123.327H517.308V124.353H515.066V125.666L517.663 125.714Z" fill="#E47530"/>
<path d="M518.545 121.07H519.672V125.702H522.096V126.776H518.545V121.07Z" fill="#E47530"/>
<path d="M522.725 121.07H523.841V125.702H526.276V126.776H522.725V121.07Z" fill="#E47530"/>
<path d="M530.648 125.714V126.776H526.895V121.07H530.557V122.133H528.01V123.327H530.263V124.353H528.01V125.666L530.648 125.714Z" fill="#E47530"/>
<path d="M531.51 121.07H533.702C534.039 121.034 534.378 121.081 534.699 121.208C535.02 121.335 535.315 121.539 535.565 121.807C535.815 122.076 536.015 122.403 536.151 122.767C536.288 123.131 536.358 123.525 536.358 123.923C536.358 124.322 536.288 124.716 536.151 125.08C536.015 125.444 535.815 125.771 535.565 126.04C535.315 126.308 535.02 126.512 534.699 126.639C534.378 126.766 534.039 126.813 533.702 126.777H531.51V121.07ZM533.651 125.69C534.054 125.69 534.441 125.502 534.727 125.166C535.012 124.83 535.173 124.374 535.173 123.9C535.173 123.425 535.012 122.969 534.727 122.633C534.441 122.298 534.054 122.109 533.651 122.109H532.636V125.69H533.651Z" fill="#E47530"/>
<path d="M374.174 150.902C374.174 151.069 368.909 151.213 362.406 151.213C355.903 151.213 350.638 151.069 350.638 150.902C350.638 150.735 355.913 150.592 362.406 150.592C368.899 150.592 374.174 150.723 374.174 150.902Z" fill="white"/>
<path d="M396.513 150.926C392.917 151.34 389.295 151.34 385.699 150.926C389.295 150.512 392.917 150.512 396.513 150.926Z" fill="white"/>
<path d="M460.649 150.926C460.649 151.093 449.652 151.236 436.078 151.236C422.504 151.236 411.497 151.093 411.497 150.926C411.497 150.759 422.504 150.616 436.078 150.616C449.652 150.616 460.649 150.747 460.649 150.926Z" fill="white"/>
<path d="M492.686 149.792C492.718 149.178 492.903 148.588 493.218 148.096C493.533 147.604 493.963 147.232 494.456 147.026C494.949 146.82 495.483 146.789 495.991 146.937C496.498 147.085 496.958 147.405 497.312 147.858L496.592 148.634C496.444 148.423 496.258 148.254 496.048 148.138C495.837 148.022 495.607 147.963 495.375 147.966C494.963 147.966 494.568 148.158 494.277 148.501C493.986 148.843 493.822 149.308 493.822 149.792C493.822 150.276 493.986 150.741 494.277 151.084C494.568 151.426 494.963 151.618 495.375 151.618C495.608 151.621 495.839 151.561 496.05 151.443C496.261 151.325 496.446 151.152 496.592 150.938L497.312 151.726C496.958 152.179 496.498 152.499 495.991 152.647C495.483 152.795 494.949 152.764 494.456 152.558C493.963 152.352 493.533 151.98 493.218 151.488C492.903 150.996 492.718 150.406 492.686 149.792Z" fill="#E47530"/>
<path d="M501.147 151.416H498.905L498.479 152.609H497.322L499.483 146.903H500.589L502.76 152.609H501.583L501.147 151.416ZM500.802 150.425L500.031 148.24L499.26 150.425H500.802Z" fill="#E47530"/>
<path d="M507.7 146.939V152.645H506.777L504.363 149.183V152.645H503.257V146.939H504.18L506.594 150.401V146.939H507.7Z" fill="#E47530"/>
<path d="M508.532 149.792C508.564 149.178 508.749 148.588 509.064 148.096C509.379 147.604 509.809 147.232 510.302 147.026C510.795 146.82 511.329 146.789 511.836 146.937C512.344 147.085 512.804 147.405 513.158 147.858L512.438 148.634C512.286 148.433 512.098 148.275 511.887 148.169C511.677 148.064 511.449 148.015 511.221 148.025C510.809 148.025 510.414 148.218 510.123 148.56C509.832 148.903 509.668 149.367 509.668 149.852C509.668 150.336 509.832 150.801 510.123 151.143C510.414 151.486 510.809 151.678 511.221 151.678C511.454 151.681 511.685 151.622 511.896 151.504C512.107 151.386 512.293 151.213 512.438 150.998L513.158 151.786C512.804 152.238 512.344 152.559 511.836 152.707C511.329 152.855 510.795 152.824 510.302 152.618C509.809 152.412 509.379 152.039 509.064 151.548C508.749 151.056 508.564 150.466 508.532 149.852V149.792Z" fill="#E47530"/>
<path d="M517.663 151.607V152.669H513.909V146.963H517.571V148.025H515.025V149.219H517.308V150.246H515.066V151.607H517.663Z" fill="#E47530"/>
<path d="M518.545 146.939H519.672V151.607H522.096V152.681H518.545V146.939Z" fill="#E47530"/>
<path d="M522.725 146.939H523.841V151.607H526.276V152.681H522.725V146.939Z" fill="#E47530"/>
<path d="M530.648 151.607V152.669H526.895V146.963H530.557V148.025H528.01V149.219H530.263V150.246H528.01V151.607H530.648Z" fill="#E47530"/>
<path d="M531.51 146.939H533.702C534.039 146.903 534.378 146.949 534.699 147.076C535.02 147.203 535.315 147.407 535.565 147.676C535.815 147.944 536.015 148.271 536.151 148.635C536.288 149 536.358 149.394 536.358 149.792C536.358 150.19 536.288 150.584 536.151 150.949C536.015 151.313 535.815 151.64 535.565 151.908C535.315 152.177 535.02 152.381 534.699 152.508C534.378 152.635 534.039 152.681 533.702 152.645H531.51V146.939ZM533.651 151.559C534.054 151.559 534.441 151.37 534.727 151.034C535.012 150.698 535.173 150.243 535.173 149.768C535.173 149.293 535.012 148.838 534.727 148.502C534.441 148.166 534.054 147.978 533.651 147.978H532.636V151.559H533.651Z" fill="#E47530"/>
<path d="M374.174 176.771C374.174 176.938 368.909 177.081 362.406 177.081C355.903 177.081 350.638 176.938 350.638 176.771C350.638 176.604 355.913 176.46 362.406 176.46C368.899 176.46 374.174 176.592 374.174 176.771Z" fill="white"/>
<path d="M396.513 176.795C392.917 177.209 389.295 177.209 385.699 176.795C389.295 176.381 392.917 176.381 396.513 176.795Z" fill="white"/>
<path d="M460.649 176.795C460.649 176.962 449.652 177.105 436.078 177.105C422.504 177.105 411.497 176.962 411.497 176.795C411.497 176.628 422.504 176.484 436.078 176.484C449.652 176.484 460.649 176.675 460.649 176.795Z" fill="white"/>
<path d="M492.686 175.661C492.718 175.046 492.903 174.456 493.218 173.965C493.533 173.473 493.963 173.101 494.456 172.895C494.949 172.689 495.483 172.658 495.991 172.806C496.498 172.953 496.958 173.274 497.312 173.727L496.592 174.503C496.444 174.292 496.258 174.122 496.048 174.007C495.837 173.891 495.607 173.832 495.375 173.834C494.963 173.834 494.568 174.027 494.277 174.369C493.986 174.712 493.822 175.176 493.822 175.661C493.822 176.145 493.986 176.61 494.277 176.952C494.568 177.295 494.963 177.487 495.375 177.487C495.608 177.489 495.839 177.429 496.05 177.312C496.261 177.194 496.446 177.021 496.592 176.807L497.312 177.594C496.958 178.047 496.498 178.368 495.991 178.516C495.483 178.664 494.949 178.633 494.456 178.427C493.963 178.22 493.533 177.848 493.218 177.357C492.903 176.865 492.718 176.275 492.686 175.661Z" fill="#E47530"/>
<path d="M501.147 177.284H498.905L498.479 178.478H497.322L499.483 172.772H500.589L502.76 178.478H501.583L501.147 177.284ZM500.802 176.293L500.031 174.109L499.26 176.293H500.802Z" fill="#E47530"/>
<path d="M507.7 172.808V178.514H506.777L504.363 175.052V178.514H503.257V172.808H504.18L506.594 176.269V172.808H507.7Z" fill="#E47530"/>
<path d="M508.532 175.661C508.564 175.046 508.749 174.456 509.064 173.965C509.379 173.473 509.809 173.101 510.302 172.895C510.795 172.689 511.329 172.658 511.836 172.806C512.344 172.953 512.804 173.274 513.158 173.727L512.438 174.503C512.291 174.291 512.105 174.121 511.894 174.005C511.683 173.89 511.453 173.831 511.221 173.834C510.809 173.834 510.414 174.027 510.123 174.369C509.832 174.712 509.668 175.176 509.668 175.661C509.668 176.145 509.832 176.61 510.123 176.952C510.414 177.295 510.809 177.487 511.221 177.487C511.454 177.49 511.685 177.431 511.896 177.313C512.107 177.195 512.293 177.022 512.438 176.807L513.158 177.594C512.804 178.047 512.344 178.368 511.836 178.516C511.329 178.664 510.795 178.633 510.302 178.427C509.809 178.22 509.379 177.848 509.064 177.357C508.749 176.865 508.564 176.275 508.532 175.661Z" fill="#E47530"/>
<path d="M517.663 177.451V178.514H513.909V172.808H517.571V173.87H515.025V175.064H517.308V176.09H515.066V177.403L517.663 177.451Z" fill="#E47530"/>
<path d="M518.545 172.808H519.672V177.439H522.096V178.514H518.545V172.808Z" fill="#E47530"/>
<path d="M522.725 172.808H523.841V177.439H526.276V178.514H522.725V172.808Z" fill="#E47530"/>
<path d="M530.648 177.451V178.514H526.895V172.808H530.557V173.87H528.01V175.064H530.263V176.09H528.01V177.403L530.648 177.451Z" fill="#E47530"/>
<path d="M531.51 172.808H533.702C534.039 172.771 534.378 172.818 534.699 172.945C535.02 173.072 535.315 173.276 535.565 173.544C535.815 173.813 536.015 174.14 536.151 174.504C536.288 174.869 536.358 175.262 536.358 175.661C536.358 176.059 536.288 176.453 536.151 176.817C536.015 177.182 535.815 177.508 535.565 177.777C535.315 178.045 535.02 178.25 534.699 178.376C534.378 178.503 534.039 178.55 533.702 178.514H531.51V172.808ZM533.651 177.427C534.054 177.427 534.441 177.239 534.727 176.903C535.012 176.567 535.173 176.112 535.173 175.637C535.173 175.162 535.012 174.706 534.727 174.371C534.441 174.035 534.054 173.846 533.651 173.846H532.636V177.427H533.651Z" fill="#E47530"/>
<path d="M374.174 202.639C374.174 202.807 368.909 202.95 362.406 202.95C355.903 202.95 350.638 202.807 350.638 202.639C350.638 202.472 355.913 202.329 362.406 202.329C368.899 202.329 374.174 202.46 374.174 202.639Z" fill="white"/>
<path d="M396.513 202.663C392.917 203.077 389.295 203.077 385.699 202.663C389.295 202.249 392.917 202.249 396.513 202.663Z" fill="white"/>
<path d="M460.649 202.663C460.649 202.83 449.652 202.974 436.078 202.974C422.504 202.974 411.497 202.83 411.497 202.663C411.497 202.496 422.504 202.353 436.078 202.353C449.652 202.353 460.649 202.484 460.649 202.663Z" fill="white"/>
<path d="M492.686 201.529C492.718 200.915 492.903 200.325 493.218 199.833C493.533 199.341 493.963 198.969 494.456 198.763C494.949 198.557 495.483 198.526 495.991 198.674C496.498 198.822 496.958 199.142 497.312 199.595L496.592 200.371C496.444 200.16 496.258 199.991 496.048 199.875C495.837 199.76 495.607 199.701 495.375 199.703C494.963 199.703 494.568 199.895 494.277 200.238C493.986 200.58 493.822 201.045 493.822 201.529C493.822 202.014 493.986 202.478 494.277 202.821C494.568 203.163 494.963 203.356 495.375 203.356C495.608 203.358 495.839 203.298 496.05 203.18C496.261 203.062 496.446 202.89 496.592 202.675L497.312 203.463C496.958 203.916 496.498 204.236 495.991 204.384C495.483 204.532 494.949 204.501 494.456 204.295C493.963 204.089 493.533 203.717 493.218 203.225C492.903 202.733 492.718 202.144 492.686 201.529Z" fill="#E47530"/>
<path d="M501.147 203.153H498.905L498.479 204.347H497.322L499.483 198.64H500.589L502.76 204.347H501.583L501.147 203.153ZM500.802 202.15L500.031 199.977L499.26 202.15H500.802Z" fill="#E47530"/>
<path d="M507.7 198.676V204.382H506.777L504.363 200.92V204.382H503.257V198.676H504.18L506.594 202.138V198.676H507.7Z" fill="#E47530"/>
<path d="M508.532 201.529C508.564 200.915 508.749 200.325 509.064 199.833C509.379 199.341 509.809 198.969 510.302 198.763C510.795 198.557 511.329 198.526 511.836 198.674C512.344 198.822 512.804 199.142 513.158 199.595L512.438 200.371C512.291 200.16 512.105 199.99 511.894 199.874C511.683 199.758 511.453 199.7 511.221 199.703C510.809 199.703 510.414 199.895 510.123 200.238C509.832 200.58 509.668 201.045 509.668 201.529C509.668 202.014 509.832 202.478 510.123 202.821C510.414 203.163 510.809 203.356 511.221 203.356C511.454 203.359 511.685 203.299 511.896 203.181C512.107 203.064 512.293 202.89 512.438 202.675L513.158 203.463C512.804 203.916 512.344 204.236 511.836 204.384C511.329 204.532 510.795 204.501 510.302 204.295C509.809 204.089 509.379 203.717 509.064 203.225C508.749 202.733 508.564 202.144 508.532 201.529Z" fill="#E47530"/>
<path d="M517.663 203.32V204.382H513.909V198.676H517.571V199.739H515.025V200.932H517.308V201.959H515.066V203.284L517.663 203.32Z" fill="#E47530"/>
<path d="M518.545 198.676H519.672V203.308H522.096V204.382H518.545V198.676Z" fill="#E47530"/>
<path d="M522.725 198.676H523.841V203.308H526.276V204.382H522.725V198.676Z" fill="#E47530"/>
<path d="M530.648 203.32V204.382H526.895V198.676H530.557V199.739H528.01V200.932H530.263V201.959H528.01V203.284L530.648 203.32Z" fill="#E47530"/>
<path d="M531.51 198.676H533.702C534.039 198.64 534.378 198.687 534.699 198.813C535.02 198.94 535.315 199.145 535.565 199.413C535.815 199.681 536.015 200.008 536.151 200.373C536.288 200.737 536.358 201.131 536.358 201.529C536.358 201.928 536.288 202.321 536.151 202.686C536.015 203.05 535.815 203.377 535.565 203.645C535.315 203.914 535.02 204.118 534.699 204.245C534.378 204.372 534.039 204.419 533.702 204.382H531.51V198.676ZM533.651 203.296C534.054 203.296 534.441 203.107 534.727 202.772C535.012 202.436 535.173 201.98 535.173 201.505C535.173 201.03 535.012 200.575 534.727 200.239C534.441 199.903 534.054 199.715 533.651 199.715H532.636V203.296H533.651Z" fill="#E47530"/>
<path d="M327.731 91.143H325.834C322.719 91.143 320.193 94.1146 320.193 97.7803V100.013C320.193 103.678 322.719 106.65 325.834 106.65H327.731C330.846 106.65 333.371 103.678 333.371 100.013V97.7803C333.371 94.1146 330.846 91.143 327.731 91.143Z" fill="#455A64"/>
<path d="M549.203 139.991C549.203 140.17 495.253 140.314 428.733 140.314C362.213 140.314 308.253 140.17 308.253 139.991C308.253 139.812 362.183 139.681 428.733 139.681C495.283 139.681 549.203 139.824 549.203 139.991Z" fill="#455A64"/>
<path d="M327.731 119.017H325.834C322.719 119.017 320.193 121.989 320.193 125.654V127.887C320.193 131.552 322.719 134.524 325.834 134.524H327.731C330.846 134.524 333.371 131.552 333.371 127.887V125.654C333.371 121.989 330.846 119.017 327.731 119.017Z" fill="#455A64"/>
<path d="M549.203 163.854C549.203 164.033 495.76 164.165 429.859 164.165C363.959 164.165 310.516 164.033 310.516 163.854C310.516 163.675 363.938 163.544 429.859 163.544C495.781 163.544 549.203 163.687 549.203 163.854Z" fill="#455A64"/>
<path d="M327.731 144.181H325.834C322.719 144.181 320.193 147.153 320.193 150.819V153.051C320.193 156.717 322.719 159.688 325.834 159.688H327.731C330.846 159.688 333.371 156.717 333.371 153.051V150.819C333.371 147.153 330.846 144.181 327.731 144.181Z" fill="#455A64"/>
<path d="M549.203 190.571C549.203 190.738 495.76 190.881 429.859 190.881C363.959 190.881 310.516 190.738 310.516 190.571C310.516 190.403 363.938 190.26 429.859 190.26C495.781 190.26 549.203 190.392 549.203 190.571Z" fill="#455A64"/>
<path d="M327.731 170.886H325.834C322.719 170.886 320.193 173.857 320.193 177.523V179.755C320.193 183.421 322.719 186.392 325.834 186.392H327.731C330.846 186.392 333.371 183.421 333.371 179.755V177.523C333.371 173.857 330.846 170.886 327.731 170.886Z" fill="#455A64"/>
<path d="M327.731 197.59H325.834C322.719 197.59 320.193 200.561 320.193 204.227V206.459C320.193 210.125 322.719 213.097 325.834 213.097H327.731C330.846 213.097 333.371 210.125 333.371 206.459V204.227C333.371 200.561 330.846 197.59 327.731 197.59Z" fill="#455A64"/>
<path d="M327.731 62.7794H325.834C322.719 62.7794 320.193 65.751 320.193 69.4167V71.649C320.193 75.3146 322.719 78.2863 325.834 78.2863H327.731C330.846 78.2863 333.371 75.3146 333.371 71.649V69.4167C333.371 65.751 330.846 62.7794 327.731 62.7794Z" fill="#455A64"/>
<path d="M356.583 8.6427H336.314V50.436H356.583V8.6427Z" fill="#455A64"/>
<path d="M513.787 8.6427H493.518V50.436H513.787V8.6427Z" fill="#455A64"/>
<path d="M556 47.0099C556 47.1771 498.854 47.3203 428.378 47.3203C357.902 47.3203 300.756 47.1771 300.756 47.0099C300.756 46.8428 357.882 46.6996 428.378 46.6996C498.875 46.6996 556 46.8309 556 47.0099Z" fill="#263238"/>
<path d="M30.1124 50.6033C29.94 50.6033 29.8081 39.2746 29.8081 25.3077C29.8081 11.3408 29.94 0.0120468 30.1124 0.0120468C30.2849 0.0120468 30.4066 11.3408 30.4066 25.3077C30.4066 39.2746 30.2748 50.6033 30.1124 50.6033Z" fill="#263238"/>
<path d="M174.889 51.3313C174.727 51.3313 174.595 39.8474 174.595 25.6776C174.595 11.5078 174.727 0 174.889 0C175.051 0 175.183 11.4958 175.183 25.6776C175.183 39.8594 175.051 51.3313 174.889 51.3313Z" fill="#263238"/>
<path d="M201.915 49.0751H7.90535C3.82088 49.0751 0.509766 52.9714 0.509766 57.7776V100.753C0.509766 105.559 3.82088 109.455 7.90535 109.455H201.915C206 109.455 209.311 105.559 209.311 100.753V57.7776C209.311 52.9714 206 49.0751 201.915 49.0751Z" fill="#E47530"/>
<path d="M201.426 109.384H7.42602C5.45651 109.384 3.56767 108.463 2.17503 106.824C0.782378 105.185 0 102.963 0 100.645V57.6702C0.00268818 55.3548 0.786252 53.1352 2.17861 51.499C3.57097 49.8629 5.45827 48.9439 7.42602 48.9439H201.426C203.393 48.9439 205.281 49.8629 206.673 51.499C208.065 53.1352 208.849 55.3548 208.852 57.6702V100.645C208.852 102.963 208.069 105.185 206.677 106.824C205.284 108.463 203.395 109.384 201.426 109.384ZM7.42602 49.0036C5.47172 49.0036 3.59732 49.9163 2.21448 51.5412C0.831632 53.1662 0.0534077 55.3706 0.0507195 57.6702V100.645C0.0534034 102.946 0.831302 105.152 2.21386 106.778C3.59641 108.405 5.47079 109.321 7.42602 109.324H201.426C203.381 109.321 205.255 108.405 206.638 106.778C208.02 105.152 208.798 102.946 208.801 100.645V57.6702C208.798 55.3706 208.02 53.1662 206.637 51.5412C205.254 49.9163 203.38 49.0036 201.426 49.0036H7.42602Z" fill="#263238"/>
<path d="M65.7411 73.8694H69.9208C73.228 73.8694 75.4497 76.3643 75.4497 79.9336C75.4497 83.503 73.228 86.0098 69.9208 86.0098H65.731L65.7411 73.8694ZM69.9208 84.8997C72.6599 84.8997 74.4251 82.8464 74.4251 79.9336C74.4251 77.0209 72.6599 74.9796 69.9208 74.9796H66.8773V84.8997H69.9208Z" fill="#FAFAFA"/>
<path d="M84.4277 81.8317H77.9452C77.9684 82.2746 78.0656 82.7077 78.2312 83.1064C78.3967 83.5051 78.6274 83.8615 78.91 84.1553C79.1926 84.4491 79.5217 84.6744 79.8783 84.8185C80.235 84.9626 80.6123 85.0226 80.9886 84.9951C81.4345 85.0131 81.8782 84.9154 82.2885 84.7091C82.6987 84.5028 83.0654 84.1929 83.3625 83.8014L83.9509 84.6012C83.4061 85.3282 82.6861 85.8429 81.8867 86.0768C81.0873 86.3107 80.2463 86.2527 79.4755 85.9107C78.7047 85.5686 78.0407 84.9586 77.5716 84.1618C77.1026 83.365 76.8507 82.419 76.8495 81.4497C76.8216 80.847 76.8995 80.2439 77.0784 79.6781C77.2573 79.1124 77.5334 78.5961 77.8894 78.1615C78.2454 77.7269 78.6737 77.3833 79.1476 77.1521C79.6215 76.921 80.1308 76.8072 80.6437 76.8179C81.1549 76.8067 81.6625 76.9205 82.1344 77.1522C82.6063 77.3838 83.0322 77.7283 83.3851 78.1637C83.7379 78.5991 84.0101 79.116 84.1843 79.6817C84.3586 80.2473 84.4311 80.8494 84.3973 81.4497C84.448 81.5452 84.4277 81.6885 84.4277 81.8317ZM77.9452 80.9125H83.4437C83.3845 80.1025 83.0692 79.3481 82.5602 78.7984C82.0511 78.2487 81.3853 77.9437 80.6944 77.9437C80.0035 77.9437 79.3377 78.2487 78.8287 78.7984C78.3196 79.3481 78.0044 80.1025 77.9452 80.9125Z" fill="#FAFAFA"/>
<path d="M94.4304 81.4497C94.4588 82.0592 94.3792 82.6689 94.1967 83.2403C94.0142 83.8116 93.7328 84.3321 93.3704 84.7688C93.0079 85.2054 92.5723 85.5486 92.0911 85.7766C91.61 86.0047 91.0938 86.1126 90.5754 86.0934C89.9943 86.1184 89.4177 85.9654 88.902 85.6494C88.3863 85.3335 87.9492 84.8653 87.6334 84.2909V89.3643H86.6189V76.8896H87.6334V78.6922C87.9519 78.0881 88.4023 77.5956 88.9376 77.2659C89.4728 76.9363 90.0735 76.7816 90.6768 76.818C91.1859 76.8156 91.6901 76.9354 92.1585 77.1701C92.6269 77.4048 93.0497 77.7494 93.401 78.1829C93.7524 78.6165 94.0249 79.1298 94.2019 79.6915C94.3789 80.2532 94.4566 80.8515 94.4304 81.4497ZM93.4159 81.4497C93.3862 80.7851 93.1914 80.1453 92.8557 79.6096C92.52 79.074 92.0581 78.6659 91.5273 78.436C90.9965 78.2061 90.4201 78.1645 89.8694 78.3163C89.3186 78.468 88.8178 78.8065 88.429 79.2899C88.0401 79.7732 87.7803 80.3802 87.6817 81.0355C87.583 81.6909 87.6499 82.3659 87.8741 82.977C88.0982 83.5881 88.4698 84.1084 88.9427 84.4735C89.4156 84.8386 89.9692 85.0324 90.5348 85.031C90.9259 85.0321 91.3131 84.9384 91.6721 84.7558C92.0312 84.5732 92.3545 84.3056 92.6219 83.9697C92.8893 83.6338 93.0951 83.2367 93.2264 82.8032C93.3578 82.3697 93.4119 81.909 93.3855 81.4497H93.4159Z" fill="#FAFAFA"/>
<path d="M102.384 80.3515V86.0099H101.369V84.5893C101.08 85.0986 100.68 85.5069 100.211 85.7716C99.7412 86.0362 99.2199 86.1474 98.7014 86.0934C96.9565 86.0934 95.8811 85.0191 95.8811 83.4433C95.8811 81.8675 96.642 80.8529 98.8637 80.8529H101.369V80.3037C101.369 78.7399 100.619 77.9162 99.1782 77.9162C98.2377 77.9006 97.3237 78.2817 96.6014 78.9906L96.1246 78.0714C97.0281 77.2579 98.1425 76.8363 99.2796 76.8777C101.238 76.818 102.384 77.9998 102.384 80.3515ZM101.369 83.2642V81.772H98.9347C97.4333 81.772 96.9057 82.4644 96.9057 83.4075C96.9057 84.3506 97.626 85.1265 98.8637 85.1265C99.3959 85.1738 99.927 85.0183 100.378 84.6829C100.83 84.3475 101.177 83.8501 101.369 83.2642Z" fill="#FAFAFA"/>
<path d="M109.12 76.8179V78.0117H108.867C107.254 78.0117 106.26 79.2055 106.26 81.3661V86.0218H105.245V76.8896H106.26V78.6683C106.527 78.0609 106.942 77.5607 107.451 77.2312C107.96 76.9018 108.541 76.7579 109.12 76.8179Z" fill="#FAFAFA"/>
<path d="M115.43 85.4488C114.967 85.8822 114.389 86.1104 113.797 86.0934C113.49 86.1415 113.178 86.1064 112.885 85.9908C112.591 85.8752 112.324 85.6821 112.104 85.4263C111.884 85.1706 111.716 84.8589 111.614 84.5152C111.512 84.1715 111.478 83.8048 111.514 83.4433V77.9281H110.125V76.8896H111.514V74.896H112.529V76.8896H114.882V77.9281H112.529V83.3716C112.502 83.5897 112.517 83.812 112.574 84.0219C112.631 84.2319 112.727 84.424 112.856 84.5837C112.985 84.7434 113.143 84.8667 113.318 84.9442C113.494 85.0216 113.682 85.0513 113.868 85.031C114.285 85.0431 114.692 84.8778 115.014 84.5654L115.43 85.4488Z" fill="#FAFAFA"/>
<path d="M124.307 76.8895V86.0098H123.293V84.3386C123.005 84.8994 122.594 85.3584 122.103 85.6672C121.612 85.976 121.059 86.1233 120.503 86.0934C120.06 86.1342 119.614 86.0603 119.198 85.8769C118.782 85.6935 118.405 85.4051 118.094 85.0319C117.782 84.6587 117.544 84.2098 117.396 83.7167C117.248 83.2237 117.193 82.6984 117.236 82.1779V76.8895H118.251V82.0585C118.2 82.4468 118.226 82.8437 118.327 83.2182C118.428 83.5926 118.601 83.9346 118.833 84.2176C119.065 84.5006 119.349 84.7168 119.663 84.8496C119.977 84.9824 120.313 85.0281 120.645 84.9832C121.012 85.0071 121.378 84.9363 121.719 84.7757C122.06 84.615 122.367 84.3685 122.619 84.0533C122.87 83.7382 123.06 83.3621 123.174 82.9515C123.289 82.5409 123.326 82.1057 123.282 81.6765V76.9015L124.307 76.8895Z" fill="#FAFAFA"/>
<path d="M131.144 76.8179V78.0117H130.891C129.278 78.0117 128.284 79.2055 128.284 81.3661V86.0218H127.269V76.8896H128.284V78.6683C128.551 78.0609 128.965 77.5607 129.475 77.2312C129.984 76.9018 130.565 76.7579 131.144 76.8179Z" fill="#FAFAFA"/>
<path d="M139.707 81.8317H133.225C133.246 82.2751 133.343 82.7091 133.508 83.1085C133.673 83.5079 133.904 83.865 134.187 84.159C134.469 84.4531 134.799 84.6783 135.156 84.8219C135.513 84.9654 135.891 85.0242 136.268 84.9951C136.714 85.0131 137.158 84.9154 137.568 84.7091C137.978 84.5028 138.345 84.1929 138.642 83.8014L139.23 84.6012C138.682 85.3065 137.966 85.8017 137.175 86.0227C136.384 86.2437 135.556 86.1804 134.796 85.8408C134.036 85.5013 133.381 84.9012 132.914 84.1183C132.448 83.3354 132.192 82.4058 132.18 81.4497C132.152 80.848 132.229 80.2459 132.408 79.681C132.586 79.1161 132.861 78.6004 133.216 78.1659C133.571 77.7315 133.998 77.3877 134.471 77.1558C134.943 76.9238 135.452 76.8089 135.964 76.8179C136.475 76.8067 136.982 76.9205 137.454 77.1522C137.926 77.3838 138.352 77.7283 138.705 78.1637C139.058 78.5991 139.33 79.116 139.504 79.6817C139.679 80.2473 139.751 80.8494 139.717 81.4497C139.717 81.5452 139.707 81.6885 139.707 81.8317ZM133.225 80.9125H138.713C138.67 80.09 138.363 79.3177 137.853 78.753C137.343 78.1883 136.669 77.8739 135.969 77.8739C135.268 77.8739 134.595 78.1883 134.085 78.753C133.575 79.3177 133.267 80.09 133.225 80.9125Z" fill="#FAFAFA"/>
<path d="M140.782 84.9594L141.249 83.9924C142.053 84.6694 143.019 85.0288 144.008 85.0191C145.479 85.0191 146.037 84.4222 146.037 83.5269C146.037 81.1394 141.016 83.0255 141.016 79.4204C141.016 77.9282 142.101 76.818 144.059 76.818C145.024 76.8029 145.974 77.0958 146.808 77.6656L146.352 78.6564C145.671 78.1332 144.872 77.8629 144.059 77.8804C142.669 77.8804 142.03 78.5131 142.03 79.3846C142.03 81.8437 147.102 79.9934 147.102 83.4911C147.102 85.0668 145.915 86.0935 143.907 86.0935C142.788 86.1254 141.691 85.7273 140.782 84.9594Z" fill="#FAFAFA"/>
<path d="M173.804 73.6903C173.596 73.9384 173.479 74.2729 173.479 74.6215C173.479 74.97 173.596 75.3046 173.804 75.5526L178.683 81.3542L164.714 81.2587C164.417 81.2587 164.132 81.3967 163.921 81.6426C163.71 81.8885 163.591 82.2225 163.588 82.5719C163.588 82.9201 163.705 83.2541 163.915 83.5004C164.124 83.7466 164.408 83.885 164.704 83.885L178.673 83.9685L173.743 89.7105C173.639 89.8325 173.556 89.9776 173.499 90.1374C173.443 90.2972 173.414 90.4686 173.414 90.6416C173.414 90.8147 173.443 90.986 173.499 91.1458C173.556 91.3056 173.639 91.4507 173.743 91.5727C173.952 91.817 174.235 91.954 174.529 91.954C174.824 91.954 175.106 91.817 175.315 91.5727L182.954 82.6793L175.427 73.7023C175.323 73.5714 175.198 73.4669 175.059 73.395C174.92 73.3232 174.769 73.2856 174.618 73.2844C174.466 73.2833 174.315 73.3187 174.175 73.3885C174.035 73.4583 173.909 73.561 173.804 73.6903Z" fill="#FAFAFA"/>
<path d="M45.1976 89.985H16.3457V92.4561H45.1976V89.985Z" fill="#FAFAFA"/>
<path d="M48.3526 68.7721C48.1898 68.5186 47.9907 68.3005 47.7642 68.1275C46.2841 67.5056 44.7436 67.1045 43.1787 66.9337C40.673 66.9337 38.8063 68.1275 36.7165 69.5361L34.1397 71.3506L25.0702 69.5241C24.9317 69.4712 24.7826 69.4712 24.6441 69.5241L23.2036 70.2881C23.1236 70.3307 23.0557 70.3995 23.0081 70.4864C22.9605 70.5732 22.9352 70.6743 22.9352 70.7776C22.9352 70.8809 22.9605 70.982 23.0081 71.0688C23.0557 71.1556 23.1236 71.2244 23.2036 71.267L29.1992 74.6692V74.7647L22.9804 79.098L22.8891 79.1697C21.7122 79.9616 20.3255 80.2045 19.0036 79.8501L15.7978 79.0025C15.6395 78.9431 15.4693 78.9431 15.3109 79.0025C15.1771 79.056 15.0575 79.1497 14.964 79.2743C14.8704 79.3989 14.8061 79.55 14.7774 79.7128C14.7487 79.8756 14.7566 80.0444 14.8004 80.2024C14.8441 80.3605 14.9222 80.5024 15.0268 80.6141L18.6283 84.5057C18.9079 84.7993 19.2513 84.996 19.6202 85.0739C19.989 85.1519 20.3691 85.1081 20.7181 84.9474L22.5036 84.0879L32.6484 79.0503L47.0338 71.8878C48.4439 71.279 49.0019 69.8942 48.3526 68.7721Z" fill="#FAFAFA"/>
<path d="M35.3574 79.2651L31.0864 81.3661L30.285 85.5204C30.2726 85.5769 30.2713 85.6359 30.2814 85.693C30.2914 85.7501 30.3123 85.8038 30.3427 85.8499C30.3731 85.896 30.412 85.9333 30.4565 85.9589C30.501 85.9846 30.5499 85.9979 30.5995 85.9979H31.0255C31.3062 85.9969 31.5822 85.9134 31.8285 85.755C32.0748 85.5965 32.2835 85.3682 32.4357 85.0906L35.3574 79.2651Z" fill="#FAFAFA"/>
<path d="M158.038 395.86H152.966V282.537H131.307V395.86H126.234V276.568H158.038V395.86Z" fill="#E0E0E0"/>
<path d="M158.039 395.86C158.039 395.86 158.039 395.108 158.039 393.664C158.039 392.219 158.039 390.082 158.039 387.313C158.039 381.75 158.039 373.597 157.978 363.187C157.978 342.392 157.917 312.596 157.866 276.568L158.079 276.819H126.275L126.519 276.545C126.519 310.722 126.519 349.244 126.519 389.856V395.824L126.255 395.514H131.327L131.063 395.824C131.063 354.879 131.063 316.356 131.063 282.501V282.227H153.179V282.49C153.098 339.849 153.037 381.153 153.017 395.812L152.956 395.753H156.74H158.028H156.77H152.956H152.905V395.693C152.905 381.034 152.824 339.73 152.743 282.37L152.956 282.621H131.297L131.53 282.346C131.53 316.201 131.53 354.723 131.53 395.669V395.98H125.93V389.879C125.93 349.292 125.93 310.746 125.93 276.568V276.282H126.164H157.968H158.191V276.545C158.14 312.644 158.099 342.487 158.079 363.33C158.079 373.704 158.079 381.845 158.018 387.396C158.018 390.154 158.018 392.255 158.018 393.699C158.018 395.144 158.039 395.86 158.039 395.86Z" fill="#263238"/>
<path d="M124.784 287.694V279.016C124.784 278.034 125.116 277.093 125.705 276.399C126.295 275.705 127.095 275.315 127.929 275.315H156.335C156.748 275.315 157.157 275.411 157.538 275.597C157.92 275.783 158.266 276.055 158.558 276.399C158.85 276.743 159.082 277.151 159.24 277.6C159.398 278.049 159.479 278.53 159.479 279.016V287.694H151.719V283.051H132.677V287.694H124.784Z" fill="#263238"/>
<path d="M130.567 341.95C130.567 342.129 129.745 342.261 128.741 342.261C127.736 342.261 126.905 342.129 126.905 341.95C126.905 341.771 127.726 341.64 128.741 341.64C129.755 341.64 130.567 341.783 130.567 341.95Z" fill="#263238"/>
<path d="M128.74 349.316C129.749 349.316 130.566 349.177 130.566 349.005C130.566 348.834 129.749 348.695 128.74 348.695C127.732 348.695 126.914 348.834 126.914 349.005C126.914 349.177 127.732 349.316 128.74 349.316Z" fill="#263238"/>
<path d="M128.771 340.697C129.068 340.697 129.308 340.414 129.308 340.064C129.308 339.715 129.068 339.431 128.771 339.431C128.474 339.431 128.233 339.715 128.233 340.064C128.233 340.414 128.474 340.697 128.771 340.697Z" fill="#263238"/>
<path d="M157.298 341.95C157.298 342.129 156.476 342.261 155.472 342.261C154.468 342.261 153.636 342.129 153.636 341.95C153.636 341.771 154.457 341.64 155.472 341.64C156.486 341.64 157.298 341.783 157.298 341.95Z" fill="#263238"/>
<path d="M157.298 349.005C157.298 349.172 156.476 349.316 155.472 349.316C154.468 349.316 153.636 349.172 153.636 349.005C153.636 348.838 154.457 348.695 155.472 348.695C156.486 348.695 157.298 348.826 157.298 349.005Z" fill="#263238"/>
<path d="M155.502 340.697C155.799 340.697 156.04 340.414 156.04 340.064C156.04 339.715 155.799 339.431 155.502 339.431C155.205 339.431 154.965 339.715 154.965 340.064C154.965 340.414 155.205 340.697 155.502 340.697Z" fill="#263238"/>
<path d="M155.208 396.481C154.843 396.708 153.889 394.905 151.779 392.9C149.138 390.161 145.751 388.625 142.231 388.568C138.711 388.511 135.289 389.937 132.585 392.589C130.434 394.571 129.43 396.338 129.075 396.111C128.72 395.884 129.217 393.723 131.317 390.978C132.562 389.402 134.049 388.118 135.7 387.193C137.742 386.018 139.991 385.425 142.265 385.463C144.538 385.5 146.772 386.166 148.786 387.408C150.415 388.382 151.871 389.711 153.078 391.324C155.137 394.057 155.492 396.326 155.208 396.481Z" fill="#263238"/>
<path d="M165.718 395.86H113.898C108.15 395.86 103.49 401.344 103.49 408.108V508.276C103.49 515.04 108.15 520.524 113.898 520.524H165.718C171.467 520.524 176.127 515.04 176.127 508.276V408.108C176.127 401.344 171.467 395.86 165.718 395.86Z" fill="#E47530"/>
<path d="M165.718 520.476C166.865 520.424 167.999 520.178 169.086 519.748C170.632 519.1 172.026 518.033 173.155 516.633C174.285 515.233 175.119 513.54 175.589 511.69C176.228 509.303 175.944 506.438 176.005 503.334C176.066 500.23 176.005 496.923 176.005 493.33C176.005 486.168 176.005 477.99 176.005 468.966C176.005 459.941 176.005 450.033 176.005 439.42C176.005 434.104 176.005 428.617 176.005 422.958V414.351C176.005 412.907 176.005 411.439 176.005 409.958C176.062 408.497 175.991 407.033 175.792 405.589C175.398 403.4 174.492 401.384 173.177 399.768C171.861 398.153 170.188 397.002 168.346 396.445C167.073 396.122 165.77 395.998 164.47 396.075H113.909C112.486 396.077 111.08 396.431 109.782 397.114C108.483 397.796 107.321 398.793 106.371 400.038C105.428 401.27 104.71 402.717 104.261 404.288C103.847 405.871 103.675 407.529 103.754 409.183V428.999C103.754 441.999 103.754 454.533 103.754 466.471C103.754 478.408 103.754 489.761 103.754 500.385C103.754 503.035 103.754 505.65 103.754 508.204C103.767 510.689 104.425 513.109 105.641 515.14C106.812 517.086 108.451 518.574 110.348 519.414C111.259 519.823 112.216 520.073 113.188 520.154C114.142 520.249 115.136 520.154 116.09 520.213L152.439 520.309L162.239 520.476L152.358 520.536L116.009 520.631C114.994 520.631 114.081 520.631 113.077 520.631C112.066 520.548 111.071 520.291 110.125 519.867C108.153 518.997 106.448 517.455 105.225 515.438C103.942 513.351 103.234 510.851 103.196 508.276V500.445C103.196 489.82 103.196 478.48 103.196 466.53C103.196 454.581 103.196 442.058 103.196 429.059C103.196 422.565 103.196 415.959 103.196 409.242C103.117 407.523 103.299 405.801 103.733 404.157C104.44 401.646 105.8 399.46 107.621 397.909C109.441 396.358 111.63 395.52 113.878 395.514H164.318C165.66 395.435 167.005 395.572 168.315 395.92C169.616 396.303 170.841 396.976 171.927 397.902C174.078 399.735 175.572 402.446 176.117 405.506C176.321 406.989 176.396 408.493 176.34 409.994V414.387C176.34 417.3 176.34 420.169 176.34 422.994C176.34 428.653 176.34 434.14 176.34 439.456C176.34 450.069 176.34 459.965 176.34 469.001C176.34 478.038 176.34 486.191 176.34 493.366C176.34 496.947 176.34 500.302 176.34 503.37C176.34 504.91 176.34 506.378 176.34 507.775C176.362 509.122 176.212 510.467 175.894 511.762C175.341 513.931 174.288 515.878 172.85 517.384C171.17 519.179 169.027 520.259 166.763 520.452L165.718 520.476Z" fill="#263238"/>
<path d="M122.846 527.173C122.848 528.243 122.58 529.291 122.076 530.182C121.572 531.073 120.854 531.768 120.014 532.179C119.174 532.589 118.249 532.698 117.356 532.489C116.464 532.281 115.644 531.766 115.001 531.009C114.357 530.252 113.92 529.287 113.743 528.237C113.566 527.187 113.657 526.099 114.007 525.11C114.356 524.121 114.946 523.277 115.704 522.684C116.461 522.09 117.351 521.775 118.261 521.777C119.477 521.777 120.643 522.346 121.503 523.358C122.363 524.369 122.846 525.742 122.846 527.173Z" fill="#455A64"/>
<path d="M103.49 435.337H103.277C102.573 435.339 101.876 435.177 101.225 434.861C100.575 434.545 99.984 434.081 99.4863 433.495C98.9886 432.909 98.5941 432.214 98.3254 431.448C98.0567 430.683 97.9191 429.863 97.9204 429.034C97.9204 428.207 98.059 427.388 98.3283 426.624C98.5977 425.86 98.9924 425.166 99.4899 424.582C99.9874 423.997 100.578 423.534 101.228 423.219C101.878 422.903 102.574 422.742 103.277 422.743H103.49V435.337Z" fill="#263238"/>
<path d="M103.49 493.223H103.277C102.573 493.224 101.876 493.062 101.225 492.746C100.575 492.43 99.984 491.966 99.4863 491.38C98.9886 490.794 98.5941 490.099 98.3254 489.334C98.0567 488.568 97.9191 487.748 97.9204 486.92C97.9204 485.248 98.4847 483.645 99.4893 482.463C100.494 481.281 101.856 480.617 103.277 480.617H103.49V493.223Z" fill="#263238"/>
<path d="M115.329 520.524L116.607 528.45H119.793L121.182 520.524H115.329Z" fill="#263238"/>
<path d="M120.645 527.173C120.645 527.719 120.507 528.252 120.25 528.706C119.992 529.16 119.625 529.513 119.196 529.722C118.767 529.93 118.296 529.984 117.841 529.876C117.386 529.769 116.968 529.505 116.641 529.118C116.314 528.732 116.091 528.239 116.002 527.703C115.913 527.168 115.961 526.613 116.14 526.109C116.318 525.606 116.62 525.176 117.007 524.874C117.394 524.573 117.848 524.413 118.312 524.415C118.619 524.415 118.923 524.487 119.207 524.625C119.491 524.764 119.749 524.967 119.965 525.224C120.182 525.48 120.354 525.784 120.47 526.118C120.587 526.453 120.647 526.811 120.645 527.173Z" fill="#263238"/>
<path d="M168.924 527.173C168.924 528.24 168.655 529.283 168.151 530.171C167.647 531.058 166.931 531.75 166.093 532.158C165.255 532.566 164.333 532.673 163.444 532.465C162.554 532.257 161.737 531.743 161.096 530.988C160.455 530.234 160.018 529.272 159.841 528.226C159.664 527.179 159.755 526.094 160.102 525.108C160.449 524.122 161.037 523.279 161.791 522.687C162.545 522.094 163.431 521.777 164.338 521.777C165.555 521.777 166.721 522.346 167.581 523.358C168.441 524.369 168.924 525.742 168.924 527.173Z" fill="#455A64"/>
<path d="M161.407 520.524L162.685 528.45H165.871L167.271 520.524H161.407Z" fill="#263238"/>
<path d="M166.682 527.173C166.682 527.718 166.545 528.251 166.287 528.705C166.03 529.158 165.664 529.512 165.235 529.72C164.807 529.929 164.336 529.984 163.881 529.877C163.427 529.771 163.009 529.508 162.682 529.123C162.354 528.737 162.131 528.246 162.04 527.711C161.95 527.176 161.996 526.621 162.174 526.118C162.351 525.614 162.651 525.183 163.037 524.88C163.422 524.577 163.875 524.415 164.339 524.415C164.647 524.414 164.952 524.484 165.237 524.622C165.522 524.76 165.781 524.963 165.999 525.219C166.217 525.476 166.389 525.78 166.506 526.116C166.624 526.451 166.683 526.81 166.682 527.173Z" fill="#263238"/>
<path d="M176.127 422.23C176.127 422.397 159.895 422.541 139.808 422.541C119.721 422.541 103.49 422.397 103.49 422.23C103.49 422.063 119.721 421.92 139.808 421.92C159.895 421.92 176.127 422.063 176.127 422.23Z" fill="#263238"/>
<path d="M176.127 419.007C176.127 419.174 159.895 419.317 139.808 419.317C119.721 419.317 103.49 419.174 103.49 419.007C103.49 418.84 119.721 418.697 139.808 418.697C159.895 418.697 176.127 418.804 176.127 419.007Z" fill="#263238"/>
<path d="M176.127 446.821C176.127 447 159.895 447.132 139.808 447.132C119.721 447.132 103.49 447 103.49 446.821C103.49 446.642 119.721 446.511 139.808 446.511C159.895 446.511 176.127 446.654 176.127 446.821Z" fill="#263238"/>
<path d="M176.127 443.574C176.127 443.742 159.895 443.885 139.808 443.885C119.721 443.885 103.49 443.742 103.49 443.574C103.49 443.407 119.721 443.264 139.808 443.264C159.895 443.264 176.127 443.395 176.127 443.574Z" fill="#263238"/>
<path d="M176.127 471.413C176.127 471.592 159.895 471.723 139.808 471.723C119.721 471.723 103.49 471.592 103.49 471.413C103.49 471.234 119.721 471.102 139.808 471.102C159.895 471.102 176.127 471.246 176.127 471.413Z" fill="#263238"/>
<path d="M176.127 468.166C176.127 468.333 159.895 468.476 139.808 468.476C119.721 468.476 103.49 468.333 103.49 468.166C103.49 467.999 119.721 467.855 139.808 467.855C159.895 467.855 176.127 467.951 176.127 468.166Z" fill="#263238"/>
<path d="M176.127 496.016C176.127 496.183 159.895 496.326 139.808 496.326C119.721 496.326 103.49 496.183 103.49 496.016C103.49 495.849 119.721 495.694 139.808 495.694C159.895 495.694 176.127 495.837 176.127 496.016Z" fill="#263238"/>
<path d="M176.127 492.757C176.127 492.924 159.895 493.067 139.808 493.067C119.721 493.067 103.49 492.924 103.49 492.757C103.49 492.59 119.721 492.447 139.808 492.447C159.895 492.447 176.127 492.59 176.127 492.757Z" fill="#263238"/>
<path d="M146.159 429.058H131.226V433.499H146.159V429.058Z" fill="white"/>
<path d="M146.19 433.523H131.196V429.023H146.19V433.523ZM131.246 433.463H146.139V429.082H131.246V433.463Z" fill="#263238"/>
<g opacity="0.2">
<path d="M176.127 418.983H103.49V421.013H176.127V418.983Z" fill="black"/>
</g>
<g opacity="0.2">
<path d="M176.127 443.467H103.49V445.496H176.127V443.467Z" fill="black"/>
</g>
<g opacity="0.2">
<path d="M176.127 467.927H103.49V469.956H176.127V467.927Z" fill="black"/>
</g>
<g opacity="0.2">
<path d="M176.127 492.387H103.49V494.416H176.127V492.387Z" fill="black"/>
</g>
</svg>
