<svg width="1063" height="464" viewBox="0 0 1063 464" fill="none" xmlns="http://www.w3.org/2000/svg">
<path d="M128.615 34.4614V248.615C128.615 251.929 127.963 255.21 126.695 258.271C125.427 261.332 123.568 264.113 121.225 266.456C118.883 268.799 116.101 270.658 113.04 271.925C109.979 273.193 106.698 273.846 103.385 273.846V201.846C103.385 193.686 106.626 185.859 112.397 180.089C118.167 174.319 125.993 171.077 134.154 171.077H217.397" stroke="#DDDDDD" stroke-width="2.46154" stroke-miterlimit="10"/>
<path d="M373.539 463.101V403.077C373.539 396.059 370.751 389.328 365.788 384.366C360.826 379.403 354.095 376.615 347.077 376.615C340.059 376.615 333.328 373.827 328.366 368.865C323.403 363.902 320.615 357.172 320.615 350.154V248.338C320.615 240.178 317.374 232.352 311.603 226.581C305.833 220.811 298.007 217.569 289.846 217.569H248C239.84 217.569 232.013 214.327 226.243 208.557C220.473 202.787 217.231 194.96 217.231 186.8V137.231C217.231 129.07 213.989 121.244 208.219 115.474C202.448 109.703 194.622 106.461 186.462 106.461H12.9231" stroke="#DDDDDD" stroke-width="2.46154" stroke-miterlimit="10"/>
<path d="M260.923 123.692V244.308C260.923 252.468 264.165 260.294 269.935 266.065C275.706 271.835 283.532 275.077 291.692 275.077H343.385C351.545 275.077 359.371 271.835 365.142 266.065C370.912 260.294 374.154 252.468 374.154 244.308V204.308M725.538 328.615C725.538 320.455 728.78 312.629 734.551 306.858C740.321 301.088 748.147 297.846 756.308 297.846H922.462C930.622 297.846 938.448 294.604 944.219 288.834C949.989 283.064 953.231 275.237 953.231 267.077V215.385C953.231 207.224 949.989 199.398 944.219 193.627C938.448 187.857 930.622 184.615 922.462 184.615H865.846V100.308C865.846 92.1472 869.088 84.3209 874.858 78.5505C880.629 72.7802 888.455 69.5384 896.615 69.5384H1049.23M953.231 27.0769V263.022" stroke="#DDDDDD" stroke-width="2.46154" stroke-miterlimit="10"/>
<path d="M373.538 419.077V359.385C373.538 351.224 376.78 343.398 382.551 337.628C388.321 331.857 396.147 328.616 404.308 328.616H780.308C788.468 328.616 796.294 325.374 802.065 319.603C807.835 313.833 811.077 306.007 811.077 297.846V116.923" stroke="#DDDDDD" stroke-width="2.46154" stroke-miterlimit="10"/>
<path d="M173.538 119.385C180.676 119.385 186.462 113.599 186.462 106.462C186.462 99.3243 180.676 93.5385 173.538 93.5385C166.401 93.5385 160.615 99.3243 160.615 106.462C160.615 113.599 166.401 119.385 173.538 119.385Z" fill="#F7971C"/>
<path fill-rule="evenodd" clip-rule="evenodd" d="M181.742 103.538H180.222L179.274 101.741C179.039 101.282 178.682 100.895 178.243 100.624C177.803 100.353 177.298 100.207 176.782 100.203H170.295C169.779 100.207 169.274 100.353 168.834 100.624C168.395 100.895 168.038 101.282 167.803 101.741L166.855 103.538H165.335C164.96 103.538 164.652 103.748 164.652 104.006V104.775C164.662 104.947 164.739 105.109 164.867 105.224C164.995 105.339 165.163 105.399 165.335 105.391H165.465C165.4 105.503 165.367 105.63 165.366 105.76V110.209C165.36 110.533 165.462 110.849 165.654 111.11C165.847 111.37 166.12 111.56 166.431 111.649V112C166.429 112.095 166.446 112.19 166.481 112.279C166.516 112.367 166.568 112.448 166.635 112.517C166.701 112.586 166.78 112.64 166.868 112.678C166.955 112.716 167.049 112.737 167.145 112.738H168.566C168.758 112.734 168.94 112.653 169.072 112.515C169.205 112.377 169.277 112.191 169.274 112V111.717H177.803V112C177.8 112.191 177.872 112.377 178.005 112.515C178.137 112.653 178.319 112.734 178.511 112.738H179.932C180.028 112.737 180.122 112.716 180.209 112.678C180.297 112.64 180.376 112.586 180.442 112.517C180.508 112.448 180.561 112.367 180.596 112.279C180.631 112.19 180.648 112.095 180.646 112V111.674C180.957 111.584 181.23 111.395 181.423 111.134C181.615 110.874 181.717 110.558 181.711 110.234V105.785C181.71 105.655 181.676 105.528 181.612 105.415H181.742C181.914 105.424 182.082 105.364 182.21 105.248C182.338 105.133 182.415 104.972 182.425 104.8V104C182.425 103.748 182.117 103.538 181.742 103.538ZM180.308 108.732C180.298 108.94 180.227 109.141 180.105 109.31C179.982 109.478 179.813 109.607 179.618 109.68C179.422 109.753 179.21 109.767 179.007 109.721C178.804 109.674 178.619 109.569 178.475 109.419C178.331 109.268 178.234 109.078 178.197 108.873C178.159 108.668 178.183 108.457 178.265 108.265C178.347 108.073 178.483 107.91 178.657 107.795C178.831 107.68 179.035 107.619 179.243 107.618C179.386 107.622 179.527 107.653 179.658 107.711C179.789 107.768 179.907 107.851 180.006 107.955C180.105 108.058 180.183 108.18 180.234 108.313C180.286 108.447 180.311 108.589 180.308 108.732ZM168.148 103.501L168.812 102.369C169.027 102.016 169.33 101.724 169.691 101.524C170.053 101.323 170.46 101.22 170.874 101.225H176.24C176.653 101.22 177.061 101.323 177.422 101.524C177.784 101.724 178.087 102.016 178.302 102.369L178.966 103.501L179.692 104.8H167.385L168.148 103.501ZM167.871 107.618C168.093 107.609 168.313 107.665 168.502 107.782C168.692 107.898 168.842 108.068 168.934 108.271C169.026 108.473 169.055 108.699 169.018 108.918C168.981 109.137 168.879 109.34 168.725 109.501C168.572 109.661 168.373 109.773 168.156 109.82C167.939 109.867 167.712 109.848 167.506 109.765C167.299 109.682 167.123 109.54 166.998 109.356C166.873 109.172 166.806 108.955 166.806 108.732C166.799 108.446 166.905 108.169 167.101 107.961C167.297 107.753 167.567 107.63 167.852 107.618H167.871ZM175.335 109.101H171.778C171.731 109.101 171.684 109.09 171.641 109.071C171.597 109.052 171.558 109.025 171.526 108.99C171.493 108.956 171.467 108.916 171.451 108.871C171.434 108.827 171.426 108.78 171.428 108.732C171.426 108.685 171.434 108.638 171.451 108.593C171.467 108.549 171.493 108.508 171.526 108.474C171.558 108.44 171.597 108.412 171.641 108.393C171.684 108.374 171.731 108.364 171.778 108.363H175.335C175.383 108.364 175.43 108.374 175.473 108.393C175.516 108.412 175.556 108.44 175.588 108.474C175.621 108.508 175.646 108.549 175.663 108.593C175.68 108.638 175.688 108.685 175.686 108.732C175.688 108.781 175.679 108.83 175.662 108.876C175.644 108.921 175.616 108.963 175.582 108.997C175.547 109.032 175.506 109.059 175.46 109.077C175.415 109.095 175.366 109.103 175.317 109.101H175.335Z" fill="white"/>
<path d="M217.231 184C224.368 184 230.154 178.214 230.154 171.077C230.154 163.94 224.368 158.154 217.231 158.154C210.094 158.154 204.308 163.94 204.308 171.077C204.308 178.214 210.094 184 217.231 184Z" fill="#26C6DA"/>
<path fill-rule="evenodd" clip-rule="evenodd" d="M215.575 168.486C215.59 168.162 215.699 167.85 215.89 167.587C216.08 167.325 216.343 167.124 216.647 167.01C216.95 166.896 217.281 166.874 217.597 166.946C217.913 167.018 218.201 167.181 218.425 167.415C218.649 167.649 218.8 167.944 218.858 168.263C218.916 168.582 218.879 168.911 218.752 169.209C218.625 169.508 218.413 169.762 218.142 169.941C217.872 170.119 217.555 170.215 217.231 170.215C216.782 170.204 216.357 170.016 216.047 169.692C215.737 169.368 215.567 168.934 215.575 168.486ZM222.406 168.788C222.44 168.087 222.332 167.386 222.087 166.729C221.842 166.071 221.467 165.47 220.983 164.962C220.499 164.454 219.917 164.049 219.272 163.773C218.627 163.496 217.932 163.354 217.231 163.354C216.529 163.354 215.835 163.496 215.19 163.773C214.545 164.049 213.963 164.454 213.479 164.962C212.995 165.47 212.619 166.071 212.374 166.729C212.13 167.386 212.021 168.087 212.055 168.788C212.055 172.905 217.231 178.849 217.231 178.849C217.231 178.849 222.406 172.923 222.406 168.788Z" fill="white"/>
<path d="M320.615 288C327.753 288 333.538 282.214 333.538 275.077C333.538 267.94 327.753 262.154 320.615 262.154C313.478 262.154 307.692 267.94 307.692 275.077C307.692 282.214 313.478 288 320.615 288Z" fill="#E04C3F"/>
<path fill-rule="evenodd" clip-rule="evenodd" d="M318.837 271.385C318.84 271.421 318.84 271.458 318.837 271.495V272.203C318.812 272.464 318.721 272.715 318.571 272.931C318.421 273.146 318.218 273.32 317.982 273.434L317.44 273.692L317.335 273.723L317.477 282.812C317.477 283.169 317.04 283.329 316.689 283.329C316.338 283.329 315.902 283.169 315.902 282.812L316.043 273.723L315.938 273.692L315.397 273.434C315.163 273.317 314.962 273.143 314.813 272.928C314.665 272.713 314.573 272.463 314.548 272.203V271.495C314.545 271.458 314.545 271.421 314.548 271.385C314.541 271.356 314.541 271.327 314.548 271.298L314.775 267.182C314.775 266.985 314.88 266.825 314.985 266.825C315.089 266.825 315.182 266.985 315.194 267.182L315.397 270.683V270.991C315.409 271.096 315.463 271.193 315.546 271.26C315.628 271.327 315.734 271.358 315.84 271.348C315.945 271.356 316.049 271.324 316.131 271.257C316.212 271.191 316.265 271.095 316.277 270.991V270.689L316.474 267.182C316.474 266.985 316.578 266.825 316.683 266.825C316.788 266.825 316.88 266.985 316.892 267.182L317.102 270.689V270.991C317.114 271.095 317.166 271.191 317.248 271.257C317.329 271.324 317.434 271.356 317.538 271.348C317.643 271.356 317.748 271.324 317.829 271.257C317.911 271.191 317.963 271.095 317.975 270.991V270.652L318.166 267.182C318.166 266.985 318.271 266.825 318.375 266.825C318.48 266.825 318.572 266.985 318.585 267.182L318.831 271.298C318.836 271.327 318.838 271.356 318.837 271.385ZM326.671 270.289C326.671 268.375 325.44 266.825 323.895 266.825C322.351 266.825 321.12 268.375 321.12 270.289C321.12 271.908 322.012 273.268 323.212 273.649L323.077 282.757C323.077 283.108 323.538 283.268 323.908 283.268C324.277 283.268 324.745 283.108 324.745 282.757L324.591 273.655C325.785 273.274 326.671 271.914 326.671 270.295V270.289Z" fill="white"/>
<path d="M476.923 341.538C484.06 341.538 489.846 335.753 489.846 328.615C489.846 321.478 484.06 315.692 476.923 315.692C469.786 315.692 464 321.478 464 328.615C464 335.753 469.786 341.538 476.923 341.538Z" fill="#0782C5"/>
<path fill-rule="evenodd" clip-rule="evenodd" d="M484.308 323.994C484.231 323.997 484.156 324.014 484.086 324.043V322.517C484.087 322.287 484.042 322.06 483.955 321.847C483.867 321.635 483.738 321.442 483.576 321.279C483.414 321.117 483.221 320.988 483.008 320.901C482.796 320.813 482.568 320.768 482.338 320.769H471.489C471.026 320.769 470.581 320.953 470.253 321.281C469.926 321.609 469.741 322.053 469.741 322.517V324.043C469.671 324.014 469.596 323.997 469.52 323.994C469.431 323.994 469.344 324.011 469.262 324.046C469.18 324.08 469.106 324.13 469.043 324.193C468.981 324.256 468.932 324.33 468.898 324.412C468.865 324.494 468.848 324.582 468.849 324.671V327.471C468.848 327.559 468.865 327.647 468.898 327.729C468.932 327.812 468.981 327.886 469.043 327.949C469.106 328.012 469.18 328.062 469.262 328.096C469.344 328.13 469.431 328.148 469.52 328.148C469.596 328.147 469.671 328.133 469.741 328.105V333.317C469.74 333.66 469.841 333.996 470.03 334.281C470.22 334.567 470.49 334.791 470.806 334.923H470.64C470.62 335.137 470.649 335.352 470.724 335.552C470.799 335.753 470.919 335.934 471.074 336.082C471.229 336.23 471.416 336.341 471.62 336.407C471.824 336.473 472.04 336.491 472.252 336.462C472.448 336.488 472.646 336.471 472.834 336.412C473.022 336.353 473.195 336.253 473.34 336.12C473.485 335.987 473.599 335.823 473.674 335.641C473.749 335.458 473.782 335.262 473.772 335.065H480.074C480.074 335.266 480.117 335.466 480.2 335.65C480.284 335.833 480.406 335.997 480.558 336.13C480.71 336.262 480.889 336.36 481.083 336.417C481.277 336.475 481.48 336.49 481.68 336.462C481.888 336.489 482.1 336.469 482.298 336.401C482.497 336.333 482.677 336.22 482.825 336.071C482.973 335.922 483.084 335.741 483.15 335.542C483.216 335.343 483.235 335.131 483.206 334.923H483.04C483.355 334.789 483.623 334.565 483.813 334.279C484.002 333.994 484.103 333.659 484.105 333.317V328.105C484.175 328.133 484.25 328.147 484.326 328.148C484.415 328.148 484.502 328.13 484.584 328.096C484.666 328.062 484.74 328.012 484.803 327.949C484.865 327.886 484.914 327.812 484.948 327.729C484.981 327.647 484.998 327.559 484.997 327.471V324.677C484.999 324.586 484.982 324.496 484.948 324.412C484.914 324.328 484.863 324.252 484.798 324.188C484.734 324.124 484.657 324.074 484.573 324.041C484.489 324.007 484.398 323.991 484.308 323.994ZM474.006 321.692H480.252C480.423 321.693 480.587 321.756 480.714 321.869C480.841 321.982 480.922 322.139 480.941 322.308V322.382C480.942 322.565 480.869 322.741 480.74 322.871C480.611 323.001 480.436 323.075 480.252 323.077H474.025C473.852 323.061 473.692 322.981 473.576 322.853C473.459 322.725 473.395 322.558 473.395 322.385C473.395 322.212 473.459 322.045 473.576 321.917C473.692 321.789 473.852 321.709 474.025 321.692H474.006ZM471.071 325.748C471.071 325.284 471.255 324.838 471.582 324.51C471.91 324.181 472.354 323.996 472.818 323.994H480.991C481.221 323.994 481.449 324.039 481.661 324.128C481.873 324.216 482.066 324.345 482.229 324.508C482.391 324.671 482.52 324.864 482.607 325.077C482.695 325.29 482.739 325.518 482.738 325.748V327.779C482.738 328.243 482.554 328.688 482.227 329.017C481.899 329.345 481.455 329.531 480.991 329.532H472.837C472.607 329.532 472.379 329.487 472.167 329.399C471.954 329.311 471.761 329.181 471.599 329.018C471.437 328.855 471.308 328.662 471.22 328.449C471.133 328.236 471.088 328.009 471.089 327.779L471.071 325.748ZM482.289 332.757C482.284 332.934 482.228 333.105 482.126 333.249C482.024 333.394 481.882 333.505 481.718 333.569C481.553 333.634 481.373 333.648 481.201 333.61C481.028 333.573 480.87 333.486 480.747 333.359C480.624 333.232 480.541 333.072 480.508 332.899C480.475 332.725 480.495 332.546 480.563 332.383C480.632 332.22 480.747 332.081 480.894 331.984C481.041 331.886 481.214 331.834 481.391 331.834C481.512 331.833 481.632 331.856 481.744 331.903C481.856 331.949 481.958 332.017 482.043 332.103C482.128 332.189 482.196 332.291 482.241 332.403C482.287 332.516 482.309 332.636 482.308 332.757H482.289ZM473.317 332.757C473.312 332.934 473.255 333.105 473.154 333.249C473.052 333.394 472.91 333.505 472.746 333.569C472.581 333.634 472.401 333.648 472.229 333.61C472.056 333.573 471.898 333.486 471.775 333.359C471.652 333.232 471.569 333.072 471.536 332.899C471.503 332.725 471.522 332.546 471.591 332.383C471.66 332.22 471.775 332.081 471.922 331.984C472.069 331.886 472.242 331.834 472.418 331.834C472.54 331.833 472.66 331.856 472.772 331.903C472.884 331.949 472.985 332.017 473.071 332.103C473.156 332.189 473.224 332.291 473.269 332.403C473.314 332.516 473.337 332.636 473.335 332.757H473.317Z" fill="white"/>
<path d="M725.538 341.538C732.676 341.538 738.462 335.753 738.462 328.615C738.462 321.478 732.676 315.692 725.538 315.692C718.401 315.692 712.615 321.478 712.615 328.615C712.615 335.753 718.401 341.538 725.538 341.538Z" fill="#5FC782"/>
<path fill-rule="evenodd" clip-rule="evenodd" d="M719.594 327.083C719.594 326.853 719.685 326.631 719.848 326.467C720.01 326.304 720.231 326.211 720.462 326.209H722.923C723.155 326.209 723.377 326.301 723.541 326.465C723.705 326.629 723.797 326.851 723.797 327.083C723.797 327.315 723.705 327.537 723.541 327.701C723.377 327.865 723.155 327.957 722.923 327.957H720.462C720.347 327.957 720.234 327.934 720.128 327.89C720.022 327.846 719.926 327.782 719.846 327.701C719.765 327.62 719.701 327.523 719.658 327.417C719.615 327.311 719.593 327.198 719.594 327.083ZM733.815 328.505C733.816 328.318 733.78 328.133 733.709 327.96C733.638 327.787 733.533 327.63 733.401 327.498C733.269 327.366 733.112 327.261 732.939 327.19C732.766 327.119 732.581 327.082 732.394 327.083H725.674C725.298 327.086 724.939 327.237 724.674 327.504C724.41 327.77 724.26 328.129 724.258 328.505V328.542H718.892V324.179C718.875 323.975 718.781 323.785 718.63 323.646C718.479 323.508 718.282 323.431 718.077 323.431C717.872 323.431 717.675 323.508 717.524 323.646C717.373 323.785 717.279 323.975 717.262 324.179V333.052C717.279 333.256 717.373 333.446 717.524 333.585C717.675 333.723 717.872 333.8 718.077 333.8C718.282 333.8 718.479 333.723 718.63 333.585C718.781 333.446 718.875 333.256 718.892 333.052V330.874H732.185V333.046C732.175 333.159 732.189 333.273 732.225 333.381C732.262 333.488 732.32 333.587 732.397 333.67C732.473 333.754 732.567 333.821 732.67 333.866C732.774 333.912 732.887 333.936 733 333.936C733.113 333.936 733.226 333.912 733.33 333.866C733.433 333.821 733.527 333.754 733.603 333.67C733.68 333.587 733.738 333.488 733.775 333.381C733.811 333.273 733.825 333.159 733.815 333.046V329.231C733.818 329.125 733.797 329.02 733.754 328.923C733.795 328.788 733.816 328.647 733.815 328.505Z" fill="white"/>
<path d="M953.231 275.077C960.368 275.077 966.154 269.291 966.154 262.154C966.154 255.017 960.368 249.231 953.231 249.231C946.094 249.231 940.308 255.017 940.308 262.154C940.308 269.291 946.094 275.077 953.231 275.077Z" fill="#E04C3F"/>
<path fill-rule="evenodd" clip-rule="evenodd" d="M961.434 259.231H959.914L958.966 257.434C958.733 256.979 958.382 256.595 957.948 256.324C957.515 256.053 957.016 255.905 956.505 255.895H950.018C949.507 255.905 949.008 256.053 948.575 256.324C948.141 256.595 947.79 256.979 947.557 257.434L946.609 259.231H945.089C944.714 259.231 944.406 259.44 944.406 259.698V260.468C944.416 260.64 944.493 260.801 944.621 260.916C944.749 261.031 944.917 261.091 945.089 261.083H945.218C945.154 261.196 945.12 261.323 945.12 261.452V265.902C945.114 266.225 945.215 266.542 945.408 266.802C945.6 267.063 945.873 267.252 946.185 267.342V267.692C946.181 267.884 946.254 268.069 946.386 268.207C946.519 268.346 946.701 268.426 946.892 268.431H948.32C948.512 268.426 948.693 268.346 948.826 268.207C948.958 268.069 949.031 267.884 949.028 267.692V267.409H957.557V267.692C957.554 267.884 957.626 268.069 957.759 268.207C957.891 268.346 958.073 268.426 958.265 268.431H959.692C959.884 268.426 960.066 268.346 960.198 268.207C960.331 268.069 960.403 267.884 960.4 267.692V267.366C960.711 267.277 960.984 267.087 961.177 266.827C961.369 266.567 961.47 266.25 961.465 265.926V261.477C961.464 261.347 961.43 261.22 961.366 261.108H961.495C961.667 261.116 961.836 261.056 961.964 260.941C962.092 260.826 962.169 260.664 962.178 260.492V259.692C962.117 259.44 961.809 259.231 961.434 259.231ZM959.981 264.425C959.972 264.633 959.901 264.834 959.779 265.002C959.656 265.171 959.487 265.299 959.291 265.372C959.096 265.446 958.884 265.46 958.681 265.413C958.477 265.367 958.292 265.262 958.148 265.111C958.004 264.96 957.908 264.771 957.871 264.566C957.833 264.361 957.857 264.149 957.939 263.957C958.021 263.766 958.157 263.602 958.331 263.487C958.505 263.372 958.708 263.311 958.917 263.311C959.062 263.312 959.204 263.341 959.338 263.398C959.471 263.454 959.591 263.537 959.692 263.641C959.793 263.744 959.872 263.867 959.925 264.002C959.978 264.136 960.003 264.28 960 264.425H959.981ZM947.821 259.194L948.486 258.062C948.701 257.708 949.004 257.417 949.365 257.216C949.727 257.015 950.134 256.912 950.548 256.917H955.914C956.327 256.912 956.735 257.015 957.096 257.216C957.458 257.417 957.761 257.708 957.975 258.062L958.64 259.194L959.403 260.492H947.077L947.821 259.194ZM947.545 263.311C947.767 263.301 947.987 263.358 948.176 263.474C948.366 263.59 948.516 263.761 948.608 263.963C948.7 264.166 948.729 264.391 948.692 264.61C948.655 264.829 948.553 265.032 948.399 265.193C948.245 265.354 948.047 265.465 947.83 265.512C947.613 265.559 947.386 265.54 947.18 265.458C946.973 265.375 946.796 265.232 946.672 265.048C946.547 264.864 946.48 264.647 946.48 264.425C946.477 264.282 946.502 264.139 946.553 264.006C946.605 263.872 946.683 263.751 946.782 263.647C946.88 263.544 946.999 263.461 947.13 263.403C947.26 263.345 947.402 263.314 947.545 263.311ZM955.009 264.794H951.452C951.405 264.793 951.358 264.783 951.315 264.764C951.271 264.745 951.232 264.717 951.199 264.683C951.167 264.648 951.141 264.608 951.125 264.564C951.108 264.519 951.1 264.472 951.102 264.425C951.1 264.377 951.108 264.33 951.125 264.286C951.141 264.241 951.167 264.201 951.199 264.166C951.232 264.132 951.271 264.105 951.315 264.085C951.358 264.066 951.405 264.056 951.452 264.055H955.009C955.057 264.056 955.103 264.066 955.147 264.085C955.19 264.105 955.229 264.132 955.262 264.166C955.295 264.201 955.32 264.241 955.337 264.286C955.354 264.33 955.362 264.377 955.36 264.425C955.362 264.472 955.354 264.519 955.337 264.564C955.32 264.608 955.295 264.648 955.262 264.683C955.229 264.717 955.19 264.745 955.147 264.764C955.103 264.783 955.057 264.793 955.009 264.794Z" fill="white"/>
<path d="M865.846 197.539C872.983 197.539 878.769 191.753 878.769 184.615C878.769 177.478 872.983 171.692 865.846 171.692C858.709 171.692 852.923 177.478 852.923 184.615C852.923 191.753 858.709 197.539 865.846 197.539Z" fill="#26C6DA"/>
<path fill-rule="evenodd" clip-rule="evenodd" d="M865.994 179.151C866.324 179.145 866.644 179.041 866.915 178.854C867.187 178.666 867.396 178.403 867.518 178.096C867.64 177.79 867.669 177.455 867.601 177.132C867.533 176.809 867.371 176.514 867.136 176.283C866.901 176.052 866.602 175.895 866.279 175.833C865.955 175.771 865.62 175.806 865.316 175.934C865.012 176.061 864.752 176.276 864.569 176.55C864.387 176.825 864.289 177.147 864.289 177.477C864.291 177.699 864.336 177.918 864.423 178.123C864.51 178.327 864.636 178.512 864.794 178.668C864.952 178.823 865.14 178.946 865.346 179.029C865.552 179.112 865.772 179.153 865.994 179.151ZM870.942 192L869.249 187.951C869.195 187.825 869.117 187.71 869.022 187.612L867.434 186.062V184.831L869.114 186.332C869.295 186.495 869.532 186.58 869.774 186.569C870.017 186.559 870.246 186.454 870.412 186.277C870.493 186.19 870.556 186.087 870.596 185.976C870.637 185.864 870.655 185.746 870.649 185.627C870.644 185.508 870.614 185.392 870.563 185.285C870.512 185.178 870.44 185.082 870.351 185.003L867.434 182.382V181.114C867.434 180.731 867.282 180.364 867.013 180.093C866.743 179.822 866.376 179.669 865.994 179.668H865.723L865.612 179.698H865.483L865.391 179.735L861.772 181.182C861.6 181.252 861.449 181.367 861.335 181.516C861.222 181.664 861.149 181.839 861.126 182.025L860.757 185.243C860.746 185.509 860.837 185.769 861.01 185.971C861.183 186.173 861.427 186.301 861.691 186.331C861.956 186.361 862.221 186.289 862.435 186.13C862.649 185.972 862.795 185.739 862.843 185.477L863.145 182.862L864.548 182.295V186.135C864.541 186.219 864.541 186.304 864.548 186.388L863.317 188.929L860.917 191.551C860.825 191.651 860.754 191.768 860.709 191.895C860.663 192.023 860.643 192.158 860.651 192.294C860.658 192.429 860.693 192.562 860.752 192.683C860.812 192.805 860.895 192.914 860.997 193.003C861.206 193.186 861.478 193.279 861.755 193.264C862.032 193.249 862.292 193.127 862.48 192.923L864.978 190.197C865.045 190.123 865.101 190.04 865.145 189.951L866.215 187.742L867.36 188.862L868.972 192.72C869.083 192.973 869.289 193.173 869.545 193.278C869.801 193.383 870.088 193.383 870.345 193.28C870.59 193.185 870.789 192.998 870.9 192.76C871.011 192.521 871.026 192.249 870.942 192Z" fill="white"/>
<path d="M953.231 131.077C960.368 131.077 966.154 125.291 966.154 118.154C966.154 111.017 960.368 105.231 953.231 105.231C946.094 105.231 940.308 111.017 940.308 118.154C940.308 125.291 946.094 131.077 953.231 131.077Z" fill="#F7971C"/>
<path fill-rule="evenodd" clip-rule="evenodd" d="M951.575 115.563C951.59 115.239 951.699 114.927 951.89 114.664C952.08 114.402 952.343 114.201 952.647 114.087C952.95 113.973 953.28 113.951 953.597 114.023C953.913 114.095 954.201 114.258 954.425 114.492C954.649 114.726 954.8 115.021 954.858 115.34C954.916 115.659 954.879 115.988 954.752 116.286C954.625 116.584 954.413 116.839 954.142 117.018C953.872 117.196 953.555 117.292 953.231 117.292C952.782 117.281 952.357 117.093 952.047 116.769C951.736 116.445 951.567 116.011 951.575 115.563ZM958.406 115.865C958.44 115.164 958.332 114.463 958.087 113.805C957.842 113.148 957.467 112.547 956.983 112.039C956.499 111.53 955.917 111.126 955.272 110.849C954.627 110.573 953.932 110.431 953.231 110.431C952.529 110.431 951.835 110.573 951.19 110.849C950.545 111.126 949.963 111.53 949.479 112.039C948.995 112.547 948.619 113.148 948.374 113.805C948.13 114.463 948.021 115.164 948.055 115.865C948.055 119.981 953.231 125.926 953.231 125.926C953.231 125.926 958.406 120 958.406 115.865Z" fill="white"/>
<path d="M1049.85 82.4615C1056.98 82.4615 1062.77 76.6756 1062.77 69.5384C1062.77 62.4012 1056.98 56.6154 1049.85 56.6154C1042.71 56.6154 1036.92 62.4012 1036.92 69.5384C1036.92 76.6756 1042.71 82.4615 1049.85 82.4615Z" fill="#0782C5"/>
<path fill-rule="evenodd" clip-rule="evenodd" d="M1053.54 74.0616C1053.72 74.058 1053.89 74.0019 1054.04 73.9003C1054.18 73.7987 1054.3 73.6562 1054.36 73.4906C1054.43 73.325 1054.44 73.1437 1054.4 72.9695C1054.37 72.7952 1054.28 72.6358 1054.15 72.5111C1054.03 72.3864 1053.86 72.3021 1053.69 72.2687C1053.51 72.2352 1053.33 72.2542 1053.17 72.3232C1053.01 72.3921 1052.87 72.5081 1052.77 72.6564C1052.67 72.8047 1052.62 72.9789 1052.62 73.157C1052.62 73.3991 1052.72 73.6301 1052.89 73.7996C1053.06 73.9691 1053.3 74.0633 1053.54 74.0616ZM1046.52 74.0616C1046.7 74.058 1046.87 74.0019 1047.02 73.9003C1047.17 73.7987 1047.28 73.6562 1047.35 73.4906C1047.41 73.325 1047.43 73.1437 1047.39 72.9695C1047.35 72.7952 1047.27 72.6358 1047.14 72.5111C1047.01 72.3864 1046.85 72.3021 1046.67 72.2687C1046.5 72.2352 1046.32 72.2542 1046.15 72.3232C1045.99 72.3921 1045.85 72.5081 1045.75 72.6564C1045.65 72.8047 1045.6 72.9789 1045.6 73.157C1045.6 73.3991 1045.7 73.6301 1045.88 73.7996C1046.05 73.9691 1046.28 74.0633 1046.52 74.0616ZM1049.85 63.7478C1049.99 63.7453 1050.13 63.7005 1050.25 63.619C1050.36 63.5375 1050.46 63.4229 1050.51 63.2896C1050.56 63.1564 1050.57 63.0105 1050.54 62.8703C1050.51 62.7301 1050.44 62.6019 1050.34 62.5018C1050.24 62.4017 1050.11 62.3343 1049.97 62.3079C1049.83 62.2816 1049.68 62.2976 1049.55 62.3538C1049.42 62.4101 1049.3 62.5041 1049.23 62.624C1049.15 62.7439 1049.11 62.8844 1049.11 63.0278C1049.11 63.1237 1049.13 63.2184 1049.17 63.3066C1049.2 63.3948 1049.26 63.4747 1049.33 63.5417C1049.4 63.6086 1049.48 63.6613 1049.57 63.6967C1049.66 63.732 1049.75 63.7494 1049.85 63.7478ZM1044.86 66.2832C1044.86 66.0911 1044.9 65.9013 1044.98 65.7245C1045.05 65.5478 1045.16 65.3876 1045.3 65.2533C1045.44 65.1189 1045.6 65.013 1045.78 64.9415C1045.96 64.8701 1046.15 64.8346 1046.34 64.837H1053.35C1053.55 64.8346 1053.74 64.8701 1053.91 64.9415C1054.09 65.013 1054.26 65.1189 1054.39 65.2533C1054.53 65.3876 1054.64 65.5478 1054.71 65.7245C1054.79 65.9013 1054.83 66.0911 1054.83 66.2832V67.7293C1054.83 68.1132 1054.75 68.4925 1054.6 68.8456C1054.45 69.1987 1054.23 69.5187 1053.95 69.7873C1053.68 70.0559 1053.35 70.2678 1053 70.4109C1052.64 70.5541 1052.26 70.6257 1051.88 70.6216H1047.82C1047.43 70.6257 1047.05 70.5541 1046.69 70.4109C1046.34 70.2678 1046.01 70.0559 1045.74 69.7873C1045.47 69.5187 1045.25 69.1987 1045.1 68.8456C1044.95 68.4925 1044.87 68.1132 1044.86 67.7293V66.2832ZM1045.56 75.8955C1044.91 75.5657 1044.36 75.0625 1043.98 74.4414C1043.59 73.8202 1043.39 73.1053 1043.38 72.3755V65.2985C1043.38 61.8032 1046.28 60.8555 1049.85 60.8555C1053.42 60.8555 1056.31 61.8032 1056.31 65.2985V72.3755C1056.3 73.0935 1056.11 73.797 1055.73 74.4114C1055.36 75.0257 1054.83 75.5279 1054.2 75.8647C1054.22 75.8878 1054.23 75.9125 1054.25 75.9385L1055.31 77.6062C1055.53 77.9447 1055.37 78.2216 1054.97 78.2216H1044.81C1044.4 78.2216 1044.25 77.9447 1044.46 77.6062L1045.53 75.9385V75.8955M1046.46 76.8185C1046.46 76.6553 1046.52 76.4988 1046.64 76.3834C1046.75 76.268 1046.91 76.2032 1047.07 76.2032H1052.5C1052.67 76.2032 1052.83 76.2703 1052.95 76.3897C1053.07 76.5092 1053.14 76.6712 1053.14 76.8401C1053.14 77.009 1053.07 77.171 1052.95 77.2905C1052.83 77.4099 1052.67 77.477 1052.5 77.477H1047.07C1046.99 77.4731 1046.91 77.4529 1046.83 77.4175C1046.76 77.3821 1046.69 77.3322 1046.64 77.2709C1046.59 77.2095 1046.54 77.1379 1046.52 77.0602C1046.49 76.9826 1046.48 76.9004 1046.49 76.8185H1046.46Z" fill="white"/>
<path d="M103.385 286.769C110.522 286.769 116.308 280.984 116.308 273.846C116.308 266.709 110.522 260.923 103.385 260.923C96.2474 260.923 90.4615 266.709 90.4615 273.846C90.4615 280.984 96.2474 286.769 103.385 286.769Z" fill="#5FC782"/>
<path fill-rule="evenodd" clip-rule="evenodd" d="M111.766 269.077C111.418 268.799 110.98 268.657 110.535 268.677C109.878 268.703 109.232 268.857 108.634 269.132L100.714 272.825L97.8462 274.166L97.7662 274.197H97.5323C97.4203 274.138 97.3132 274.07 97.2123 273.994L97.04 273.858L96.7692 273.637L96.6954 273.582L96.5108 273.44L96.4616 273.397L96.2462 273.243L96.2031 273.212L96.0492 273.108L95.6246 272.874L95.5077 272.812C95.4592 272.784 95.4076 272.761 95.3539 272.745L95.2431 272.702C95.155 272.677 95.0636 272.667 94.9723 272.671C94.9151 272.664 94.8572 272.664 94.8 272.671C94.7477 272.68 94.6975 272.698 94.6523 272.726C94.5798 272.763 94.5238 272.826 94.4954 272.902C94.4669 272.979 94.468 273.063 94.4985 273.138C94.5354 273.298 95.7969 275.44 95.7969 275.44C95.7969 275.44 96.3077 276.375 96.9539 276.505L97.2615 276.474H97.3292L97.6431 276.431H97.7477L98.0123 276.382L98.1662 276.351L98.4431 276.295L98.6277 276.252L98.88 276.191L99.1877 276.111L99.3477 276.068L99.8523 275.926H99.9446L100.265 275.828H100.338L100.954 275.618L101.065 275.582L101.822 275.311L102.486 280.492C102.483 280.536 102.49 280.579 102.509 280.619C102.527 280.658 102.555 280.692 102.59 280.718C102.626 280.743 102.667 280.759 102.71 280.763C102.753 280.768 102.797 280.762 102.837 280.745C103.465 280.448 103.979 279.956 104.302 279.342C104.511 278.825 106.437 274.418 107.028 273.089L107.095 273.052C110.425 271.465 110.997 271.126 111.403 270.738C111.569 270.591 112.369 269.969 112.129 269.6C112.049 269.401 111.925 269.222 111.766 269.077Z" fill="white"/>
<path fill-rule="evenodd" clip-rule="evenodd" d="M98.32 270.585L100.265 272.554L103.625 270.997C102.511 270.64 101.163 270.215 100.462 270.018C99.9311 269.84 99.3666 269.787 98.8123 269.865C98.6026 269.939 98.3971 270.026 98.1969 270.123C97.8954 270.265 98.3015 270.585 98.3015 270.585" fill="white"/>
<path d="M128.615 49.8462C135.753 49.8462 141.538 44.0603 141.538 36.9231C141.538 29.7859 135.753 24 128.615 24C121.478 24 115.692 29.7859 115.692 36.9231C115.692 44.0603 121.478 49.8462 128.615 49.8462Z" fill="#E04C3F"/>
<path fill-rule="evenodd" clip-rule="evenodd" d="M136 32.3015C135.924 32.3047 135.849 32.3214 135.778 32.3508V30.8246C135.779 30.5949 135.735 30.3672 135.647 30.1548C135.56 29.9424 135.431 29.7494 135.268 29.587C135.106 29.4245 134.913 29.2958 134.701 29.2083C134.488 29.1208 134.26 29.0761 134.031 29.0769H123.182C122.718 29.0769 122.273 29.261 121.946 29.5888C121.618 29.9166 121.434 30.3611 121.434 30.8246V32.3508C121.363 32.3214 121.288 32.3047 121.212 32.3015C121.124 32.3015 121.036 32.3191 120.954 32.3532C120.872 32.3873 120.798 32.4372 120.736 32.5002C120.673 32.5631 120.624 32.6378 120.591 32.7199C120.557 32.802 120.541 32.8898 120.542 32.9785V35.7785C120.541 35.8671 120.557 35.9549 120.591 36.037C120.624 36.1191 120.673 36.1938 120.736 36.2567C120.798 36.3197 120.872 36.3696 120.954 36.4037C121.036 36.4378 121.124 36.4554 121.212 36.4554C121.288 36.4548 121.363 36.4402 121.434 36.4123V41.6246C121.433 41.9676 121.533 42.3032 121.723 42.589C121.912 42.8749 122.182 43.0982 122.498 43.2308H122.332C122.313 43.4442 122.341 43.6593 122.417 43.86C122.492 44.0607 122.611 44.2419 122.766 44.3898C122.922 44.5378 123.108 44.6488 123.312 44.7145C123.516 44.7802 123.732 44.7989 123.945 44.7692C124.14 44.7957 124.339 44.7788 124.527 44.7198C124.715 44.6607 124.887 44.561 125.033 44.4276C125.178 44.2942 125.292 44.1305 125.366 43.9481C125.441 43.7657 125.475 43.5691 125.465 43.3723H131.766C131.766 43.5741 131.809 43.7736 131.893 43.9574C131.976 44.1411 132.098 44.3047 132.251 44.4371C132.403 44.5696 132.582 44.6678 132.775 44.7251C132.969 44.7824 133.172 44.7974 133.372 44.7692C133.58 44.7969 133.792 44.7761 133.991 44.7084C134.189 44.6407 134.37 44.5279 134.517 44.3789C134.665 44.2299 134.776 44.0487 134.843 43.8496C134.909 43.6504 134.928 43.4386 134.898 43.2308H134.732C135.047 43.0962 135.316 42.8724 135.505 42.587C135.694 42.3016 135.796 41.967 135.797 41.6246V36.4123C135.867 36.4402 135.943 36.4548 136.018 36.4554C136.107 36.4554 136.195 36.4378 136.277 36.4037C136.358 36.3696 136.433 36.3197 136.495 36.2567C136.557 36.1938 136.607 36.1191 136.64 36.037C136.673 35.9549 136.69 35.8671 136.689 35.7785V32.9846C136.691 32.8939 136.674 32.8038 136.64 32.7198C136.606 32.6357 136.555 32.5595 136.491 32.4956C136.426 32.4318 136.35 32.3816 136.265 32.3483C136.181 32.3149 136.091 32.299 136 32.3015ZM125.698 30H131.945C132.115 30.0004 132.279 30.0632 132.406 30.1767C132.533 30.2901 132.614 30.4462 132.634 30.6154V30.6892C132.634 30.8695 132.564 31.0427 132.439 31.1724C132.314 31.3022 132.143 31.3782 131.963 31.3846H125.717C125.545 31.3683 125.384 31.2884 125.268 31.1603C125.151 31.0323 125.087 30.8654 125.087 30.6923C125.087 30.5192 125.151 30.3523 125.268 30.2243C125.384 30.0962 125.545 30.0163 125.717 30H125.698ZM122.763 34.0554C122.763 33.5913 122.947 33.1461 123.275 32.8174C123.602 32.4887 124.047 32.3032 124.511 32.3015H132.683C132.913 32.3015 133.141 32.3469 133.353 32.4352C133.566 32.5234 133.759 32.6527 133.921 32.8156C134.083 32.9785 134.212 33.1719 134.299 33.3847C134.387 33.5974 134.432 33.8253 134.431 34.0554V36.0861C134.431 36.5502 134.247 36.9954 133.919 37.3241C133.592 37.6529 133.147 37.8384 132.683 37.84H124.529C124.299 37.84 124.071 37.7946 123.859 37.7064C123.647 37.6182 123.454 37.4889 123.291 37.3259C123.129 37.163 123 36.9696 122.913 36.7568C122.825 36.5441 122.781 36.3162 122.782 36.0861L122.763 34.0554ZM133.982 41.0646C133.977 41.2412 133.92 41.4124 133.818 41.5569C133.717 41.7014 133.575 41.8127 133.41 41.8769C133.246 41.9412 133.066 41.9555 132.893 41.9181C132.721 41.8807 132.563 41.7932 132.44 41.6667C132.316 41.5401 132.233 41.38 132.2 41.2064C132.168 41.0328 132.187 40.8535 132.256 40.6907C132.324 40.528 132.439 40.3891 132.587 40.2914C132.734 40.1937 132.906 40.1416 133.083 40.1415C133.204 40.1407 133.324 40.1641 133.436 40.2102C133.548 40.2564 133.65 40.3245 133.735 40.4104C133.821 40.4964 133.888 40.5985 133.934 40.7109C133.979 40.8232 134.002 40.9435 134 41.0646H133.982ZM125.009 41.0646C125.004 41.2412 124.948 41.4124 124.846 41.5569C124.744 41.7014 124.602 41.8127 124.438 41.8769C124.273 41.9412 124.093 41.9555 123.921 41.9181C123.748 41.8807 123.59 41.7932 123.467 41.6667C123.344 41.5401 123.261 41.38 123.228 41.2064C123.195 41.0328 123.215 40.8535 123.283 40.6907C123.352 40.528 123.467 40.3891 123.614 40.2914C123.761 40.1937 123.934 40.1416 124.111 40.1415C124.232 40.1407 124.352 40.1641 124.464 40.2102C124.576 40.2564 124.678 40.3245 124.763 40.4104C124.849 40.4964 124.916 40.5985 124.961 40.7109C125.007 40.8232 125.029 40.9435 125.028 41.0646H125.009Z" fill="white"/>
<path d="M12.9231 119.385C20.0603 119.385 25.8462 113.599 25.8462 106.462C25.8462 99.3243 20.0603 93.5385 12.9231 93.5385C5.78586 93.5385 0 99.3243 0 106.462C0 113.599 5.78586 119.385 12.9231 119.385Z" fill="#0782C5"/>
<path fill-rule="evenodd" clip-rule="evenodd" d="M11.1446 102.769C11.1476 102.806 11.1476 102.843 11.1446 102.88V103.588C11.1199 103.849 11.0282 104.1 10.8784 104.315C10.7286 104.531 10.5256 104.704 10.2892 104.818L9.74768 105.077H9.64306L9.7846 114.166C9.7846 114.523 9.34768 114.683 8.99691 114.683C8.64614 114.683 8.20921 114.523 8.20921 114.166L8.35076 105.077H8.24614L7.7046 104.818C7.47042 104.702 7.26966 104.528 7.12112 104.313C6.97259 104.097 6.88115 103.848 6.85537 103.588V102.88C6.85232 102.843 6.85232 102.806 6.85537 102.769C6.84901 102.741 6.84901 102.711 6.85537 102.683L7.08306 98.5662C7.08306 98.3692 7.18768 98.2092 7.29229 98.2092C7.39691 98.2092 7.48922 98.3692 7.50153 98.5662L7.7046 102.068V102.375C7.71699 102.481 7.77035 102.578 7.8532 102.644C7.93606 102.711 8.04179 102.743 8.14768 102.732C8.25256 102.741 8.35672 102.709 8.43822 102.642C8.51973 102.576 8.5722 102.48 8.5846 102.375V102.074L8.78152 98.5662C8.78152 98.3692 8.88614 98.2092 8.99076 98.2092C9.09537 98.2092 9.18768 98.3692 9.19998 98.5662L9.40922 102.074V102.375C9.42161 102.48 9.47409 102.576 9.55559 102.642C9.6371 102.709 9.74126 102.741 9.84614 102.732C9.95102 102.741 10.0552 102.709 10.1367 102.642C10.2182 102.576 10.2707 102.48 10.2831 102.375V102.037L10.4738 98.5662C10.4738 98.3692 10.5784 98.2092 10.6831 98.2092C10.7877 98.2092 10.88 98.3692 10.8923 98.5662L11.1385 102.683C11.1439 102.711 11.146 102.74 11.1446 102.769ZM18.9784 101.674C18.9784 99.76 17.7477 98.2092 16.2031 98.2092C14.6584 98.2092 13.4277 99.76 13.4277 101.674C13.4277 103.292 14.32 104.652 15.52 105.034L15.3846 114.142C15.3846 114.492 15.8461 114.652 16.2154 114.652C16.5846 114.652 17.0523 114.492 17.0523 114.142L16.8985 105.04C18.0923 104.658 18.9784 103.298 18.9784 101.68V101.674Z" fill="white"/>
<path d="M262.154 147.077H259.692C259.692 132.997 256.775 127.662 250.819 122.745C246.086 118.837 243.686 113.514 243.686 106.923C243.692 97.8462 251.422 90.4615 260.923 90.4615C270.271 90.4615 278 97.7231 278.154 106.652V106.917C278.154 113.514 275.754 118.837 271.022 122.745C265.065 127.662 262.154 132.997 262.154 147.077Z" fill="#5FC782"/>
<path d="M260.923 96C258.611 96 256.35 96.6857 254.427 97.9705C252.504 99.2553 251.006 101.081 250.121 103.218C249.236 105.354 249.004 107.705 249.455 109.973C249.907 112.241 251.02 114.325 252.655 115.96C254.291 117.595 256.374 118.709 258.642 119.16C260.91 119.611 263.261 119.38 265.398 118.495C267.534 117.61 269.36 116.111 270.645 114.188C271.93 112.265 272.615 110.005 272.615 107.692C272.615 104.591 271.384 101.617 269.191 99.4246C266.998 97.2319 264.024 96 260.923 96Z" fill="white"/>
<path fill-rule="evenodd" clip-rule="evenodd" d="M263.822 111.224C263.961 111.221 264.096 111.176 264.21 111.096C264.324 111.016 264.411 110.905 264.462 110.775C264.513 110.645 264.524 110.504 264.495 110.368C264.466 110.232 264.397 110.107 264.297 110.01C264.197 109.913 264.071 109.847 263.935 109.822C263.798 109.796 263.656 109.811 263.528 109.865C263.4 109.919 263.291 110.01 263.214 110.126C263.137 110.242 263.096 110.378 263.095 110.517C263.096 110.611 263.116 110.704 263.153 110.791C263.19 110.878 263.244 110.956 263.311 111.022C263.379 111.088 263.458 111.14 263.546 111.174C263.634 111.209 263.727 111.226 263.822 111.224ZM258.283 111.224C258.422 111.221 258.557 111.176 258.671 111.096C258.785 111.016 258.873 110.905 258.924 110.775C258.974 110.645 258.986 110.504 258.956 110.368C258.927 110.232 258.858 110.107 258.759 110.01C258.659 109.913 258.533 109.847 258.396 109.822C258.259 109.796 258.118 109.811 257.99 109.865C257.862 109.919 257.752 110.01 257.675 110.126C257.598 110.242 257.557 110.378 257.557 110.517C257.558 110.611 257.577 110.704 257.614 110.791C257.651 110.878 257.705 110.956 257.773 111.022C257.84 111.088 257.92 111.14 258.008 111.174C258.095 111.209 258.189 111.226 258.283 111.224ZM260.923 103.169C261.035 103.167 261.143 103.131 261.234 103.068C261.326 103.004 261.396 102.915 261.437 102.811C261.478 102.708 261.488 102.594 261.465 102.485C261.441 102.376 261.386 102.276 261.307 102.198C261.227 102.12 261.126 102.068 261.017 102.047C260.907 102.026 260.794 102.038 260.691 102.081C260.589 102.124 260.501 102.197 260.439 102.29C260.378 102.383 260.345 102.491 260.345 102.603C260.345 102.678 260.361 102.752 260.391 102.821C260.42 102.891 260.463 102.953 260.517 103.006C260.57 103.058 260.634 103.1 260.704 103.128C260.773 103.156 260.848 103.17 260.923 103.169ZM257.009 105.144C257.011 104.994 257.042 104.846 257.101 104.708C257.16 104.57 257.246 104.445 257.354 104.341C257.461 104.236 257.588 104.154 257.728 104.098C257.867 104.043 258.016 104.016 258.166 104.018H263.705C263.855 104.016 264.004 104.043 264.143 104.098C264.283 104.154 264.41 104.236 264.517 104.341C264.625 104.445 264.711 104.57 264.77 104.708C264.829 104.846 264.86 104.994 264.862 105.144V106.277C264.853 106.884 264.605 107.464 264.17 107.889C263.735 108.313 263.149 108.548 262.542 108.541H259.354C258.746 108.548 258.161 108.313 257.726 107.889C257.291 107.464 257.042 106.884 257.034 106.277V105.144M257.575 112.658C257.064 112.403 256.633 112.011 256.332 111.525C256.031 111.039 255.871 110.479 255.871 109.908V104.369C255.871 101.637 258.142 100.898 260.948 100.898C263.754 100.898 266.025 101.637 266.025 104.369V109.908C266.025 110.472 265.87 111.025 265.577 111.506C265.284 111.988 264.864 112.38 264.363 112.64L264.406 112.695L265.243 114C265.409 114.264 265.286 114.48 264.966 114.48H256.966C256.646 114.48 256.523 114.264 256.695 114L257.532 112.695V112.658M258.265 113.378C258.266 113.247 258.319 113.121 258.412 113.028C258.506 112.934 258.631 112.881 258.763 112.88H263.071C263.203 112.88 263.33 112.932 263.423 113.026C263.517 113.119 263.569 113.246 263.569 113.378C263.569 113.511 263.517 113.637 263.423 113.731C263.33 113.824 263.203 113.877 263.071 113.877H258.763C258.634 113.872 258.512 113.817 258.423 113.724C258.333 113.631 258.283 113.507 258.283 113.378H258.265Z" fill="black"/>
<path d="M375.385 224H372.923C372.923 209.92 370.006 204.585 364.049 199.668C359.317 195.76 356.917 190.437 356.917 183.846C356.923 174.769 364.652 167.385 374.154 167.385C383.502 167.385 391.231 174.646 391.385 183.575V183.84C391.385 190.437 388.985 195.76 384.252 199.668C378.295 204.585 375.385 209.92 375.385 224Z" fill="#209DB2"/>
<path d="M374.154 172.923C371.841 172.923 369.581 173.609 367.658 174.893C365.735 176.178 364.237 178.004 363.352 180.141C362.467 182.277 362.235 184.628 362.686 186.896C363.137 189.164 364.251 191.248 365.886 192.883C367.521 194.518 369.605 195.632 371.873 196.083C374.141 196.534 376.492 196.303 378.628 195.418C380.765 194.533 382.591 193.034 383.876 191.111C385.16 189.188 385.846 186.928 385.846 184.615C385.846 181.514 384.614 178.54 382.422 176.348C380.229 174.155 377.255 172.923 374.154 172.923Z" fill="white"/>
<path fill-rule="evenodd" clip-rule="evenodd" d="M370.166 184.105H372.098C372.269 184.088 372.428 184.009 372.543 183.882C372.659 183.755 372.723 183.59 372.723 183.418C372.723 183.247 372.659 183.082 372.543 182.955C372.428 182.828 372.269 182.748 372.098 182.732H370.166C369.995 182.748 369.837 182.828 369.721 182.955C369.606 183.082 369.542 183.247 369.542 183.418C369.542 183.59 369.606 183.755 369.721 183.882C369.837 184.009 369.995 184.088 370.166 184.105Z" fill="black"/>
<path fill-rule="evenodd" clip-rule="evenodd" d="M380.659 184.529C380.659 184.235 380.542 183.954 380.334 183.746C380.126 183.538 379.845 183.422 379.551 183.422H374.252C374.107 183.421 373.962 183.449 373.828 183.504C373.693 183.56 373.57 183.641 373.467 183.744C373.364 183.847 373.283 183.97 373.227 184.104C373.172 184.239 373.144 184.384 373.145 184.529V184.56H368.929V181.157C368.928 180.991 368.864 180.832 368.749 180.712C368.635 180.592 368.479 180.52 368.314 180.511C368.23 180.511 368.148 180.528 368.071 180.56C367.994 180.593 367.925 180.641 367.868 180.702C367.81 180.762 367.765 180.834 367.736 180.912C367.707 180.99 367.694 181.074 367.699 181.157V188.074C367.699 188.244 367.766 188.408 367.887 188.529C368.008 188.649 368.171 188.717 368.342 188.717C368.512 188.717 368.676 188.649 368.796 188.529C368.917 188.408 368.985 188.244 368.985 188.074V186.382H379.446V188.08C379.446 188.251 379.514 188.414 379.635 188.535C379.755 188.655 379.919 188.723 380.089 188.723C380.26 188.723 380.423 188.655 380.544 188.535C380.665 188.414 380.732 188.251 380.732 188.08V185.083C380.732 185.001 380.716 184.919 380.683 184.843C380.688 184.738 380.68 184.632 380.659 184.529Z" fill="black"/>
<path d="M812.308 137.846H809.846C809.846 123.766 806.929 118.431 800.972 113.514C796.24 109.606 793.84 104.283 793.84 97.6924C793.84 88.6155 801.569 81.2308 811.071 81.2308C820.419 81.2308 828.148 88.4924 828.302 97.4216V97.6862C828.302 104.283 825.902 109.606 821.169 113.514C815.219 118.431 812.308 123.766 812.308 137.846Z" fill="#E04C3F"/>
<path d="M811.077 86.7693C808.765 86.7693 806.504 87.455 804.581 88.7398C802.658 90.0246 801.16 91.8507 800.275 93.9871C799.39 96.1236 799.158 98.4746 799.609 100.743C800.061 103.011 801.174 105.094 802.809 106.729C804.444 108.365 806.528 109.478 808.796 109.929C811.064 110.38 813.415 110.149 815.551 109.264C817.688 108.379 819.514 106.88 820.799 104.957C822.084 103.035 822.769 100.774 822.769 98.4616C822.769 95.3606 821.537 92.3866 819.345 90.1939C817.152 88.0012 814.178 86.7693 811.077 86.7693Z" fill="white"/>
<path fill-rule="evenodd" clip-rule="evenodd" d="M807.495 94.7016C807.932 94.6408 808.376 94.6808 808.794 94.8185C809.366 94.9724 810.406 95.3047 811.255 95.5878L808.615 96.8185L807.083 95.2801C807.083 95.2801 806.769 95.0339 807.003 94.9231C807.237 94.8124 807.495 94.7016 807.495 94.7016ZM816.726 93.7724C817.078 93.7558 817.423 93.8673 817.699 94.0862C817.831 94.175 817.945 94.2902 818.031 94.4247C818.222 94.7139 817.594 95.2001 817.465 95.317C817.12 95.6185 816.677 95.8831 814.062 97.1262H814.006C813.545 98.1785 812.025 101.612 811.865 102.019C811.61 102.497 811.206 102.88 810.714 103.108C810.683 103.124 810.649 103.131 810.614 103.129C810.58 103.126 810.547 103.115 810.518 103.095C810.49 103.076 810.467 103.049 810.453 103.017C810.439 102.986 810.433 102.951 810.437 102.917L809.92 98.8678L809.305 99.077L809.218 99.1078L808.72 99.2678L808.468 99.3416H808.394L808 99.4524L807.877 99.4831L807.631 99.5447L807.434 99.5939L807.292 99.6247L807.071 99.6739H806.948L806.745 99.7108H806.665L806.419 99.7478H806.117C805.612 99.6493 805.212 98.917 805.212 98.917C805.212 98.917 804.222 97.2431 804.191 97.1201C804.166 97.0609 804.165 96.9947 804.187 96.9345C804.208 96.8742 804.251 96.8241 804.308 96.7939L804.431 96.7508C804.476 96.7439 804.521 96.7439 804.566 96.7508C804.635 96.7389 804.706 96.7389 804.775 96.7508H804.868L804.985 96.8062L805.077 96.8554L805.409 97.0401C805.453 97.063 805.494 97.0898 805.532 97.1201L805.699 97.237H805.742L805.889 97.3539L805.945 97.397L806.16 97.5693L806.289 97.6739C806.371 97.7338 806.458 97.7873 806.548 97.8339H806.788L809.015 96.8001L815.2 94.1539C815.671 93.9298 816.181 93.8002 816.702 93.7724H816.726Z" fill="black"/>
<path d="M954.462 56.6154H952C952 42.5354 949.083 37.2 943.126 32.2831C938.394 28.3754 935.994 23.0523 935.994 16.4615C936 7.38462 943.729 0 953.231 0C962.578 0 970.308 7.26154 970.462 16.1908V16.4554C970.462 23.0523 968.062 28.3754 963.329 32.2831C957.372 37.2 954.462 42.5354 954.462 56.6154Z" fill="#5FC782"/>
<path d="M953.231 5.53845C950.918 5.53845 948.658 6.22419 946.735 7.50896C944.812 8.79373 943.314 10.6198 942.429 12.7563C941.544 14.8928 941.312 17.2437 941.763 19.5118C942.214 21.7799 943.328 23.8633 944.963 25.4985C946.598 27.1337 948.682 28.2472 950.95 28.6984C953.218 29.1496 955.569 28.918 957.705 28.033C959.842 27.1481 961.668 25.6494 962.953 23.7267C964.237 21.8039 964.923 19.5433 964.923 17.2308C964.923 14.1298 963.691 11.1558 961.499 8.96305C959.306 6.77032 956.332 5.53845 953.231 5.53845Z" fill="white"/>
<path fill-rule="evenodd" clip-rule="evenodd" d="M951.834 14.3508C951.837 14.3794 951.837 14.4083 951.834 14.437V14.9908C951.813 15.1931 951.74 15.3867 951.623 15.5527C951.505 15.7187 951.347 15.8516 951.163 15.9385L950.745 16.1416L950.658 16.1723L950.769 23.2739C950.769 23.5508 950.425 23.6739 950.154 23.6739C949.883 23.6739 949.538 23.5508 949.538 23.2739L949.649 16.1723L949.569 16.1416L949.145 15.9385C948.961 15.8507 948.804 15.7175 948.686 15.5517C948.569 15.3858 948.496 15.1928 948.474 14.9908V14.437C948.471 14.4083 948.471 14.3794 948.474 14.3508C948.47 14.3284 948.47 14.3055 948.474 14.2831L948.652 11.0646C948.652 10.9108 948.732 10.7877 948.818 10.7877C948.905 10.7877 948.972 10.9108 948.978 11.0646L949.145 13.8031V14.0431C949.155 14.1247 949.197 14.1991 949.261 14.2506C949.326 14.3022 949.407 14.3271 949.489 14.32C949.571 14.3271 949.653 14.3022 949.717 14.2506C949.781 14.1991 949.823 14.1247 949.834 14.0431V13.8093L949.988 11.0646C949.988 10.9108 950.068 10.7877 950.154 10.7877C950.24 10.7877 950.308 10.9108 950.314 11.0646L950.48 13.8093V14.0431C950.491 14.1247 950.533 14.1991 950.597 14.2506C950.661 14.3022 950.743 14.3271 950.825 14.32C950.907 14.3271 950.988 14.3022 951.052 14.2506C951.117 14.1991 951.158 14.1247 951.169 14.0431V13.7785L951.323 11.0646C951.323 10.9108 951.403 10.7877 951.489 10.7877C951.575 10.7877 951.643 10.9108 951.649 11.0646L951.84 14.2831C951.844 14.3058 951.842 14.3293 951.834 14.3508ZM957.988 13.4954C957.988 12 957.015 10.7877 955.809 10.7877C954.603 10.7877 953.625 12.0185 953.625 13.4954C953.592 14.0489 953.734 14.5986 954.03 15.0675C954.326 15.5365 954.761 15.9013 955.274 16.1108L955.151 23.2308C955.151 23.5077 955.514 23.637 955.809 23.637C956.105 23.637 956.462 23.5077 956.462 23.2308L956.345 16.1108C956.857 15.9003 957.29 15.5351 957.585 15.0662C957.88 14.5973 958.02 14.0482 957.988 13.4954Z" fill="black"/>
</svg>
