<svg xmlns="http://www.w3.org/2000/svg" viewBox="0 0 500 500"><g id="freepik--character-3--inject-86"><g id="freepik--Character--inject-86"><g id="freepik--Bottom--inject-86"><path d="M295.28,329.43c6.61-5,11.21-8.93,16.15-17.15S328,284.18,328,284.18l23.13,17.57s-41.05,37.83-46.56,43.65c-2.09,3.91-6.12,8.58-6.69,16.72s-1.53,9.27-4,8.11-6-5.79-5.32-13.86,2.91-12.93,2.74-17.52S291.05,332.57,295.28,329.43Z" style="fill:#f0997a"></path><path d="M293.55,381.14c.15.28-3.49,2.35-5.55,1.57-2.39-.91-6.7-4.6-9.24-11.83-1.72-4.88-2.06-7.72-1.19-11.66s2-10.68,1.15-14.1c-.82-3.17-1.12-6.94-.71-8.33s4.37-3.41,4.37-3.41Z" style="fill:#263238"></path><path d="M298.53,326.93c-.91-.84-2.72-.27-3.61.23a81.53,81.53,0,0,1-8.68,4.06,17.86,17.86,0,0,0-5,2.95c-1.32,1.15-1.38,2.69-1.17,4.42.17,1.48.59,2.91.89,4.36a26.23,26.23,0,0,1,0,10.22c-.66,3.36-2.09,7.54-1.84,11.07a19.6,19.6,0,0,0,2.13,7.34c3.33,6.75,7.37,10.22,10.47,10.09,2.5-.1,3.73-.93,4.65-3.54a17.39,17.39,0,0,0,1.26-5.17c.06-2.51.37-6.2.54-8.71a44.51,44.51,0,0,1,2.35-10.62,14.14,14.14,0,0,1,3.64-6.49,1.24,1.24,0,0,0,.36-1.74,21.82,21.82,0,0,0-5.92-8.47,2.29,2.29,0,0,0-1-.61,2.27,2.27,0,0,0-1.29.27c-.9.39-1.75.94-2.63,1.34-.31-.37,0-.9.24-1.22a30.31,30.31,0,0,0,2.65-3.27c.66-1.19.4-2.42.41-3.72a4.37,4.37,0,0,1,.22-1.65Z" style="fill:#37474f"></path><path d="M300.71,353.33c.14.72,1,0,1-.49a10.49,10.49,0,0,0-3.57-6.85,14.92,14.92,0,0,0-3.07-2.28,6.85,6.85,0,0,0-3.57-1c-.44,0-1,.75-.24,1a14.81,14.81,0,0,1,6.06,3.36A11.46,11.46,0,0,1,300.71,353.33Zm-1.35,5.16c.14.72,1,0,1-.49a10.47,10.47,0,0,0-3.57-6.85,14.57,14.57,0,0,0-3.07-2.28,6.79,6.79,0,0,0-3.58-1c-.43,0-1,.75-.23,1A14.81,14.81,0,0,1,296,352.2,11.46,11.46,0,0,1,299.36,358.49Zm-.13,4.86a10.45,10.45,0,0,0-3.57-6.84,14.62,14.62,0,0,0-3.07-2.29,6.85,6.85,0,0,0-3.57-1c-.44,0-1,.76-.24,1a14.81,14.81,0,0,1,6.06,3.36,11.46,11.46,0,0,1,3.39,6.29C298.37,364.57,299.26,363.87,299.23,363.35Z" style="fill:#f0f0f0"></path><path d="M278.93,361.06s3.74-2.95,9.42-.79,8.94,7.88,9.39,10.21-.25,9.27-3.29,10.95-4.69,1.86-9.47-3.53S278.33,365.81,278.93,361.06Z" style="fill:#f5f5f5"></path><path d="M368.2,195.38H323.45L329.22,217l14.38,49.32s-8.63,4.48-15.46,16.25C322.38,292.49,310.6,313,310.6,313c1.33,7,6.1,11.21,13,13.76,0,0,41.73-36,47.21-44s7.83-9.68,6.95-19.68C377.08,255.47,374.78,224.3,368.2,195.38Z" style="fill:#455a64"></path><path d="M348.88,230.26l-.82.16c.61,3.12,1.44,7.11,2.32,11.35,2.12,10.2,4.53,21.77,4.69,25.24.13,2.92-2.64,4.89-6.48,7.6a59.11,59.11,0,0,0-7.08,5.63c-6.75,6.51-22.62,31.36-27.86,39.69.18.23.36.47.55.69,5.05-8,21.24-33.36,27.89-39.78a59.9,59.9,0,0,1,7-5.55c3.9-2.76,7-4.94,6.83-8.32-.16-3.53-2.57-15.13-4.7-25.37C350.32,237.37,349.48,233.37,348.88,230.26Z" style="fill:#37474f"></path><path d="M341.1,273.18c.14-1.37.38-3.38.7-5.76a46.53,46.53,0,0,0-13.66,15.14l-.39.66-2.81,37,4.85,1.16c2-1.78,4.45-3.9,7.08-6.24C338.14,302.56,340.57,278.64,341.1,273.18Z" style="fill:#37474f"></path><path d="M334.76,236l7.72,26.46C344,252,347.16,233,347.16,233c2.29-1.16,12.84-5.3,13.85-14.65l-9.67-4Z" style="fill:#37474f"></path><path d="M335.56,284.75c.31-16.07,3.58-47.74,5.43-69.9a59.6,59.6,0,0,0,18.38-19.47H304.09c-5.89,14.82-5.29,26.91-3.56,41l6.65,50.54s-3.07,16.24-2.66,25.48c.48,10.74,7.15,46.94,7.15,46.94.88,6.7,1,7.79,1.17,10.16a31.51,31.51,0,0,1-.16,4.05c0,5.37,7.06,7.77,11.78,11.36,1.86,1.42,9.44,7.11,14.92,9.88,3.43,1.73,4.36,1.15,7.74-.85,2.8-1.65-2.17-4.67-5.65-7.3-3.84-2.89-3.3-3.47-5.69-6.1-2.18-2.41-4.7-6.79-4.94-10.23-.37-5.36.45-11.35.86-17.15C332.35,346.07,335.33,296.81,335.56,284.75Z" style="fill:#ffbda7"></path><path d="M357.9,399.08c.3,0,.36,4.14-1.29,5.61-1.9,1.69-8,4.09-15.35,3.05-5-.71-7.32-2-10.08-4.78-5.25-5.23-6.74-6.69-12-8.2-3-.87-6.44-2.17-7.43-3.16s-.85-5.4-.85-5.4Z" style="fill:#263238"></path><path d="M312.77,369.09l0-.06c-1.14.42-1.27,2.26-1.26,3.27a81.62,81.62,0,0,1-.63,9.5,17.89,17.89,0,0,0,.17,5.75c.35,1.68,1.64,2.44,3.21,3.05,1.33.52,2.75.79,4.13,1.19a24.5,24.5,0,0,1,8.72,4.61c2.56,2.11,6.52,6.3,9.64,7.68a18.64,18.64,0,0,0,7.26,1.46c7.32.13,12.18-1.86,13.53-4.65,1.09-2.25,1-3.72-.83-5.71a16.08,16.08,0,0,0-3.81-3.47c-2.11-1.19-6.18-4.16-8.24-5.45a41.58,41.58,0,0,1-7.94-6.9c-1.74-1.83-3.54-3.94-3.85-6.49a1.45,1.45,0,0,0-1.45-1.65,17.58,17.58,0,0,0-7.33,0A6.37,6.37,0,0,0,321,372.9c-1.5,1.58-.73,3.47-.88,5.4-.46.1-.77-.41-.92-.77a30,30,0,0,0-1.54-3.83c-.7-1.12-1.88-1.44-3-2.05a4.36,4.36,0,0,1-1.3-.95A6.4,6.4,0,0,1,312.77,369.09Z" style="fill:#37474f"></path><path d="M337.87,380.38c.68.2.51-.9.05-1.1a10,10,0,0,0-7.51,0A14.64,14.64,0,0,0,327,381a7.1,7.1,0,0,0-2.55,2.69c-.18.4.17,1.24.73.66a14.89,14.89,0,0,1,5.72-3.82A11,11,0,0,1,337.87,380.38Zm3.76,3.54c.68.2.5-.9.05-1.11a10,10,0,0,0-7.51,0,14.44,14.44,0,0,0-3.39,1.67,7,7,0,0,0-2.55,2.69c-.18.4.17,1.24.73.66a14.89,14.89,0,0,1,5.72-3.82A11,11,0,0,1,341.63,383.92Zm4.08,2.32a10,10,0,0,0-7.51,0,14.51,14.51,0,0,0-3.4,1.67,7,7,0,0,0-2.54,2.69c-.18.4.17,1.24.72.66a15,15,0,0,1,5.72-3.82,11,11,0,0,1,6.95-.13C346.34,387.55,346.16,386.45,345.71,386.24Z" style="fill:#f0f0f0"></path><path d="M332.8,401.46s-.36-3.68,4.16-7.69,10.61-4.71,12.8-4,8.81,5.24,8.81,8.69-.63,5-7.47,6.74S336.72,405.54,332.8,401.46Z" style="fill:#f5f5f5"></path><path d="M302.8,195.38a93.72,93.72,0,0,0-4.29,36.39c.94,11.73,7.63,53.51,7.63,53.51s-1.41,9.33-2.12,20.05,3,26.7,3,26.7a23.52,23.52,0,0,0,12.89,3.56,35.78,35.78,0,0,0,12.64-2.17s2.84-32.24,5.2-50.32c2.45-18.87,5.3-52.77,5.3-52.77,21.06-8.23,26-19.91,25.94-35Z" style="fill:#455a64"></path><path d="M333,195.38h-.84c-1.58,16.68-11.52,25.39-20.94,28.07.23-9.74,1.52-19.83,4.94-28.07h-.9c-8.17,20.14-4,50.72-2.58,61.16,2.26,16.5,3.07,27.67.91,39.41-1.77,9.63-2.14,25.48-1.09,38.56.27.09.56.17.85.25-1.07-13.07-.72-29,1.06-38.66,2.18-11.85,1.37-23.09-.9-39.67a211,211,0,0,1-2.3-32.11C321,221.64,331.35,212.67,333,195.38Z" style="fill:#37474f"></path></g><g id="freepik--Top--inject-86"><path d="M389.15,152.2c13,.92,17,1.75,21.65-4.37,4.9-6.5,7.14-10.91,13.15-22,2.32-4.28,5.35-11.76,5.42-14.87l-14.19-1.82c1.51,3.09-2.58,7.64-7.45,13.28a135.39,135.39,0,0,1-9.93,9.83s-24.2-1.85-32.21-2.65-14.6-.78-14.6-.78l6.48,21.13Z" style="fill:#ffbda7"></path><path d="M429.2,97.78c-.22-3.28-.35-4.93-.76-5.92-.2-.48-.33-1.08-1.09-2.75s-.87-3.13-1.57-3.33-1.89.49-2,2.36.56,3.9.5,4.88S429.2,97.78,429.2,97.78Z" style="fill:#f0997a"></path><g id="freepik--Mobile--inject-86"><path d="M425.68,100.67l-3-31a1.22,1.22,0,0,0-.87-1.15,1.48,1.48,0,0,0-1.44.11l-12.09,8.65a2,2,0,0,0-.76,1.66l3,31.05a1.25,1.25,0,0,0,.82,1,1.52,1.52,0,0,0,1.48,0l12.1-8.66A1.71,1.71,0,0,0,425.68,100.67Z" style="fill:#37474f"></path><path d="M424.89,101,412.46,110,409.4,78.77l-1.74-.8a1.84,1.84,0,0,0-.18.92l3,31.05a1.25,1.25,0,0,0,.82,1,1.52,1.52,0,0,0,1.48,0l12.1-8.66a1.75,1.75,0,0,0,.7-1l-.06,0Z" style="fill:#263238"></path><path d="M421.68,69.44l-12.13,8.69a1.42,1.42,0,0,0-.53,1.16l3,30.8c.06.62.53.83,1,.47l11.8-8.46a1.57,1.57,0,0,0,.6-1.32l-3-31C422.4,69.33,422.05,69.18,421.68,69.44Z" style="fill:#455a64"></path><path d="M409,82.5a.75.75,0,0,0-.4-.57.23.23,0,0,0-.23,0l-.24.17a.27.27,0,0,0-.08.25l.25,2.53a.75.75,0,0,0,.4.57.21.21,0,0,0,.22,0l.25-.17a.26.26,0,0,0,.08-.25Z" style="fill:#455a64"></path><path d="M408.8,82.67l.25,2.53c0,.23-.12.34-.31.25a.75.75,0,0,1-.4-.57l-.25-2.53c0-.23.12-.34.32-.25A.77.77,0,0,1,408.8,82.67Z" style="fill:#37474f"></path><path d="M409.47,86.93a.77.77,0,0,0-.39-.57.21.21,0,0,0-.23,0l-.24.17a.26.26,0,0,0-.08.25l.25,2.53a.78.78,0,0,0,.39.57.23.23,0,0,0,.23,0l.24-.17a.27.27,0,0,0,.08-.25Z" style="fill:#455a64"></path><path d="M409.24,87.1l.25,2.53c0,.23-.12.34-.32.25a.78.78,0,0,1-.39-.57l-.25-2.53c0-.23.12-.34.31-.25A.76.76,0,0,1,409.24,87.1Z" style="fill:#37474f"></path><path d="M413.4,85.81l-1.56,1.12c-.36.25-.68,0-.73-.45l-.61-6.21a1.63,1.63,0,0,1,.55-1.36l1.57-1.12c.35-.25.67-.05.72.45l.61,6.21A1.6,1.6,0,0,1,413.4,85.81Z" style="fill:#263238"></path><path d="M413.06,78.41a.83.83,0,0,1-.27.67c-.17.12-.33,0-.36-.22a.81.81,0,0,1,.27-.66C412.87,78.07,413,78.17,413.06,78.41Z" style="fill:#e0e0e0"></path><path d="M413.05,80.36a2.41,2.41,0,0,1-.82,2c-.53.38-1,.08-1.09-.67a2.45,2.45,0,0,1,.83-2C412.49,79.31,413,79.61,413.05,80.36Z" style="fill:#455a64"></path><path d="M412.65,80.64a1.39,1.39,0,0,1-.48,1.19c-.3.22-.59,0-.63-.39a1.42,1.42,0,0,1,.48-1.19C412.33,80,412.61,80.21,412.65,80.64Z" style="fill:#fff;opacity:0.2"></path><path d="M412.68,80a.58.58,0,0,1-.2.48c-.12.09-.24,0-.26-.16a.59.59,0,0,1,.2-.48C412.54,79.8,412.66,79.87,412.68,80Z" style="fill:#fff;opacity:0.2"></path><path d="M413.36,83.51a2.44,2.44,0,0,1-.82,2c-.53.38-1,.08-1.09-.67a2.47,2.47,0,0,1,.82-2C412.8,82.46,413.29,82.76,413.36,83.51Z" style="fill:#455a64"></path><path d="M413,83.18a.59.59,0,0,1-.19.48c-.13.09-.24,0-.26-.16a.55.55,0,0,1,.2-.48C412.85,82.93,413,83,413,83.18Z" style="fill:#fff;opacity:0.2"></path><path d="M413,83.79a1.39,1.39,0,0,1-.48,1.19c-.3.22-.59,0-.63-.39a1.42,1.42,0,0,1,.48-1.19C412.64,83.18,412.92,83.36,413,83.79Z" style="fill:#fff;opacity:0.2"></path><path d="M406.79,75.84q-.62-.82-1.2-1.68c-.29-.41-.58-.82-.86-1.24a2.79,2.79,0,0,0-.7-.86c-.15-.1-.18.08-.24.16s.07.41.12.53a3.59,3.59,0,0,0,.21.38l.3.48c.19.32.39.63.59.94.43.62.88,1.24,1.34,1.84.12.15.39.24.53.07S406.92,76,406.79,75.84Z" style="fill:#e0e0e0"></path><path d="M405.66,77.66c-.67-.17-1.33-.36-2-.56l-1.45-.44a2.7,2.7,0,0,0-1.07-.25c-.18,0-.1.18-.09.28s.31.27.42.34a2.83,2.83,0,0,0,.4.17l.53.19c.35.13.7.26,1,.37.73.22,1.46.42,2.2.61.18,0,.45-.05.46-.27S405.86,77.71,405.66,77.66Z" style="fill:#e0e0e0"></path><path d="M405.69,79.66c-.58.37-1.18.71-1.77,1s-.88.51-1.32.75a2.77,2.77,0,0,0-.92.62c-.11.14.07.19.14.25s.41,0,.54-.07a2,2,0,0,0,.39-.18l.52-.25c.33-.17.66-.33,1-.51.66-.37,1.31-.77,1.95-1.18.16-.1.28-.36.12-.52S405.86,79.55,405.69,79.66Z" style="fill:#e0e0e0"></path></g><path d="M428.32,114.92a13,13,0,0,0,1-3.23,37.94,37.94,0,0,0,.22-5.23q0-3.49-.08-7c0-1.14-.1-2.42-1-3.16-1.3-1.11-2-2.72-3-4.13a12.47,12.47,0,0,0-3.78-3.94A32.08,32.08,0,0,0,414.93,84a1.41,1.41,0,0,0-1.18-.1c-.72.39-.61,1.74-.37,2.37a4.47,4.47,0,0,0,1.85,2,22.18,22.18,0,0,1,3.87,3.24,16.84,16.84,0,0,1,2.11,2.8A12.28,12.28,0,0,1,422.1,96c.2.48.37,1.46-.43.78a15.39,15.39,0,0,1-2.11-2.16,13.4,13.4,0,0,0-1-1.22,8.47,8.47,0,0,0-.93-.75c-1.55-1.11-3-2.33-4.55-3.46-.56-.41-1.13-.81-1.72-1.19a5.5,5.5,0,0,0-1.69-.94c-.51-.12-.77.53-.89.91a2.21,2.21,0,0,0,.19,1.79,13,13,0,0,0,3.41,3.79c1.44,1.24,2.87,2.56,4.22,3.92.61.62,1.21,1.26,1.78,1.93.15.18.68.62.35.85s-.87-.37-1.11-.56-1.16-.79-1.54-1.09c-.76-.62-1.28-1-2-1.67-1.35-1.16-2.25-3.16-4.12-3.59a1.06,1.06,0,0,0-.82.08c-.48.32-.41.89-.24,1.37a15,15,0,0,0,.87,1.81,10.65,10.65,0,0,0,.87,1.5A11,11,0,0,0,412,99.66l4.25,4c.15.14.49.4.49.63,0,.4-.46.24-.68.09-.79-.53-1.55-1.08-2.3-1.67a10.19,10.19,0,0,1-1.11-1c-.87-.92-1.43-1.95-2.85-1.7a.47.47,0,0,0-.2.06.44.44,0,0,0-.16.29,4.29,4.29,0,0,0,.31,2.06c1,3,4.13,4.61,5.81,7.23a21.12,21.12,0,0,1,3,14.22c-.34,2.37-.67,5.49-1,7.1.92-1.1,4.3-5.33,5-6.36A54.38,54.38,0,0,0,428.32,114.92Z" style="fill:#ffbda7"></path><path d="M415.5,110.64a.42.42,0,0,0,.05.1,6.1,6.1,0,0,1,.55,1,14.32,14.32,0,0,1,.62,2.42c.3,1.2,1.17,2.67,2.49,2.92.09,0,.08-.17,0-.2a7.78,7.78,0,0,1-1.44-1.7,7.92,7.92,0,0,1-.61-2.24,6.89,6.89,0,0,0-.76-2,12.93,12.93,0,0,0-1.24-1.76h0A3.19,3.19,0,0,1,415.5,110.64Z" style="fill:#f0997a"></path><path d="M428.44,99.49a1.8,1.8,0,0,1-.35.58,2,2,0,0,1-1.21.43c-.54.08-1.27.26-1.25.93a3,3,0,0,1-.5,2,1.85,1.85,0,0,1-1.94.71c-.32-.09-.44.25-.36.49a1.9,1.9,0,0,1-2.3,2.46.32.32,0,0,0-.39.27,2.62,2.62,0,0,1-.71,1.78,1.35,1.35,0,0,1-1.58.31c-.13-.08-.17.18-.08.24a1.71,1.71,0,0,0,2.69-.52,5.9,5.9,0,0,0,.2-.72,1,1,0,0,1,.43-.6,1.78,1.78,0,0,1,.73-.11,2,2,0,0,0,1.36-.68,2.06,2.06,0,0,0,.51-1.44,1.13,1.13,0,0,1,0-.55c.14-.3.52-.36.84-.44a2,2,0,0,0,1.06-.58,3.92,3.92,0,0,0,.62-2,1.14,1.14,0,0,1,.12-.41,1,1,0,0,1,.65-.41c.26-.06.53-.07.78-.14a1.34,1.34,0,0,0,.9-.72,3.07,3.07,0,0,0,.23-.8,1.31,1.31,0,0,0,0-.76s0,0-.06,0-.07,0-.08.07l-.26.64Z" style="fill:#f0997a"></path><path d="M349.92,127.24c7.41-.31,16.78,1.2,21.38,1.79C377,129.76,385,131,385,131s2.3,3.94,2.07,11.09-3.46,10.26-3.46,10.26-17.19-1-19.38-.1a34.4,34.4,0,0,0-5.61,3.57Z" style="fill:#DE780E"></path><path d="M302.35,204.15c4.18-13,6.87-20.49,6.91-24.58,0,0-4.12-20.51-4.75-25.35-1.63-12.59.52-18.56,3-19.95,1.45-.81,9.32-3,15.11-7.74,7-5.76,11,.17,19.11.13a63.84,63.84,0,0,1,8.46,1.27,74.6,74.6,0,0,1,11.17,9.79c6.61,7.38,8.73,12.38,7.85,20.12a18.52,18.52,0,0,1-4.11,9.17c-.42,3.74-1,14.35-1,14.35.18,4.15-.12,4.06,2.18,14C360.06,215.26,315.94,214.88,302.35,204.15Z" style="fill:#fafafa"></path><path d="M321.5,126.53s0,2.74,1.94,8.29,5,9.48,5.89,21.51-1.16,68.5.7,82.07c-8.95.38-25.89-6.09-32.86-13a125.79,125.79,0,0,1,3-26.18c2.69-12.3,6.19-17.2,5.23-23.69s-5.34-28.34-.61-41.79c0,0,3.1-.56,9.22-2.32C322.38,129,321.5,126.53,321.5,126.53Z" style="fill:#DE780E"></path><path d="M321.5,126.53s0,2.74,1.94,8.29,5,9.48,5.89,21.51-1.16,68.5.7,82.07c-8.95.38-25.89-6.09-32.86-13a125.79,125.79,0,0,1,3-26.18c2.69-12.3,6.19-17.2,5.23-23.69s-5.34-28.34-.61-41.79c0,0,3.1-.56,9.22-2.32C322.38,129,321.5,126.53,321.5,126.53Z" style="fill:#fff;opacity:0.4"></path><path d="M342.41,124.8l.36,1.2c.15,3.46,7.49,8.64,12.81,16.58s6.44,15.83,6.54,26.24,4.44,49.31,5.71,54.35a14.12,14.12,0,0,0,5.56-8.73c-1.08-6.13-3-16.8-4.07-20.51s-1.24-9.85-1.57-17.55c-.26-6.16-.15-9.13-.15-9.13s6.4-6.88,3-18.11-20.73-21.9-20.73-21.9-.49-.16-3.07-.62A16.83,16.83,0,0,1,342.41,124.8Z" style="fill:#DE780E"></path><path d="M342.41,124.8l.36,1.2c.15,3.46,7.49,8.64,12.81,16.58s6.44,15.83,6.54,26.24,4.44,49.31,5.71,54.35a14.12,14.12,0,0,0,5.56-8.73c-1.08-6.13-3-16.8-4.07-20.51s-1.24-9.85-1.57-17.55c-.26-6.16-.15-9.13-.15-9.13s6.4-6.88,3-18.11-20.73-21.9-20.73-21.9-.49-.16-3.07-.62A16.83,16.83,0,0,1,342.41,124.8Z" style="fill:#fff;opacity:0.4"></path><path d="M362.68,178.09c.06-6,2.57-21.21,2.85-24.24s-4.1-5.58-4.1-5.58,2.6.55,3.42-.14-4.68-8-9.31-12.75-14.74-13.27-14.74-13.27l0,4.58c2.46,2.46,6.56,6.21,8.38,8.95C353.28,141.86,360.78,148.48,362.68,178.09Z" style="fill:#DE780E"></path><g id="freepik--Head--inject-86"><path d="M315.1,74c2.2-2.63,5.29-4.34,8.7-4,1.94.21,3.9.73,5.83.41a16.54,16.54,0,0,0,3.92-1.4,19.4,19.4,0,0,1,6-1.73,9.17,9.17,0,0,1,6,1.42c1.76,1.22,3,3.2,4.82,4.25a19.66,19.66,0,0,0,4.28,1.39,10.88,10.88,0,0,1,7.25,6.14,10.16,10.16,0,0,1-.18,7.28,20.56,20.56,0,0,0-1.34,3.52,3.29,3.29,0,0,0,1.1,3.39c1,.67,2.78-.08,2.68-1.34a3.76,3.76,0,0,1-.4,4,3.59,3.59,0,0,1-3.92,1,7.79,7.79,0,0,1,2.69,5c.07,2.36-1.57,4.38-2.74,6.44a5.91,5.91,0,0,0-.83,2.19,2.6,2.6,0,0,0,.68,2.18,2,2,0,0,0,2.57.12,2.21,2.21,0,0,1-1.07,1.84,6,6,0,0,1-4.66,1.09,9.92,9.92,0,0,1-13.41,1.08,5.84,5.84,0,0,1-3.59,3.09,8.74,8.74,0,0,1-4.81,0,15,15,0,0,0-1.85-.43c-1.36-.15-2.43.58-3.71.55a7.1,7.1,0,0,1-4.11-1.56,8.29,8.29,0,0,1-11.73-1.2,4.36,4.36,0,0,0,1.43,3.12,8.59,8.59,0,0,1-3.74-.9,3.88,3.88,0,0,1-2.1-3.13c0-1.13.56-2.26.31-3.36-.28-1.26-1.51-2-2.41-2.89a6.84,6.84,0,0,1-1.39-7.36c.87-2,2.74-3.63,2.85-5.83a9.4,9.4,0,0,0-.26-2.17,19,19,0,0,1,0-7.85,13,13,0,0,1,2.33-5c.22-.28,3.21-3,3.29-2.48A9.43,9.43,0,0,1,315.1,74Z" style="fill:#263238"></path><path d="M314.25,98.59c2.65-1,4.89,0,6.3,2.86,1.22,2.48,3.82,1.62,3.22-2.23,6-5.77-.93-9.52,4-15.1,3.08-3.48,9.6-2.51,12.21-.3a6.34,6.34,0,0,1,7.42-3c2.74,1,4.48,2.7,5.78,6.61,1.36,4.07-.07,4.83.59,7.7a35,35,0,0,1,1.37,6.15c.87,9.56-1.94,16.16-4.84,18.35-2,1.51-5.15,1.69-9.48,1.71l0,5.5s6.77,8.68,6.7,15.45A79.1,79.1,0,0,1,331,135.84c-8.4-4.54-10-8-10-8l.31-17.43h0c-.61,1.53-4.33,3.33-7.38.75C310.05,107.93,309.57,100.39,314.25,98.59Z" style="fill:#ffbda7"></path><path d="M351.37,92.39,347,91.31a2.18,2.18,0,0,1,2.66-1.76A2.44,2.44,0,0,1,351.37,92.39Z" style="fill:#263238"></path><path d="M337.12,91.72l-4.19,1.81a2.26,2.26,0,0,1,1.13-3A2.36,2.36,0,0,1,337.12,91.72Z" style="fill:#263238"></path><path d="M337.94,107.86l6.32,2.1a3.3,3.3,0,0,1-4.48,2.07C338.05,111.39,337.44,109.68,337.94,107.86Z" style="fill:#b16668"></path><path d="M341.6,112.23a3.52,3.52,0,0,0-3.5-3.19,3.11,3.11,0,0,0-.32,0,3,3,0,0,0,2,3A3.73,3.73,0,0,0,341.6,112.23Z" style="fill:#ffa8a7"></path><polygon points="341.74 93.48 343.65 105.34 349.38 102.95 341.74 93.48" style="fill:#f0997a"></polygon><path d="M338,97.43a1.9,1.9,0,1,1-2-1.85A1.92,1.92,0,0,1,338,97.43Z" style="fill:#263238"></path><path d="M351.08,96.6a1.9,1.9,0,1,1-2-1.85A1.92,1.92,0,0,1,351.08,96.6Z" style="fill:#263238"></path><path d="M340.82,121.34c-4.95-.25-12.86-1.39-17-10,0,0-.34,5.8,6.84,9.71a22.63,22.63,0,0,0,10.1,2.44Z" style="fill:#f0997a"></path></g><path d="M321,123.89l-4.3,6.61s2.8,10.84,2.61,16.23-1.05,10.64.43,10.54a40.14,40.14,0,0,0,5.9-1.65s-3.36,5.38-3,7,6.74,19.84,6.74,19.84,1.43-21.44.8-27.68-4.06-16.33-6.58-23.42C322,126.77,321,123.89,321,123.89Z" style="fill:#DE780E"></path><g id="freepik--Arm--inject-86"><path d="M307.63,133.57c-6.4,1.59-11.6,1.82-15.12,13-2.52,8-7.53,25.27-10.15,34.38-.23.06-9.36,2.84-13.73,4a92.7,92.7,0,0,1-9.3,2.13,7.28,7.28,0,0,1-4-.05c-1.74-.7-3.29-1.86-5-2.72-4-2.06-8.6-2.7-13.07-3.32a1.91,1.91,0,0,0-.95,0c-2.4.92,1.21,4.27,2.28,4.67,1.91.72,7.29,2.19,2.19,3.17-4.63.88-9.37.22-14-.23-.75-.07-1.74,0-2,.72-.29.89.87,1.52,1.25,2.37-.36.42-1.05.28-1.57.48a1.73,1.73,0,0,0-.54,2.51,6.27,6.27,0,0,0,2.31,1.77,2.68,2.68,0,0,1,.75.59,4.12,4.12,0,0,1,.51,1.15,4.45,4.45,0,0,0,4.07,2.81,1.81,1.81,0,0,1,.9.12,1.89,1.89,0,0,1,.54.55c1.38,1.87,2.56,1.68,4.57,1.91,2.21.25,4.38.56,6.61.63,4.81.16,11-1.72,15.83-2.2,12.55-1.24,15.92-1.57,26.94-2.75s10.65-3.1,13.07-9.63c3.1-7.51,6.93-18.66,8.29-22.83C313.62,150.82,313.62,138.24,307.63,133.57Z" style="fill:#ffbda7"></path><path d="M309.43,164.55l-6.28,17.91s-4.33,1.94-11.21-1.22-7.92-7-7.92-7,4.49-15.75,7.45-25.94c2-6.94,3.16-13.19,16.53-15.33C312.17,135.79,315,147.9,309.43,164.55Z" style="fill:#DE780E"></path></g></g></g></g><g id="freepik--character-2--inject-86"><g id="freepik--Chartacter--inject-86"><g id="freepik--bottom--inject-86"><path d="M175.88,365.23l-1.5-16.55,18.89,1.56s-.44,9-.79,14c-.2,3,3.75,8.64,3.75,8.64s-9,4.61-13.69,2.87-7.16-7.71-7.07-9S175.88,365.23,175.88,365.23Z" style="fill:#ffa8a7"></path><path d="M221,391.79c.3,0,.75,3.07-.87,4.38-1.87,1.51-7.36,4-14.62,3.12s-11.19-3-14.09-5.24-7-5.48-10.26-6.16c-3-.62-6.36-1.91-7.33-2.8s-.84-4.8-.84-4.8Z" style="fill:#263238"></path><path d="M175.88,365.2a1.16,1.16,0,0,0-1.1.92c-.23,1.08-.47,4.22-.95,6a29.61,29.61,0,0,0-.71,9.53c.39,2,5.37,3.4,8.54,4.53A40.91,40.91,0,0,1,192,392.25c3.41,2.63,10.58,5.36,15.31,5.33,5.6-.05,11.9-1.75,13.35-4.17,1.78-3,3.09-6.5-5.21-10.09-1.57-.68-7.09-3.74-9-4.84-5.08-3-8.66-5.74-11-11a3,3,0,0,0-1.19-1.62,2.78,2.78,0,0,0-1.62-.14c-1.38.18-6.89.9-8.15,1.46s-2.7,1.08-2.68,2.41a4.28,4.28,0,0,0,.32,1.36c.1.27.17.63-.08.79s-.56,0-.78-.2A20.42,20.42,0,0,1,179,369a7.46,7.46,0,0,0-1.32-1.25,15.29,15.29,0,0,1-1.42-.86C175.78,366.41,175.9,365.83,175.88,365.2Z" style="fill:#455a64"></path><path d="M192,392.25c-1.45-1.12-3-2.2-4.52-3.16h0s9.75,5.55,13.7,3c2.54-1.63,1.33-3.6,1.27-4.23s8.91-5.08,11.38-5.36h0c.68.35,1.26.64,1.62.8,8.3,3.59,7,7.08,5.21,10.09-1.45,2.42-6,4.32-13.25,4.33C202.63,397.74,195.36,394.88,192,392.25Z" style="fill:#37474f"></path><path d="M201.72,386c5.16,1.93,3,2.83,1.51,3s-10.13-4.55-15.42-8.47c-5.53-4.08-9-8.55-11.06-10.05-.77-.56-1.59-1.25-2.32-1.89.13-1.07.24-2,.35-2.54a1.16,1.16,0,0,1,1.1-.92c0,.63-.1,1.21.4,1.68a15.29,15.29,0,0,0,1.42.86A7.46,7.46,0,0,1,179,369a20.42,20.42,0,0,0,2.23,2.51C185.76,376.85,196.56,384.12,201.72,386Z" style="fill:#37474f"></path><path d="M202.86,388.36a.56.56,0,0,1-.32-.11.45.45,0,0,1-.07-.67c1.46-1.67,8.36-5.64,12.16-5.25a.48.48,0,1,1-.11.95c-3.55-.35-10.11,3.58-11.26,4.9A.52.52,0,0,1,202.86,388.36Z" style="fill:#263238"></path><path d="M198.36,385.77a.56.56,0,0,1-.32-.11A.45.45,0,0,1,198,385c1.46-1.67,8.36-5.63,12.16-5.25a.49.49,0,0,1,.45.53.5.5,0,0,1-.56.42c-3.55-.35-10.11,3.58-11.26,4.9A.52.52,0,0,1,198.36,385.77Z" style="fill:#263238"></path><path d="M193.86,383.32a.54.54,0,0,1-.32-.11.45.45,0,0,1-.07-.67c1.45-1.67,8.36-5.64,12.15-5.25a.48.48,0,1,1-.11.95c-3.54-.35-10.1,3.58-11.25,4.9A.52.52,0,0,1,193.86,383.32Z" style="fill:#263238"></path><path d="M189.69,380.52a.54.54,0,0,1-.32-.11.45.45,0,0,1-.07-.67c1.45-1.67,8.37-5.64,12.15-5.25a.48.48,0,1,1-.11.95c-3.54-.35-10.1,3.58-11.25,4.9A.52.52,0,0,1,189.69,380.52Z" style="fill:#263238"></path><path d="M185.61,377.71a.51.51,0,0,1-.32-.1.45.45,0,0,1-.08-.67c2-2.37,9.23-5.68,13-5.29a.47.47,0,0,1,.45.52.5.5,0,0,1-.56.43c-3.41-.35-10.34,2.84-12.11,4.93A.52.52,0,0,1,185.61,377.71Z" style="fill:#263238"></path><path d="M133.94,371.45l4.46-15.19L119.67,353l-1.08,14.76s-2.09,5.24-1,7.21,13.56,4.37,14.74,3.12S133.94,371.45,133.94,371.45Z" style="fill:#ffa8a7"></path><path d="M131.46,404.72c-.69,4.72-1.77,7.75-3.9,10.26s-5.79,2.83-9.36,1.45-8.06-4.28-8.77-8.55-.29-7.06.89-11.36Z" style="fill:#263238"></path><path d="M118.59,367.8c-1.51-.12-1.32,6.38-2.69,12.66-1.47,6.73-4,9.21-5.28,14.72-1.46,6.29-1.31,9.23.92,13.51s10.91,9.47,15.78,4.58c4-4,4.52-9,4.7-15.48a144.55,144.55,0,0,1,1-16.41c.67-4.78,2.2-9,.94-9.74-.16.7-.33,1.58-.49,2.26-.12.52-.48,3.11-1.32,3a8.54,8.54,0,0,1,.13-1.82,2.05,2.05,0,0,0-.29-1.61,7,7,0,0,0-2.39-1.31c-1.45-.49-4.06-1.12-5.55-1.47-.74-.17-1.49-.32-2.24-.42a6.2,6.2,0,0,0-1.92,0,1.18,1.18,0,0,0-.86.52,1.79,1.79,0,0,0-.14.73,4.39,4.39,0,0,1-.29,1.29c-.07.18-.24.39-.45.31a.4.4,0,0,1-.21-.42c.06-.78.21-1.33.32-2.23.06-.41.18-1,.22-1.39S118.52,368.21,118.59,367.8Z" style="fill:#455a64"></path><path d="M111.1,393.4c-.22.91-1.59,6.92.21,8.32s3.44-3.15,3.44-3.15,4.89-.57,11.64,3.2c-.44,1,.37,4.4,2.34,4s3.26-7.34,3.28-7.43c-.2,6.21-.83,11.05-4.69,14.93-4.87,4.89-13.55-.3-15.78-4.58s-2.38-7.22-.92-13.51C110.76,394.55,110.93,394,111.1,393.4Z" style="fill:#37474f"></path><path d="M115.27,399.06c-.22,2.33-2.74,1.14-2.59-2.16s2.79-10.79,3.22-16.44c.67-7.76,1.18-12.78,2.69-12.66l0,.24-.45,3.22a11.92,11.92,0,0,0-.2,1.39c-.41,4.74-.75,14-1.56,18.23A66.6,66.6,0,0,0,115.27,399.06Z" style="fill:#37474f"></path><path d="M125.58,401.59a64.94,64.94,0,0,0,2.08-7.95c.86-4.22,3.65-12.64,5.05-17.17a10.29,10.29,0,0,0,.73-2.57c.15-.63.31-1.44.46-2.11a.74.74,0,0,1,0-.14c.9.55.47,4.22-.07,6.11s-1.21,3.91-1.9,6.63c-1.73,5.34-2.12,13.42-3.22,16.49S124.91,403.8,125.58,401.59Z" style="fill:#37474f"></path><path d="M126.52,402a.5.5,0,0,1-.2-.08,20.67,20.67,0,0,0-11.46-2.83.61.61,0,0,1-.65-.46.45.45,0,0,1,.44-.54,21.71,21.71,0,0,1,12.26,3,.5.5,0,0,1,.18.71A.55.55,0,0,1,126.52,402Z" style="fill:#263238"></path><path d="M128.17,397.13a.71.71,0,0,1-.18-.08,25.63,25.63,0,0,0-12.83-3.17.6.6,0,0,1-.64-.47.46.46,0,0,1,.46-.53,26.45,26.45,0,0,1,13.56,3.35.5.5,0,0,1,.21.7A.54.54,0,0,1,128.17,397.13Z" style="fill:#263238"></path><path d="M115.9,389.14a.61.61,0,0,1-.45-.4.47.47,0,0,1,.4-.58c6.88-1,13.28,3.07,13.55,3.24a.49.49,0,0,1,.18.7.58.58,0,0,1-.76.1c-.06,0-6.28-4-12.68-3A.65.65,0,0,1,115.9,389.14Z" style="fill:#263238"></path><path d="M116.64,384.68a.61.61,0,0,1-.44-.4.45.45,0,0,1,.39-.58,20,20,0,0,1,13.82,3.24.48.48,0,0,1,.14.71.59.59,0,0,1-.78.05c-.05,0-5.83-4.14-12.88-3A.7.7,0,0,1,116.64,384.68Z" style="fill:#263238"></path><path d="M117.5,379.67a.64.64,0,0,1-.44-.39.46.46,0,0,1,.38-.59c7.11-1.24,13.64,3.2,13.91,3.4a.47.47,0,0,1,.15.7.58.58,0,0,1-.77.07c-.06-.05-6.37-4.34-13-3.18A.76.76,0,0,1,117.5,379.67Z" style="fill:#263238"></path><path d="M132.42,200.49c-4.67,40.78-7.46,96.73-7.46,96.73-.4,3.09-2.79,8.34-4.83,23.6-2.16,16.11-2.6,38.93-2.6,38.93s11,6.41,20.29,3.67c0,0,9.82-35.59,15.21-54.48,5.09-17.87,11.34-44,11.34-44l4.54,27.28s-1,11.63-1,19.8c.07,9.5,5.91,44.83,5.91,44.83s10.8,7.29,20.61.33c0,0,3.79-53.16,4.46-64.56,1.3-22.36,1.88-65.8,2.06-94.71Z" style="fill:#DE780E"></path><path d="M132.42,200.49c-4.67,40.78-7.46,96.73-7.46,96.73-.4,3.09-2.79,8.34-4.83,23.6-2.16,16.11-2.6,38.93-2.6,38.93s11,6.41,20.29,3.67c0,0,9.82-35.59,15.21-54.48,5.09-17.87,11.34-44,11.34-44l4.54,27.28s-1,11.63-1,19.8c.07,9.5,5.91,44.83,5.91,44.83s10.8,7.29,20.61.33c0,0,3.79-53.16,4.46-64.56,1.3-22.36,1.88-65.8,2.06-94.71Z" style="fill:#fff;opacity:0.5"></path><path d="M164.37,265,170.12,236s11.22-1.24,17.11-6.15c0,0-3.92,6.63-14.54,8.92l-5.63,26.32,1.85,27.13Z" style="fill:#DE780E;opacity:0.6000000000000001"></path><path d="M117.26,360.19c2.21,3.12,12.35,6.5,20.69,4l1.65-6.24c-6.29,1.75-17-.45-22-4.59Z" style="fill:#DE780E"></path><path d="M173.75,357.85c2.72,2.69,13,4.31,20.82.41l.54-6.43c-5.89,2.8-16.56,2.62-22.15-.61Z" style="fill:#DE780E"></path></g><g id="freepik--top--inject-86"><path d="M277.35,146.53a9.4,9.4,0,0,0,.77-2.77,2.53,2.53,0,0,0-.21-1.69,1.69,1.69,0,0,0-1.35-1c.65-1.78,1.29-2.82.47-4.47-1.43-2.86-5.61,3-7,4.09a65.17,65.17,0,0,1-8.53,6.36c-1.11.64-2.15,1.35-3.28,1.86-.68.3-1.83.7-2.46.18s0-1.69.46-2.68a11.59,11.59,0,0,0,1.4-4c.05-1.32,0-2.1-1.13-2.85a.85.85,0,0,0-.6-.19.91.91,0,0,0-.55.52,18.23,18.23,0,0,1-1.6,2.6c-1.9,2.44-2.79,3.16-4.38,6.48a24.33,24.33,0,0,0-2.06,3.77c-.83,1.53-1.45,2.49-4.82,3.77-2.6,1-18.88,5.14-26.46,7.56l-8.55,21.18c3.13,1.42,5.6-.13,9.67-1.75,18.52-7.33,23.08-9.69,28.39-11.84,4.67-1.9,8.35-3.1,10.2-3.68,7.24-2.28,10.18-2.91,18-10.15C275.6,156.11,280.65,149,277.35,146.53Z" style="fill:#ffa8a7"></path><path d="M189.45,122.46c-3.76,1.64-5.55,5.78-6.21,10.87-.94,7.29.57,13.43,3.43,20.13s12.61,23,14.81,26.46S206,186.59,209,187s6.35-1.3,9.27-2.38c0,0-3.26-15.7-.6-21.76L216,162.4s-7.06-17.64-10.47-25.25S201.4,124.29,189.45,122.46Z" style="fill:#37474f"></path><path d="M216.57,162.57l7.08-1.58a28.7,28.7,0,0,0-.28,10.6,31.79,31.79,0,0,0,3,8.93,80,80,0,0,1-10.34,5.3S209,171.61,216.57,162.57Z" style="fill:#455a64"></path><path id="freepik--Chest--inject-86" d="M150.57,121.73c-11.7,2.55-18.69,4.71-18.69,4.71s-5.06,20.68-1.35,37.62c.86,3.9,2.44,14.08,1.82,22.3-.66,8.68-.84,14.75-1.56,25.49,0,0,13.83,8.74,43.23,7.25,23.09-1.17,27.35-8.26,27.35-8.26s-.3-35.37,0-51c.59-30.09-8.78-35.83-11.92-37.34-10.67-.87-18.51-1.72-23-1.82S159,119.89,150.57,121.73Z" style="fill:#455a64"></path><path d="M132.46,130.72c3.32,3.59,7.69,12.75,11.34,23.19L154,175.61c7-4.15,22.18-12,24.53-13.61,3-2.05,3.45-3.14,3.92-4.86a24.24,24.24,0,0,1,1.17-4.22c.81-3.66,1.53-4.57,2.86-7.44a18.75,18.75,0,0,0,1-2.95,1,1,0,0,1,.43-.64.85.85,0,0,1,.64.05c1.25.5,1.52,1.25,1.77,2.57a11.23,11.23,0,0,1-.46,4.29c-.24,1.1-.57,2.27.16,2.77,1.1.55,1.95-.56,2.44-1.09,1.91-2.5,7-10,9.33-12.82a4.25,4.25,0,0,1,1.86-1.56c1.31-.4,2.17.5,2.06,1.86a4,4,0,0,1-.52,1.45c-1.24,2.36-5,8.06-5.83,9.6-.31.56-.75,1.59-.23,2,.89.85,2.42-.22,3.51-1.08,4.52-3.6,5.68-4.26,8.71-6.5a2.22,2.22,0,0,1,3,0,1.74,1.74,0,0,1-.13,2.37c-.45.53-1.73,1.78-2.77,2.75-1.78,1.65-7.34,6.55-7.34,6.55,1.46.42,2.25,2.72.65,4.76a4.46,4.46,0,0,1-.8,5.1c-1.48,1.77-5.76,4.39-9.57,5.41a16.53,16.53,0,0,0-6.73,3.46c-4.44,3.79-11.31,9.3-28,20.85-3.67,2.55-9,4.36-12.46,3.68s-7.1-7.14-8.53-9.3c-1.79-2.72-11.92-20.77-16.12-31.43S118.72,136.4,132.46,130.72Z" style="fill:#ffa8a7"></path><path d="M132,126.43c-7.29,2.58-11,5.84-12.5,12.93-1.53,7.33.88,15.6,3.88,22.39s13.66,27,15.95,30.5,4.73,6.74,7.78,7.13,7.12-1.32,9.45-3c0,0-2.42-16,.21-22.2l-1.72-.28-11.33-25.51S137.35,129.54,132,126.43Z" style="fill:#37474f"></path><path d="M154.87,173.61l7-2.48s-1.49,6.89-.41,12.34a26.77,26.77,0,0,0,3,8.51c-3.14,2.64-6.57,5.1-10.34,6.08C154.19,198.06,147.25,182.93,154.87,173.61Z" style="fill:#455a64"></path><g id="freepik--head--inject-86"><path d="M187.25,86.64c-4.69,10.09-34.19,24.48-34.19,24.48l0-.06a20.81,20.81,0,0,0-2.59-4.75,36,36,0,0,1-3.33-5.25,35.45,35.45,0,0,1-4.2-11.35c-1-6.17.36-12.94,4.82-17.54a26.46,26.46,0,0,1,4.44-3.56c7.44-4.92,18.46-5.39,26.45-1.63,4,1.86,7.15,4.52,8.59,8.57C187.77,77.09,189,82.92,187.25,86.64Z" style="fill:#37474f"></path><path d="M148.15,105.54c3.59,1,4.74-1.29,4.74-1.29l0,19c6.41,9.33,28.17,7.39,22.56.19v-6.81a34.29,34.29,0,0,0,4.82-.5c4.23-.8,6.57-3.65,7.48-7.92,1.41-6.68.7-24.17-1.28-30.07-4.36-3.36-18.66-3.84-27.79,2,.46,7.74-1.67,11.18-1.65,14a7.59,7.59,0,0,1-1.67,2.18c-1.42,1.24-2.05-1.85-3.79-3.2a5.19,5.19,0,0,0-7.67,2.15C141.92,99.47,144.58,104.52,148.15,105.54Z" style="fill:#ffa8a7"></path><path d="M170.27,91.67a2,2,0,0,1-2,1.92,2,2,0,0,1-1.85-2.06,2,2,0,0,1,2-1.92A2,2,0,0,1,170.27,91.67Z" style="fill:#263238"></path><path d="M168.05,86l-4.16,2.13A2.45,2.45,0,0,1,165,84.94,2.28,2.28,0,0,1,168.05,86Z" style="fill:#37474f"></path><path d="M185.27,87.24l-4.34-1.84a2.26,2.26,0,0,1,3-1.3A2.49,2.49,0,0,1,185.27,87.24Z" style="fill:#37474f"></path><path d="M184.6,91.23a1.94,1.94,0,0,1-2,1.92,2,2,0,1,1,2-1.92Z" style="fill:#263238"></path><polygon points="173.92 87.39 175.35 100.12 182.3 97.52 173.92 87.39" style="fill:#f28f8f"></polygon><path d="M168.82,103.05l7,1.52a3.5,3.5,0,0,1-4.17,2.85A3.74,3.74,0,0,1,168.82,103.05Z" style="fill:#b16668"></path><path d="M169.65,104.19a4.11,4.11,0,0,0-.86,0,3.52,3.52,0,0,0,4,3.26A3.28,3.28,0,0,0,169.65,104.19Z" style="fill:#f28f8f"></path><path d="M175.42,116.66c-5.48.23-11.92-1.29-14.31-2.89s-3.8-3.39-5.1-6.81c.92,4.76,1.36,6.51,4.84,8.89s9.35,3.73,14.56,3.59Z" style="fill:#f28f8f"></path></g></g></g></g><g id="freepik--character-1--inject-86"><g id="freepik--character--inject-86"><g id="freepik--arm--inject-86"><path d="M299.82,223.08a1.44,1.44,0,0,0-1.56.78c-.23-.15-.37-.44-.64-.51s-.62.2-.82.48a6.22,6.22,0,0,0,.3,7.3,1,1,0,0,0,.36.31,1,1,0,0,0,.55.05,12.8,12.8,0,0,0,2.88-.58,3.21,3.21,0,0,0,2.22-1.76,3.62,3.62,0,0,0-.18-2.1,5.43,5.43,0,0,0-1.29-2.45C301.19,224.14,300.45,223.21,299.82,223.08Z" style="fill:#af6152"></path><path d="M307.84,203.44c7.05-9.43,7-11.34,4.45-16.47-1.36-2.8-7.48-12.41-14.68-21.82-7.92-10.36-12-15.79-23.88-17.07l5.5,26.76,15.46,17.47s-7.56,16.45-9,20.77c-2.13,6.2-.85,14.08,4.18,17.86s6.23,4.24,10.09,3.25,4.86-1.42,5.16-2.73c.76-3.3,1.25-3.73-.82-5.52-1.18-1-2.18-2-2.83-2.48a.57.57,0,0,0-.82.23c-1,1.89,1.7,4.48,1.7,4.48a15.78,15.78,0,0,0-3.79,1.45c-.67-3.41,0-5.4-.72-7.15-.49-1.12-1.37-3-.64-4C298.72,216.38,303.44,209.32,307.84,203.44Z" style="fill:#c8856a"></path><path d="M273.23,147.57c7.66.8,13.71,2.54,20.56,11.7,3.65,4.88,17.85,24.34,19.42,28.26s2.12,5.75-1.67,11.29c-4,5.82-6.64,9.19-6.64,9.19s-3.73-3.7-15.49-5.34l4.64-9.79-15.34-17.72Z" style="fill:#263238"></path><path d="M294.05,192.88c1.7,2.36,8.27,2.73,11,2.08-3.43,2.66-9.5,1.86-11.64-.63Z"></path></g><g id="freepik--bottom--inject-86"><path d="M224,219.12l65.18,1.62c4.83,61.5,1.61,67.37.69,97.39-.47,15.36-7.29,59.61-7.58,71.58,0,.72-3.32,3.92-8.22,3.27s-6.26-2.31-6.28-2.82c-.07-1.77-1.94-4.32-2.15-6.08-1.41-11.51-3-26.32-4.45-38.1a74.11,74.11,0,0,1,1.52-26.82L254.61,274c-1,6.79-2,12.75-3.72,19.56l-.8,3.21c-.48,4-6.43,4.77-8.46,5.13-5.51,1-10.44-.43-15.41-3s-7.23-5.54-7.3-10.12l.18-2.65c0-3.8.25-6.93.14-10.52C218.23,242.86,220.75,225.74,224,219.12Z" style="fill:#c8856a"></path><path d="M289.26,218s2.33,21.12,2.94,39.78a644.64,644.64,0,0,1-2.06,68.93c-1.95,22-5.61,46.54-5.61,46.54s-3.08,2.89-11.52,2.47-10-3.2-10-3.2-4-29-3.79-36.81a82.48,82.48,0,0,1,2.48-16.13l-7.07-43.76s-2.92,17.63-4.47,21-7.28,6.79-18,3.64-12.53-5-13.14-11.59-.67-34.59,0-47.17,6.34-26.93,6.34-26.93Z" style="fill:#455a64"></path><path d="M230.24,222.63c-6.27,16.69-6.65,39.06-6.91,53.86-.12,7.36-.36,14.6-.58,20.22a8.62,8.62,0,0,1-.87-.66c.21-5.52.44-12.49.56-19.58.26-14.86.64-37.32,7-54.15Z" style="fill:#37474f"></path><path d="M227.15,249.46a7,7,0,0,0,3.92-1c2.64-1.56,4.51-5.05,5.54-10.36,2.3-11.76,3.2-17.08,3.21-17.13l-.87-.15c0,.05-.92,5.37-3.21,17.11-1,5-2.71,8.34-5.13,9.77-1.7,1-3.73,1.11-6.22.31l-.27.85A11,11,0,0,0,227.15,249.46Z" style="fill:#37474f"></path><path d="M254.61,275.77,258,249.91s13.69-1.8,20.2-11c0,0-1,11-17.06,15l-2.32,20.65,2.86,44.94Z" style="fill:#37474f"></path><path d="M214.92,396.62c.62-4.66,2.59-7.46,8.94-7,5.23.37,8,3.82,7.38,8Z" style="fill:#263238"></path><path d="M230.16,336.45a4,4,0,0,0-3.6-.42c-.53.23-.82.57.64,1.12l-7,63a9.2,9.2,0,0,0,5.09.6l7-63A5.51,5.51,0,0,1,230.16,336.45Z" style="fill:#e0e0e0"></path><path d="M231.66,336.63a4,4,0,0,0-3.59-.43,1.3,1.3,0,0,0-.87.95l-7,63a1.28,1.28,0,0,0,.63,1.13,4,4,0,0,0,3.59.42,1.27,1.27,0,0,0,.87-.95l7-63A1.27,1.27,0,0,0,231.66,336.63Z" style="opacity:0.1"></path><path d="M221.66,387.51c0,1.69,4.91,2.11,5.11.4.82.46,1.44.76,1.06,3.19s3.32,3,3.11,6.49c-.52,8.43-4.33,6.9-9,6.65-2.45-.13-5.33-1.69-6.3-3.58,0,0,0-3.76.19-4.66.63-3.52,3.84-3.16,4.14-5.57C220.12,389.2,220.41,387.68,221.66,387.51Z" style="fill:#455a64"></path><path d="M228.23,335.69a1.29,1.29,0,0,0-.92.9,1.28,1.28,0,0,0,.57,1.16,4,4,0,0,0,3.56.61,1.26,1.26,0,0,0,.92-.9,1.3,1.3,0,0,0-.56-1.16A4,4,0,0,0,228.23,335.69Z" style="fill:#455a64"></path><path d="M233.38,336.7a7.79,7.79,0,0,0-7-.82,2.45,2.45,0,0,0-1.68,1.85l-.31,2.56a2.5,2.5,0,0,0,1.22,2.19,7.78,7.78,0,0,0,7,.82,2.49,2.49,0,0,0,1.69-1.85l.3-2.56A2.47,2.47,0,0,0,233.38,336.7Z" style="fill:#e0e0e0"></path><path d="M226.38,335.88a2.15,2.15,0,0,0-.47,4,7.78,7.78,0,0,0,7,.82,2.15,2.15,0,0,0,.48-4A7.79,7.79,0,0,0,226.38,335.88Z" style="fill:#ebebeb"></path><path d="M242.77,312.34c-4.6-3.62-13.09-4.74-18.41-2.43-2.54,1.1-3.78,2.75-3.77,4.51l.89,22.09c0,.76.78,1.61,2.33,2.38a20.56,20.56,0,0,0,11.26,1.59c1.69-.32,2.67-.92,2.86-1.65l7.39-21.1C245.77,316,245,314.08,242.77,312.34Z" style="fill:#455a64"></path><path d="M231.24,427.43c-.14,4.95-.81,8.25-2.48,11.2s-4.95,4-8.33,3.21-7.73-2.89-8.82-7.12-1-7.17-.36-11.78Z" style="fill:#263238"></path><path d="M216.07,393.57c-1.16.41-1.77,6.83-2.36,13.5-.64,7.15-1.84,9.34-2.42,15.2-.68,6.7-.14,8.92,2.32,12.88s10.85,7.68,14.76,1.78c3.18-4.81,3.07-9.29,2.57-15.94a140.54,140.54,0,0,1-.43-15.88c.12-5,1.54-9.75.32-10.27-.07.73-1,6.37-1.93,5.79-.41-.07-.51-.77-.45-2.07A2.23,2.23,0,0,0,228,397a2.58,2.58,0,0,0-1.55-.64c-1.37-.23-3.25-.59-4.64-.67-.81,0-.35-.08-1.16-.1a7.17,7.17,0,0,0-3,.19c-.42.23-.45.65-.54,1.13s-.18,1.12-.32,1.59c-.05.19-.29.58-.49.57s-.43-.87-.42-1.25,0-1,0-1.44S216,394.74,216.07,393.57Z" style="fill:#37474f"></path><path d="M226.19,426.12a.45.45,0,0,1-.19-.05,16.39,16.39,0,0,0-10.67-.78.51.51,0,0,1-.63-.35.5.5,0,0,1,.34-.63,17.07,17.07,0,0,1,11.41.84.51.51,0,0,1-.26,1Z" style="fill:#f0f0f0"></path><path d="M227.44,421.29a.53.53,0,0,1-.17,0c-.06,0-6.28-2.66-12.46-1a.51.51,0,1,1-.25-1c6.53-1.71,12.88,1,13.12,1.09a.53.53,0,0,1,.27.68A.51.51,0,0,1,227.44,421.29Z" style="fill:#f0f0f0"></path><path d="M214,416.32a.52.52,0,0,1-.44-.34.51.51,0,0,1,.3-.66c6.13-2.28,14.35.38,14.61.5a.51.51,0,1,1-.44.92c-.06,0-8.11-2.59-13.81-.46A.57.57,0,0,1,214,416.32Z" style="fill:#f0f0f0"></path><path d="M214.86,412a.51.51,0,0,1-.44-.32.51.51,0,0,1,.29-.66c6.74-2.65,13.84.87,14.09,1a.51.51,0,0,1-.51.89s-6.93-3.41-13.2-.95A.46.46,0,0,1,214.86,412Z" style="fill:#f0f0f0"></path><path d="M215.13,406.68a.52.52,0,0,1-.44-.31.51.51,0,0,1,.28-.67c6.31-2.58,13.91,1,14.18,1.15a.52.52,0,0,1,.21.7.5.5,0,0,1-.69.21c-.07,0-7.46-3.51-13.31-1.12A.39.39,0,0,1,215.13,406.68Z" style="fill:#ebebeb"></path><path d="M218.64,318.55v.08a4.74,4.74,0,0,0,1.69,3.69c.23.23.45.45.7.67,2.05,1.87,6.53,3.3,9.63,3.58,4.34.4,10.61,1.12,13.12-1.88,2-2.42,2.11-5.38,2.57-7.13,1.71-6.67,2.4-10,3.6-15.32s1.92-8.28,1-8.64l-.8,3.21s-4.85,5.59-18,2.1c-5.29-1.4-8.46-3.35-10.34-5.15h0c-.24-.23-.45-.46-.65-.68a7.4,7.4,0,0,1-2.13-4.21l-.17-2.67c-1.11-.17-1,1.56-1.07,5.24s.27,14.18.59,18.3C218.51,312.26,218.47,314.69,218.64,318.55Z" style="fill:#37474f"></path><path d="M224.91,299a1.08,1.08,0,1,0-1.19,1A1.09,1.09,0,0,0,224.91,299Zm-.18,6.67a1.08,1.08,0,0,0-2.14-.23,1.08,1.08,0,0,0,.95,1.19A1.07,1.07,0,0,0,224.73,305.63Zm-1.45,8.26a1.08,1.08,0,0,0,1.19-1,1.08,1.08,0,1,0-1.19,1Zm-.79,5.82a1.08,1.08,0,0,0,2.15.23,1.08,1.08,0,1,0-2.15-.23Z" style="fill:#263238"></path><path d="M309.11,412c.3,0,.64,3.29-1,4.63-1.91,1.55-8.13,4.34-15.31,3.18s-9.58-3.17-12.47-5.58c-3.31-2.76-5.77-4.92-9-5.74-3-.77-7.56-2.64-8.5-3.61s-.6-4.49-.6-4.49Z" style="fill:#263238"></path><path d="M265.46,382.27c-2.17,0-1.12,4.07-1.39,7.92-.19,2.69-2.19,9.33-1.86,11.47s8.36,4.41,11.48,5.72c7,3,10.59,9.85,21.43,10.19,5.56.17,12-1.37,13.56-3.9,3-5.57-3.11-7.24-9.47-11s-14.58-9.52-15.4-17.63c-.08-1-.65-1.52-2.84-1.62-2.5-.13-5.6.37-7.48,2.18-.77,1.06-.08,2.58-.74,3.64-1.41.4-2.23-2.08-3.1-2.93C268.17,385.16,265.69,385.06,265.46,382.27Z" style="fill:#37474f"></path><path d="M291.32,406.72a.5.5,0,0,1-.36-.84,12.16,12.16,0,0,1,9.5-3.4.5.5,0,0,1,.44.57.51.51,0,0,1-.58.43,11.29,11.29,0,0,0-8.6,3.07A.48.48,0,0,1,291.32,406.72Z" style="fill:#f0f0f0"></path><path d="M286.92,404.05a.51.51,0,0,1-.32-.12.5.5,0,0,1-.06-.71A12.17,12.17,0,0,1,296,399.6a.51.51,0,0,1-.11,1,11.28,11.28,0,0,0-8.53,3.26A.52.52,0,0,1,286.92,404.05Z" style="fill:#f0f0f0"></path><path d="M282.88,401.05a.54.54,0,0,1-.32-.13.51.51,0,0,1-.05-.71A12.17,12.17,0,0,1,292,396.8a.51.51,0,0,1,.43.58.5.5,0,0,1-.57.43,11.35,11.35,0,0,0-8.61,3.06A.51.51,0,0,1,282.88,401.05Z" style="fill:#f0f0f0"></path><path d="M279.3,398.33a.45.45,0,0,1-.32-.11.51.51,0,0,1-.08-.71,12.2,12.2,0,0,1,9.36-3.8.49.49,0,0,1,.45.55.5.5,0,0,1-.55.46,11.37,11.37,0,0,0-8.47,3.42A.47.47,0,0,1,279.3,398.33Z" style="fill:#f0f0f0"></path><path d="M275.72,395a.5.5,0,0,1-.4-.82c2-2.52,6.46-4.21,10.23-3.82a.51.51,0,0,1,.46.56.51.51,0,0,1-.56.45c-3.4-.34-7.58,1.2-9.33,3.44A.5.5,0,0,1,275.72,395Z" style="fill:#f0f0f0"></path><path d="M291.16,312.85c-.06,1-.12,1.92-.18,2.86a58.26,58.26,0,0,0-17.28.24C276.23,314,285.41,311.58,291.16,312.85Z" style="fill:#c8856a"></path><path d="M290.72,319.43c-.07.9-.13,1.79-.2,2.67-1.3-.15-9.33-1.15-12.83-2.69A95,95,0,0,1,290.72,319.43Z" style="fill:#c8856a"></path><path d="M247.77,285.94s-2.6-4.05-9.28-5.09-10.31,2.49-10.31,2.49S240.69,282.45,247.77,285.94Zm-20.43,0c8.6,2,12.56,1.79,16.54,1.14C243.88,287.1,231.48,285.1,227.34,286Z" style="fill:#c8856a"></path><path d="M267.83,315.05c.59,3.68-.24,7.29-1.2,11.47a71.54,71.54,0,0,0-2.08,13.25c-.42,8.43,1.89,26.49,3.09,35.16l-.93-.27c-1.23-8.83-3.47-26.55-3-34.94a72.7,72.7,0,0,1,2.11-13.4c1-4.26,1.74-7.61,1.18-11.13-1.13-7.1-3.87-45.63-3.45-64.64l.89,0C264,269.54,266.7,308,267.83,315.05Z" style="fill:#37474f"></path></g><g id="freepik--top--inject-86"><path id="freepik--Hair--inject-86" d="M236.91,97.32c-.5-8.64,16-18.71,32.17-8.75s10.81,20.29,9.83,23.42l-.56,44.47h-49.2s0-37.35-.33-43.42S228.54,97.81,236.91,97.32Z" style="fill:#263238"></path><path d="M221.88,224c2.21-10.06,6.37-24.69,6.45-26.91.32-9-3.37-16.7-4.2-22.31-1.83-12.2,2.8-23.82,5.65-26.22,0,0,2.06-.57,5.8-1.53,3.91-.45,7-2.3,9.08-2.82,11.2-2.79,12.63,2.2,21.36,2.48,1.31.23,7.21.93,7.21.93a62.72,62.72,0,0,1,9.92,12.88c3.1,5.53,4.62,10.15,4.21,22-.12,3.56.1,9.84.46,14.91.78,11.15,1.4,14,2.36,25C277.69,230,243.13,234.14,221.88,224Z" style="fill:#fafafa"></path><path d="M250.74,144.31h0a18.66,18.66,0,0,1,7,1.51,24.43,24.43,0,0,0,8.2,1.82c1.25.2,5.59.73,6.85.88a62.16,62.16,0,0,1,9.51,12.42c3.08,5.5,4.48,10.12,4.09,21.48-.12,3.34.07,9.51.45,15,.46,6.46.86,10.23,1.3,14.21.31,2.88.63,5.86,1,10.14-7.49,4.34-21.75,7.23-35.83,7.23-8.27,0-20.15-1-30.27-5.63,1-4.49,2.35-9.76,3.55-14.45,1.72-6.74,2.7-10.62,2.75-11.86.22-6.11-1.39-11.71-2.67-16.22a52.55,52.55,0,0,1-1.55-6.26c-1.78-12,2.7-22.82,5.16-25.18.62-.17,2.54-.69,5.49-1.45a25.76,25.76,0,0,0,6.73-2,21.49,21.49,0,0,1,2.41-.88,24.61,24.61,0,0,1,5.84-.81m0-1a25,25,0,0,0-6.08.85c-2.09.52-5.17,2.37-9.08,2.82-3.74,1-5.8,1.53-5.8,1.53-2.85,2.4-7.48,14-5.65,26.22.83,5.61,4.52,13.3,4.2,22.31-.08,2.22-4.24,16.85-6.45,26.91,9,4.31,20.35,6.05,31.42,6.05,15.11,0,29.67-3.25,36.88-7.68-1-11-1.58-13.81-2.36-25-.36-5.07-.58-11.35-.46-14.91.41-11.85-1.11-16.47-4.21-22a62.72,62.72,0,0,0-9.92-12.88s-5.9-.7-7.21-.93c-6.84-.22-9.19-3.33-15.28-3.33Z" style="fill:#e0e0e0"></path><g id="freepik--head--inject-86"><path d="M242.78,142.39c0-2-.55-12.21-.55-12.21-.07.76-3.72,2.92-7.11-.93s-3.71-8-1.78-10.72c2.12-3,7-2.93,9,1.82,1.4,1.7,3.91-.36,2.68-5,.22-3.28,4.86-7,2.21-12.44,9.21-6.4,19.88-6.21,25.68-1.44,1.05,2.86,2.27,9.89,2.66,17.93.47,9.69-.93,13.38-5.14,16.65-2.7,2.1-5.59,2.95-9.65,2.7l.27,3.39h0c.11,1.69.1,3.26,1.76,3.82a27.45,27.45,0,0,0,3.7.76s4,6.24-6.63,7.09C243,155.14,235.66,147,235.66,147s1.6-.42,4.25-1.25S242.8,144.42,242.78,142.39Z" style="fill:#c8856a"></path><path d="M260.82,138.73c-7.27-.58-13.48-1.84-16.89-7.91,0,0,.13,3.39,4.15,6.75,3.67,3.08,12.94,3.72,12.94,3.72Z" style="fill:#af6152"></path><path d="M257.18,126l6.44,1.9a3.3,3.3,0,0,1-4.11,2.38A3.52,3.52,0,0,1,257.18,126Z" style="fill:#af6152"></path><path d="M257.62,127.48a3.7,3.7,0,0,1,3.76,2.79,3.21,3.21,0,0,1-1.87,0,3.45,3.45,0,0,1-2.38-2.74A2.63,2.63,0,0,1,257.62,127.48Z" style="fill:#ffa8a7"></path><path d="M272,107.52l-4.47-1a2.22,2.22,0,0,1,2.66-1.78A2.4,2.4,0,0,1,272,107.52Z" style="fill:#263238"></path><path d="M252.54,108.72l4.32-1.68a2.23,2.23,0,0,0-2.93-1.38A2.44,2.44,0,0,0,252.54,108.72Z" style="fill:#263238"></path><path d="M267.7,114.09a2,2,0,0,0,1.81,2,1.84,1.84,0,0,0,2-1.73,2,2,0,0,0-1.81-2A1.84,1.84,0,0,0,267.7,114.09Z" style="fill:#263238"></path><path d="M253.87,114.73a2,2,0,0,0,1.8,2,1.83,1.83,0,0,0,2-1.73,2,2,0,0,0-1.8-2A1.84,1.84,0,0,0,253.87,114.73Z" style="fill:#263238"></path><path d="M247.68,110.06l-11.36,6.53a4.77,4.77,0,0,1,3.6.7l8.18-4.62Z" style="fill:#455a64"></path><path d="M277.67,108.8c-2.88-.29-6.78-.33-9.14.47-2.65.9-3.59,1.85-5.06,1.91s-2.56-.84-5.39-1.57c-2.25-.58-6.27-.27-9.13.13-1,0-1.89.36-1.9,1.67s.93,1.41,1.14,2.4c.5,3.44,1.44,7.72,5.95,7.84,9.29.37,6.2-8.61,9.62-8.23,1.24.25,1.08,2.64,1.86,4.32a7,7,0,0,0,1.18,1.82c3.07,3.14,8.79,1.25,9.63-1.94.75-1.59.59-4.13,1.37-5.51C278.51,111.47,279.1,109.12,277.67,108.8Zm-17.53,7.39a5.71,5.71,0,0,1-1.28,2.59,5.07,5.07,0,0,1-3.81,1.57c-2,0-4-.87-4.57-2.81-.07-.18-.14-.35-.19-.52-.42-1.44-1-4.49-.23-5.39,1.37-1.5,8-1.51,10,.7C260.62,113.09,260.46,114.76,260.14,116.19ZM276,115.13c-.21,1-.67,3.17-2.58,4.18-2.51,1.32-6.06.08-6.63-2.38-1.59-5.14.4-6.38,5.54-7C276.55,109.87,276.8,111,276,115.13Z" style="fill:#455a64"></path><path d="M269.15,121.21l-6,3L262,114.94a2.77,2.77,0,0,1,.68-1.19Z" style="fill:#af6152"></path></g><g id="freepik--arm--inject-86"><path d="M216.16,239c-1.23-1.36-2.82-2.56-3.34-4.4a3.18,3.18,0,0,1,.45-2.81,1.4,1.4,0,0,0,.33-.51,1.1,1.1,0,0,0,0-.51,3.46,3.46,0,0,1,.14-2.09,2.15,2.15,0,0,1,1.33-1.14,5.09,5.09,0,0,1,0-3.16c.41-1.2,1.64-2.16,2.45-.82a11.57,11.57,0,0,1,.93,2.1,24.58,24.58,0,0,1,1.19,5.62c.2,2,.67,7.61-2.38,7.88C217,239.13,216.33,239.14,216.16,239Z" style="fill:#af6152"></path><path d="M229.76,148.68c-12.77,4.18-12.39,5.29-19.4,15S193.79,186.26,191.61,191c-2.71,5.86-3.29,8.11,2.94,14.36,3.2,3.21,7.68,7.05,12.23,11.38,3.59,3.41,7.91,7,11.39,10.57a3.2,3.2,0,0,1,1.08,3.24,21.68,21.68,0,0,0-.61,2.37,20.88,20.88,0,0,0,.24,3.15,2.75,2.75,0,0,1-1.23,2.71,2.89,2.89,0,0,1-1.49.18,10.47,10.47,0,0,0,2.87,1.58,4.39,4.39,0,0,0,3.21-.11c.95-.46,1.68-1.38,2.69-1.69.55-.16,1.14-.13,1.7-.28a2.71,2.71,0,0,0,1.45-1c.58-.74.82-1.8,1.65-2.25a12.59,12.59,0,0,1,1.27-.42,2.83,2.83,0,0,0,1.57-2.12,7.89,7.89,0,0,0-.06-2.74,69.35,69.35,0,0,0-1.48-7.27,7.45,7.45,0,0,0-1.17-2.23c-.55-.8-1.07-1.63-1.67-2.39-4-5.19-16.85-22.51-16.85-22.51l18.14-20A35.68,35.68,0,0,0,229.76,148.68Z" style="fill:#c8856a"></path><path d="M216.16,239c2,1.56,5.07,2.67,7.15.6a4.58,4.58,0,0,1,1.77-1c1.32-.15,2.61-.37,3.21-1.71a4.47,4.47,0,0,1,1.2-1.68c.66-.43,1.36-.36,1.82-.75a2.75,2.75,0,0,0,1-1.52c.44-3.12-.79-6.65-1.42-9.73-.45-1.94-1.92-3.38-3-5l-2.38-3.21c-4.63-6.2-9.69-13.09-14.18-19.34,4.73,6.05,9.9,12.87,14.56,19l2.4,3.19c1.08,1.68,2.64,3.22,3.08,5.23s.89,3.92,1.21,5.91a10.09,10.09,0,0,1,.15,4.07,3.25,3.25,0,0,1-1.17,1.76c-.62.46-1.39.4-1.85.73a4.18,4.18,0,0,0-1.11,1.53,3.09,3.09,0,0,1-1.49,1.43,8,8,0,0,1-2,.38c-1.29.3-2.14,1.59-3.45,1.9-2,.53-4-.6-5.54-1.78Z" style="fill:#af6152"></path><path d="M211.34,195.56c-3.58,3.53-9.13,3.81-11.18,3.69a11.66,11.66,0,0,0,12.33-2.13Z" style="fill:#af6152"></path></g><path d="M229.78,148.51c-4.31,1.09-11.09,2.5-16.95,10.69s-17.89,24.37-21,29.72-3.84,10-1.31,13,10.61,10.72,10.61,10.72a21.15,21.15,0,0,0,8.26-3.84c3.87-3,6.3-8.39,6.3-8.39L212,195.56s12.74-13.41,17.08-18.26S234.89,153.89,229.78,148.51Z" style="fill:#263238"></path><path d="M212,195.56c-3,3.09-9.56,2.44-12.05,1.91,4.9,3.17,10.28,1.46,13.16-.42Z"></path></g></g></g></svg>
